<?xml version="1.0" standalone="no"?>
<!DOCTYPE svg PUBLIC "-//W3C//DTD SVG 20010904//EN"
 "http://www.w3.org/TR/2001/REC-SVG-20010904/DTD/svg10.dtd">
<svg version="1.0" xmlns="http://www.w3.org/2000/svg"
 width="500.00000pt" height="568.000000pt" viewBox="0 0 1024.000000 568.000000"
 preserveAspectRatio="xMidYMid meet">

<g transform="translate(0.000000,568.000000) scale(0.100000,-0.100000)"
fill="#000000" stroke="none">
<path d="M0 4195 c0 -1224 2 -1483 13 -1479 22 8 66 -34 77 -74 15 -54 13 -70
-5 -46 -8 10 -15 15 -14 9 3 -26 -2 -37 -16 -31 -10 3 -15 -1 -15 -14 0 -29
-19 -34 -29 -8 -6 15 -10 -171 -10 -509 -1 -501 0 -533 17 -533 29 -1 96 -35
127 -67 17 -16 57 -40 90 -52 33 -12 65 -27 72 -33 7 -5 18 -6 24 -2 9 5 6 10
-9 15 -12 5 -22 13 -22 19 0 14 27 13 32 -2 5 -13 28 -2 28 13 0 6 -4 8 -9 5
-5 -3 -11 0 -14 7 -4 11 8 12 68 2 39 -6 98 -9 130 -7 43 3 55 1 50 -8 -6 -9
-35 -11 -105 -8 -96 5 -98 4 -109 -19 -24 -53 -2 -82 61 -83 28 0 44 7 62 27
14 15 23 30 20 35 -8 13 -30 9 -44 -7 -18 -22 -101 -18 -92 4 3 8 7 10 9 4 2
-6 13 -9 24 -6 16 5 17 8 7 22 -11 13 -9 13 14 -2 16 -10 29 -13 33 -7 3 6 20
10 36 10 18 0 28 -4 24 -10 -3 -5 -1 -10 4 -10 12 0 -10 -29 -49 -66 -29 -28
-26 -28 -81 -9 -33 12 -44 13 -50 3 -12 -19 -2 -26 54 -34 71 -10 77 -9 116
34 l33 37 -16 -32 c-28 -56 -93 -91 -122 -64 -5 4 -24 13 -41 19 -52 17 -42
-12 10 -32 52 -19 74 -20 107 -1 41 24 45 17 6 -10 -45 -30 -65 -31 -116 -5
-38 19 -40 20 -40 2 0 -21 57 -52 96 -52 49 0 102 41 138 105 10 17 15 22 12
12 -3 -10 -6 -23 -6 -28 0 -15 -82 -99 -111 -115 -30 -15 -68 -7 -101 23 -9 8
-22 13 -29 11 -20 -7 37 -63 76 -75 32 -10 41 -9 81 15 29 18 47 37 53 57 l9
30 1 -32 c1 -45 -13 -77 -44 -97 -37 -24 -77 -23 -114 3 -36 26 -42 14 -8 -16
51 -47 93 -55 122 -23 31 34 37 22 8 -15 -15 -19 -37 -35 -48 -35 -31 0 -77
33 -105 73 -25 37 -50 49 -50 24 0 -7 -12 -27 -27 -45 -39 -46 -99 -52 -159
-17 -24 14 -50 35 -59 47 -26 38 -17 41 14 5 35 -40 89 -59 132 -47 18 5 27 5
24 -1 -12 -19 11 -7 26 14 19 26 32 97 21 115 -7 10 -18 9 -55 -2 -26 -8 -49
-11 -52 -6 -2 4 -18 10 -34 13 -31 6 -101 62 -101 80 0 6 10 1 23 -11 29 -27
88 -52 125 -52 49 0 92 12 92 25 0 10 -19 13 -69 13 -46 -1 -82 5 -105 16 -20
9 -36 18 -36 20 0 1 32 -4 70 -12 39 -8 78 -11 88 -6 17 7 -8 15 -101 30 -38
7 -77 43 -77 72 0 8 10 0 23 -19 13 -19 32 -34 42 -35 53 -1 116 -18 131 -35
23 -25 34 -24 34 4 0 26 -31 42 -100 51 -75 11 -135 59 -100 81 5 3 10 -1 10
-10 0 -18 72 -54 108 -55 13 0 37 -7 53 -16 36 -18 40 -17 28 13 -5 15 -14 21
-24 17 -8 -4 -21 -2 -28 4 -7 6 -38 20 -69 32 -38 14 -58 27 -61 42 -5 17 -9
19 -20 10 -11 -10 -14 -6 -14 18 0 17 4 30 9 30 4 0 8 -4 8 -10 0 -20 52 -60
93 -70 23 -6 47 -17 52 -24 14 -18 65 -27 65 -11 0 12 -83 57 -129 70 -13 4
-42 24 -65 44 -76 68 -74 68 -68 14 l5 -48 -21 25 -21 25 -1 -524 0 -524 53 6
c28 3 65 12 81 21 16 8 33 13 38 10 4 -3 8 -1 8 4 0 6 -16 19 -35 31 -45 26
-77 78 -70 111 16 69 108 99 158 52 21 -20 25 -21 37 -7 21 25 40 18 36 -14
-2 -17 4 -38 15 -52 10 -13 19 -20 19 -15 0 5 7 3 15 -4 9 -8 15 -9 15 -2 0 6
-4 14 -10 17 -16 10 -12 25 5 19 17 -7 20 -40 5 -49 -11 -7 -9 -33 5 -55 8
-13 6 -13 -8 -2 -9 8 -36 20 -61 27 l-44 14 -12 -30 c-24 -56 14 -105 85 -111
14 -1 25 -6 25 -10 0 -30 -91 -12 -130 25 -26 24 -26 24 -60 5 -19 -10 -36
-14 -38 -10 -1 5 -17 6 -34 4 l-32 -5 47 -18 c33 -13 174 -39 213 -39 1 0 2
-16 1 -35 l-1 -36 -95 7 c-53 3 -126 10 -163 13 l-68 7 0 -143 0 -143 4284 0
c2356 0 4291 2 4299 6 8 3 12 14 10 27 -3 17 9 33 47 65 61 53 66 42 8 -18
-57 -59 -58 -77 -2 -78 39 0 45 3 59 30 17 35 20 62 5 53 -5 -3 -10 -14 -10
-24 0 -17 -29 -51 -44 -51 -4 0 -4 10 -1 21 5 15 4 19 -4 15 -6 -4 -11 -2 -11
4 0 7 8 9 20 5 16 -5 20 -2 20 17 1 29 22 58 43 58 19 0 37 -29 30 -48 -3 -6
-9 -9 -15 -6 -6 4 -8 1 -6 -7 3 -8 -1 -26 -9 -41 -8 -18 -10 -28 -3 -28 6 0
14 10 19 23 5 12 30 50 55 85 26 35 62 91 81 125 19 34 35 56 35 49 0 -23 -59
-130 -110 -200 -28 -38 -50 -72 -50 -75 0 -4 335 -7 745 -7 l745 0 0 134 c0
129 -1 134 -20 129 -18 -5 -20 0 -20 37 0 33 4 43 20 47 22 6 28 42 8 44 -7 1
-29 3 -48 5 -21 3 -77 -9 -145 -30 -60 -19 -143 -40 -182 -47 -40 -7 -73 -16
-73 -21 0 -10 140 -2 220 14 30 5 82 21 114 34 35 14 64 20 69 15 12 -12 -5
-93 -21 -99 -6 -2 -12 5 -12 15 0 12 -3 14 -8 6 -4 -7 -13 -9 -19 -5 -6 4 -55
4 -110 1 -54 -4 -137 -7 -185 -8 -54 -1 -90 -5 -94 -13 -9 -14 -34 18 -34 44
0 22 27 33 95 41 28 3 77 16 110 29 58 22 59 23 30 29 -46 10 -77 10 -71 0 4
-5 -3 -7 -14 -4 -24 6 -26 29 -4 41 11 6 33 3 68 -11 56 -21 66 -20 244 19
l82 19 0 1025 0 1026 -50 26 c-27 14 -47 22 -44 17 3 -5 1 -9 -5 -9 -5 0 -12
6 -14 13 -4 9 -6 8 -6 -2 -1 -9 -5 -10 -13 -4 -20 16 -57 22 -64 12 -10 -18
-30 9 -32 43 -1 19 6 47 17 65 25 39 70 50 153 37 l58 -10 0 1488 0 1488
-5120 0 -5120 0 0 -1485z m8287 1139 c-3 -3 -12 -4 -19 -1 -8 3 -5 6 6 6 11 1
17 -2 13 -5z m-6308 -19 c11 -12 -7 -11 -49 1 l-45 14 45 -6 c24 -3 46 -7 49
-9z m102 -47 c58 -56 108 -128 101 -146 -6 -15 -7 -14 -10 3 -2 11 -8 24 -12
29 -5 5 -5 -8 0 -27 l8 -36 -35 14 c-20 8 -37 15 -39 15 -11 0 -1 22 19 40
l22 21 -25 -9 c-14 -6 -24 -15 -22 -21 3 -16 -4 -14 -61 18 -29 15 -69 34 -90
41 -21 6 -36 14 -33 17 9 9 130 -38 139 -53 9 -15 37 -19 37 -6 0 13 -52 58
-90 78 -19 10 -57 21 -85 25 l-50 6 50 2 c55 1 110 -22 158 -67 20 -19 30 -23
39 -14 16 16 -10 51 -60 82 -23 14 -44 31 -46 38 -8 20 44 -11 85 -50z m6067
40 c-7 -12 -23 -33 -36 -46 -13 -13 -22 -31 -20 -40 6 -31 25 -21 51 27 18 32
39 54 61 65 48 23 59 19 14 -5 -40 -21 -77 -69 -42 -54 53 22 98 35 108 32 6
-2 -9 -10 -34 -17 -76 -22 -165 -100 -115 -100 20 0 19 -13 -2 -26 -15 -8 -24
-3 -50 23 l-32 32 26 38 c52 77 65 93 74 93 5 0 4 -10 -3 -22z m152 -88 c12
-8 9 -10 -11 -10 -15 0 -43 -7 -63 -15 -20 -8 -36 -12 -36 -8 0 5 -5 0 -11
-11 -9 -15 -13 -16 -20 -5 -11 18 -11 32 0 25 4 -3 32 3 62 14 64 23 60 22 79
10z m-225 -62 c25 -22 33 -40 16 -35 -5 1 -16 -7 -25 -18 -12 -16 -18 -18 -33
-9 -26 16 -23 40 5 37 19 -3 21 0 12 16 -20 38 -11 41 25 9z m-5829 -78 c12
-25 289 -334 334 -372 32 -27 34 -30 18 -42 -28 -21 -21 -30 8 -11 29 18 54 7
54 -25 0 -18 -35 -69 -42 -60 -46 61 -58 82 -52 93 4 6 4 9 -1 5 -5 -5 -27 20
-50 55 -42 61 -246 289 -267 296 -13 4 12 -35 82 -128 89 -119 102 -136 161
-203 57 -63 85 -106 76 -114 -9 -10 -324 383 -356 444 -7 12 -16 20 -22 17
-18 -12 -9 19 13 42 26 28 32 29 44 3z m5773 0 l23 -20 -20 -22 c-12 -13 -54
-72 -94 -133 -76 -114 -237 -323 -250 -324 -25 -3 1 44 60 109 37 42 90 107
118 145 50 68 120 185 111 185 -15 0 -226 -260 -256 -316 -20 -37 -42 -69 -49
-72 -6 -2 -17 8 -24 23 -11 24 -8 29 39 78 27 29 83 93 124 142 40 50 95 114
121 143 27 30 48 60 48 68 0 20 21 17 49 -6z m-4238 -150 c50 -14 99 -49 127
-90 21 -31 23 -42 17 -99 -4 -36 -14 -75 -22 -88 -9 -13 -13 -33 -9 -47 3 -13
2 -26 -3 -28 -12 -4 -61 -104 -61 -124 0 -41 -122 31 -128 76 -4 26 27 102 38
95 4 -3 6 -18 4 -35 -3 -21 3 -38 16 -52 18 -20 21 -20 38 -5 24 22 38 22 21
0 -13 -16 -12 -17 2 -5 14 10 15 17 5 37 -6 14 -15 25 -19 25 -4 0 -15 16 -23
35 -11 28 -27 42 -76 65 -71 34 -75 36 -58 15 7 -8 9 -15 6 -15 -17 0 -53 24
-74 48 -18 21 -21 23 -16 7 4 -11 14 -28 22 -38 22 -24 9 -31 -13 -7 -27 30
-31 116 -8 160 33 64 126 94 214 70z m2865 -16 c79 -58 95 -156 37 -223 -24
-29 -30 -26 -28 14 0 22 -4 35 -12 35 -7 0 -13 -7 -13 -15 0 -8 -4 -15 -10
-15 -5 0 -10 5 -10 10 0 6 -5 10 -11 10 -5 0 -7 -5 -4 -10 3 -6 -2 -13 -12
-16 -49 -16 -103 -51 -115 -74 -15 -31 -49 -70 -60 -70 -5 0 -6 6 -2 13 6 9 5
9 -8 0 -12 -11 -18 -9 -33 7 -17 19 -17 20 0 20 12 0 15 4 8 13 -18 24 -36 97
-37 154 -1 71 24 112 92 148 40 21 58 25 119 22 54 -2 79 -7 99 -23z m-3006
-240 c0 -2 -7 -4 -15 -4 -8 0 -15 4 -15 10 0 5 7 7 15 4 8 -4 15 -8 15 -10z
m2990 12 c0 -2 -7 -7 -16 -10 -8 -3 -12 -2 -9 4 6 10 25 14 25 6z m1000 -47
c11 -25 11 -32 1 -39 -7 -4 -12 -11 -11 -16 1 -5 -3 -10 -9 -12 -6 -2 -18 12
-27 32 -14 29 -15 38 -4 51 19 23 36 18 50 -16z m-4262 -14 c25 -21 31 -35 37
-88 7 -58 11 -65 57 -109 48 -47 92 -62 100 -37 3 9 9 9 26 0 27 -15 19 -36
-15 -39 -36 -3 -38 -8 -15 -28 17 -14 21 -30 21 -98 0 -45 -4 -97 -11 -116
l-11 -34 -13 50 c-16 63 -44 112 -93 161 -54 54 -86 152 -71 217 17 75 -4 117
-66 136 l-29 8 27 1 c15 1 40 -10 56 -24z m3612 15 c0 -5 -15 -10 -33 -10 -48
0 -65 -25 -77 -111 -9 -65 -21 -113 -44 -184 -4 -12 -29 -36 -57 -54 -27 -19
-49 -39 -50 -45 -1 -6 -3 -31 -5 -56 -2 -25 -6 -57 -10 -72 -3 -15 -3 -36 1
-45 6 -16 8 -15 16 6 5 13 7 33 3 44 -4 11 -2 17 3 14 18 -11 134 123 161 186
14 33 28 54 30 48 2 -7 0 -23 -5 -34 -34 -78 -59 -120 -89 -147 -19 -17 -34
-34 -34 -39 0 -4 -9 -18 -20 -31 -26 -30 -25 -40 3 -40 22 -1 22 -1 2 -15 -17
-14 -18 -20 -8 -58 6 -23 10 -44 7 -46 -2 -3 -26 18 -53 46 -66 68 -88 136
-74 222 5 34 6 61 1 61 -4 0 -8 7 -8 15 0 8 5 15 10 15 6 0 10 -4 10 -10 0 -5
5 -10 10 -10 6 0 10 10 10 22 0 12 12 35 28 51 25 27 25 29 3 16 -66 -39 -65
-38 -73 -26 -4 7 -8 17 -8 23 0 15 36 24 48 12 11 -11 95 32 134 69 18 17 29
41 34 71 9 59 63 122 105 122 16 0 29 -4 29 -10z m-4168 -34 c110 -14 249 -16
313 -5 105 18 110 17 111 -9 1 -12 -4 -26 -11 -30 -7 -4 -14 -12 -16 -18 -3
-7 -35 -6 -104 3 -120 16 -403 23 -408 10 -1 -5 -12 -7 -24 -5 l-22 3 19 42
19 43 40 -14 c21 -8 59 -17 83 -20z m4750 -8 c10 -23 16 -44 13 -46 -2 -3 -31
1 -64 8 -43 9 -104 10 -218 5 -286 -12 -256 -15 -267 23 -5 18 -6 35 -3 39 4
3 28 0 54 -8 69 -20 352 -17 413 4 25 9 47 16 50 16 3 1 13 -18 22 -41z
m-4234 10 c27 -30 44 -76 37 -99 -4 -11 -20 -26 -37 -35 -27 -14 -134 -54
-145 -54 -13 0 2 38 27 70 17 21 33 53 36 72 7 36 30 68 49 68 6 0 21 -10 33
-22z m352 6 c0 -8 -4 -12 -10 -9 -5 3 -10 10 -10 16 0 5 5 9 10 9 6 0 10 -7
10 -16z m2872 -28 c11 -24 18 -51 15 -60 -9 -22 -96 -76 -124 -76 -18 0 -24 8
-33 41 -6 22 -14 48 -17 57 -6 14 -4 15 8 5 13 -10 21 -7 48 18 21 19 31 24
27 13 -4 -10 -1 -21 6 -26 9 -6 5 -7 -9 -3 -15 4 -23 2 -23 -6 0 -7 3 -9 7 -6
3 4 13 1 21 -5 21 -18 45 18 38 60 -7 45 10 40 36 -12z m48 34 c0 -5 -4 -10
-10 -10 -5 0 -10 5 -10 10 0 6 5 10 10 10 6 0 10 -4 10 -10z m60 -17 c0 -3 -6
-3 -14 0 -8 3 -17 -1 -20 -9 -3 -8 -10 -14 -16 -14 -5 0 -2 9 7 19 14 17 43
19 43 4z m348 -11 c6 -9 12 -25 12 -36 0 -12 14 -48 30 -81 16 -33 27 -61 26
-63 -6 -6 -147 54 -166 71 -32 27 -10 110 33 126 26 10 47 4 65 -17z m-3368
-26 c0 -6 -7 -1 -15 10 -8 10 -15 23 -15 28 0 6 7 1 15 -10 8 -10 15 -23 15
-28z m-20 -7 c15 -28 5 -23 -15 7 -9 15 -12 23 -6 20 6 -4 16 -16 21 -27z
m3030 22 c0 -5 -7 -12 -16 -15 -14 -5 -15 -4 -4 9 14 17 20 19 20 6z m-3059
-18 c13 -16 12 -17 -3 -4 -17 13 -22 21 -14 21 2 0 10 -8 17 -17z m209 1 c0
-2 -7 -4 -15 -4 -8 0 -15 4 -15 10 0 5 7 7 15 4 8 -4 15 -8 15 -10z m2883 -20
c-3 -8 -7 -14 -10 -14 -3 0 -3 7 1 15 3 8 1 15 -4 15 -6 0 -10 -4 -10 -10 0
-5 -5 -10 -10 -10 -6 0 -5 8 2 19 14 23 41 10 31 -15z m-3107 4 c5 4 6 3 2 -2
-4 -5 -3 -15 3 -23 16 -19 -1 -16 -23 4 -21 19 -25 41 -5 24 8 -6 18 -7 23 -3z
m3144 8 c0 -2 -8 -10 -17 -17 -16 -13 -17 -12 -4 4 13 16 21 21 21 13z m-3175
-42 c16 -25 16 -25 -3 -15 -11 6 -21 8 -24 6 -2 -2 -4 5 -5 15 -2 28 12 25 32
-6z m3175 1 c-7 -8 -17 -15 -23 -15 -5 0 -2 9 8 20 21 23 35 19 15 -5z m-3211
-30 c16 -20 16 -20 -6 -1 -13 11 -23 26 -22 35 0 14 1 14 6 1 3 -8 13 -24 22
-35z m-1707 -1 c9 -3 19 -12 22 -20 3 -8 -15 -1 -39 16 -25 17 -45 34 -45 37
0 3 10 -2 23 -11 12 -9 30 -19 39 -22z m1684 -11 c8 -3 14 -9 14 -14 0 -13
-24 -11 -44 4 -16 12 -17 16 -5 38 l14 24 3 -23 c2 -13 10 -26 18 -29z m3280
15 c10 -19 19 -27 22 -20 2 7 -2 20 -10 30 -12 15 -11 16 5 3 21 -17 22 -47 1
-55 -10 -4 -13 -2 -8 6 5 8 2 9 -9 5 -9 -3 -16 -3 -16 1 4 25 -3 52 -11 47 -6
-4 -8 -16 -4 -27 5 -18 4 -19 -9 -7 -10 10 -12 19 -6 32 14 25 26 21 45 -15z
m1649 -18 c-27 -16 -55 -30 -61 -30 -7 0 -14 -7 -18 -15 -6 -15 -36 -10 -36 7
0 5 4 7 9 4 5 -4 11 -1 13 4 2 6 10 12 18 14 8 1 33 12 55 24 61 32 77 26 20
-8z m-6615 -31 c48 -12 53 -11 46 6 -3 8 -1 15 4 15 6 0 10 -6 10 -14 0 -7 10
-21 23 -30 l22 -16 -25 9 c-14 6 -45 13 -70 16 -25 3 -58 12 -75 20 l-30 14
30 -5 c17 -3 46 -10 65 -15z m5061 -122 c-38 -68 -141 -185 -141 -159 0 11 54
78 92 113 16 15 76 151 80 181 1 7 3 -4 5 -25 3 -29 -4 -53 -36 -110z m1678
139 c-2 -2 -22 -6 -44 -9 -28 -5 -34 -4 -20 3 19 8 73 14 64 6z m-5173 -93
c29 -82 54 -118 88 -129 37 -12 56 -45 90 -161 5 -17 -3 -31 -35 -63 -50 -49
-53 -46 -62 58 -4 42 -15 79 -31 106 -47 80 -104 266 -81 266 1 0 15 -35 31
-77z m5074 67 c-8 -5 -24 -9 -35 -9 -16 1 -16 2 5 9 35 11 48 11 30 0z m-6517
-33 c-18 -20 -18 -20 5 -8 26 14 42 7 25 -10 -14 -14 -66 -23 -58 -9 3 5 -1
10 -9 10 -20 0 -21 -19 -1 -26 8 -4 15 -14 15 -24 0 -14 -12 -18 -67 -23 -74
-7 -97 -2 -37 8 71 11 84 15 84 25 0 6 -12 11 -27 11 -18 1 -22 3 -10 6 12 3
16 10 12 24 -6 17 -3 19 20 13 21 -5 27 -2 32 14 3 13 10 19 19 15 12 -5 12
-9 -3 -26z m5023 -54 c-3 -40 -13 -87 -21 -103 -18 -34 -19 -44 -5 -35 22 13
8 -8 -34 -53 -25 -27 -50 -60 -55 -76 -14 -36 -14 -112 0 -138 15 -27 3 -36
-19 -12 -13 15 -16 34 -14 89 2 64 6 75 47 135 70 104 78 129 84 263 1 11 6
15 12 11 8 -5 10 -30 5 -81z m1339 78 c-2 -4 3 -15 11 -26 14 -19 14 -19 15 1
0 10 3 14 5 7 3 -7 12 -9 20 -6 8 3 14 1 14 -5 0 -6 9 -8 20 -5 13 4 20 0 20
-10 0 -11 -9 -14 -37 -12 -21 2 -43 4 -50 4 -31 2 -58 58 -28 58 8 0 12 -3 10
-6z m-6625 -11 c13 -9 13 -10 0 -10 -8 0 -22 5 -30 10 -13 9 -13 10 0 10 8 0
22 -5 30 -10z m1645 -7 c-1 -10 4 -33 11 -52 8 -18 16 -50 19 -70 2 -20 22
-72 43 -116 45 -92 65 -212 39 -233 -12 -10 -15 1 -19 70 -6 82 -16 120 -49
168 -18 28 -55 136 -65 194 -5 27 -3 41 7 47 18 11 18 12 14 -8z m-1505 -15
c0 -5 -16 -7 -37 -4 -21 3 -49 6 -63 6 -20 1 -21 3 -8 8 25 10 108 2 108 -10z
m5185 -119 c-15 -54 -41 -120 -58 -146 -46 -73 -67 -135 -60 -178 4 -28 3 -36
-5 -31 -15 9 -15 83 0 127 6 19 27 58 46 87 29 44 61 124 61 150 0 4 3 35 7
70 6 60 7 62 22 41 13 -19 12 -30 -13 -120z m1280 112 c13 -26 23 -31 83 -41
37 -6 74 -16 82 -21 11 -8 5 -9 -20 -4 -19 3 -48 8 -65 11 -16 2 -39 6 -49 7
-18 3 -66 53 -66 70 0 18 21 5 35 -22z m-6435 3 c0 -8 -5 -12 -10 -9 -6 4 -8
11 -5 16 9 14 15 11 15 -7z m6600 6 c13 -8 13 -10 -2 -10 -9 0 -20 5 -23 10
-8 13 5 13 25 0z m-6416 -67 c-18 -13 -44 -17 -44 -7 0 3 5 15 12 27 10 20 10
21 -5 8 -10 -7 -17 -20 -17 -27 0 -19 -26 -18 -34 2 -8 22 -8 24 7 18 7 -2 19
7 27 21 l14 25 28 -27 c27 -26 28 -29 12 -40z m1160 -183 c9 -24 20 -47 24
-50 25 -17 93 -130 78 -130 -8 0 -110 147 -122 177 -21 49 -37 177 -29 220 7
33 10 25 21 -67 7 -58 20 -125 28 -150z m31 150 c17 -102 54 -189 106 -250
l30 -35 -31 85 c-55 151 -89 262 -83 276 12 31 33 5 33 -39 0 -12 14 -60 31
-107 37 -100 90 -301 83 -312 -11 -18 -22 -6 -28 33 -4 23 -17 51 -32 66 -42
42 -93 123 -105 165 -22 82 -39 231 -24 217 2 -3 11 -48 20 -99z m5030 72 c5
-13 24 -28 42 -34 42 -15 33 -29 -11 -16 -30 10 -41 22 -64 72 -3 5 2 7 9 4 8
-2 18 -14 24 -26z m272 22 c-3 -3 -12 -4 -19 -1 -8 3 -5 6 6 6 11 1 17 -2 13
-5z m-4750 -68 c26 -8 109 -30 183 -47 115 -26 149 -30 227 -26 51 2 94 2 97
0 2 -2 109 -5 237 -6 214 -2 234 -3 237 -19 2 -13 -3 -18 -17 -18 -12 0 -21 5
-21 12 0 7 -7 5 -17 -5 -12 -10 -73 -22 -183 -37 -91 -12 -179 -23 -196 -26
-29 -4 -31 -3 -27 19 5 24 7 24 156 31 232 10 267 23 66 25 -215 1 -226 -1
-239 -49 -8 -31 -14 -37 -30 -33 -24 6 -24 6 -4 44 23 46 11 58 -15 15 -17
-27 -28 -35 -40 -30 -105 44 -340 102 -421 104 -25 1 -64 -2 -87 -6 -46 -7
-50 -2 -34 38 5 13 12 36 16 51 l6 28 29 -24 c16 -14 51 -32 77 -41z m3298 0
c-10 -75 -33 -133 -84 -209 -25 -37 -57 -86 -70 -108 -13 -22 -25 -38 -28 -35
-6 6 45 104 68 131 34 39 70 125 86 204 17 88 39 101 28 17z m1138 -10 c-18
-6 -29 -4 -39 6 -13 13 -12 18 7 42 l22 28 18 -33 c17 -34 17 -34 -8 -43z
m-1610 32 c3 -18 8 -43 12 -56 8 -25 6 -25 -76 -6 -34 8 -219 -28 -351 -67
-57 -18 -109 -32 -115 -32 -7 0 -13 -4 -13 -9 0 -19 -18 -5 -36 27 -10 19 -22
35 -26 35 -11 0 -9 -11 7 -40 26 -46 21 -50 -57 -46 -65 4 -295 36 -370 52
-16 3 -28 10 -28 15 0 6 -4 7 -10 4 -5 -3 -10 3 -10 14 0 20 4 20 313 16 l312
-4 160 35 c157 35 236 61 249 83 14 22 34 11 39 -21z m517 -40 c0 -53 -7 -89
-23 -129 -26 -63 -130 -223 -135 -208 -6 17 8 59 26 77 75 76 115 173 113 273
0 33 4 59 9 59 6 0 10 -32 10 -72z m1315 62 c3 -5 1 -10 -4 -10 -6 0 -11 5
-11 10 0 6 2 10 4 10 3 0 8 -4 11 -10z m-6595 -9 c0 -10 -120 -21 -135 -12 -5
3 17 9 50 12 33 3 66 6 73 7 6 1 12 -2 12 -7z m-173 -7 c-3 -3 -12 -4 -19 -1
-8 3 -5 6 6 6 11 1 17 -2 13 -5z m1443 -116 c8 -55 23 -110 41 -149 35 -73 32
-90 -4 -27 -43 73 -77 223 -61 270 5 14 9 17 10 8 1 -8 8 -54 14 -102z m5373
105 c-7 -2 -19 -2 -25 0 -7 3 -2 5 12 5 14 0 19 -2 13 -5z m-6309 -114 c82
-83 133 -127 215 -186 3 -2 -9 -17 -26 -34 l-30 -31 -23 48 c-25 51 -120 149
-215 222 -33 25 -62 47 -64 49 -6 4 21 33 32 33 6 0 55 -46 111 -101z m5003
29 c-5 -57 -16 -91 -47 -153 -22 -44 -40 -86 -40 -93 0 -6 -4 -12 -10 -12 -16
0 -12 14 21 80 46 93 59 137 59 196 0 34 4 54 11 54 9 0 10 -21 6 -72z m-5417
58 c0 -2 -7 -7 -16 -10 -8 -3 -12 -2 -9 4 6 10 25 14 25 6z m6407 -11 c8 -9
14 -17 12 -19 -2 -2 -33 -22 -68 -46 -84 -56 -205 -172 -228 -218 -24 -46 -37
-49 -62 -13 l-20 28 67 46 c37 25 110 89 162 142 52 52 101 95 108 95 7 0 20
-7 29 -15z m206 8 c-7 -2 -19 -2 -25 0 -7 3 -2 5 12 5 14 0 19 -2 13 -5z
m-5301 -183 c15 -45 34 -78 66 -112 46 -50 52 -80 7 -38 -65 61 -127 211 -108
263 7 19 8 18 11 -13 1 -19 12 -64 24 -100z m2408 108 c0 -6 -15 -25 -32 -42
-40 -37 -98 -116 -98 -133 0 -7 -4 -13 -8 -13 -22 0 -18 16 14 60 l35 48 -31
7 c-35 8 -40 25 -7 25 12 0 29 5 37 10 11 8 5 10 -24 8 -29 -2 -40 -7 -47 -25
-5 -13 -14 -22 -20 -21 -7 2 -24 -20 -38 -49 -14 -28 -30 -52 -34 -52 -13 -1
3 42 24 65 31 33 24 43 -23 33 -23 -6 -48 -9 -57 -7 -17 3 163 72 227 87 24 5
46 12 49 14 8 8 33 -4 33 -15z m-626 1 c21 -6 46 -12 55 -14 9 -2 47 -15 85
-29 38 -14 71 -26 72 -26 2 0 4 -4 4 -9 0 -5 -15 -5 -35 -1 -38 9 -48 -7 -19
-30 19 -17 37 -50 27 -50 -14 0 -58 73 -55 89 2 13 1 13 -6 2 -11 -15 -32 -7
-32 14 0 16 -23 25 -80 30 -39 4 -41 3 -15 -5 17 -5 42 -12 58 -15 34 -7 36
-25 3 -25 -37 0 -38 -11 -5 -59 16 -25 26 -47 23 -50 -4 -3 -11 3 -18 13 -6
11 -23 34 -38 51 -29 34 -36 51 -16 39 7 -4 8 -3 4 5 -4 6 -11 9 -16 6 -5 -3
-18 3 -30 15 -11 11 -24 20 -30 20 -5 0 -10 9 -10 20 0 23 17 25 74 9z m664
-13 c3 -12 -1 -17 -10 -14 -7 3 -15 13 -16 22 -3 12 1 17 10 14 7 -3 15 -13
16 -22z m1721 7 c0 -5 -4 -17 -9 -28 -8 -18 -9 -17 -9 8 -1 15 4 27 9 27 6 0
10 -3 9 -7z m-32 -52 c-9 -75 -78 -221 -104 -221 -7 0 -13 7 -13 15 0 9 6 12
15 9 9 -4 15 0 15 10 0 9 5 16 12 16 6 0 9 3 5 6 -3 4 7 32 23 63 15 31 31 78
35 104 10 62 19 61 12 -2z m43 -91 l-11 -25 6 25 c2 14 6 39 6 55 l2 30 4 -30
c2 -17 -1 -42 -7 -55z m-4230 48 c0 -19 -2 -20 -10 -8 -13 19 -13 30 0 30 6 0
10 -10 10 -22z m2080 12 c0 -5 -2 -10 -4 -10 -3 0 -8 5 -11 10 -3 6 -1 10 4
10 6 0 11 -4 11 -10z m-106 -68 c2 -4 -2 -15 -9 -25 -10 -13 -14 -15 -18 -5
-8 26 14 51 27 30z m2050 -59 c-21 -32 -40 -60 -41 -62 -2 -2 -5 -2 -8 1 -3 3
13 29 35 59 22 29 40 58 40 63 0 5 3 6 6 3 4 -4 -11 -32 -32 -64z m-1740 48
c8 -13 -4 -42 -15 -35 -12 7 -12 44 0 44 6 0 12 -4 15 -9z m-2274 -36 c13 -14
21 -25 18 -25 -2 0 -15 11 -28 25 -13 14 -21 25 -18 25 2 0 15 -11 28 -25z
m4160 -15 c-12 -16 -24 -30 -26 -30 -3 0 4 14 16 30 12 17 24 30 26 30 3 0 -4
-13 -16 -30z m-4760 -29 c0 -37 -6 -41 -41 -29 -35 12 -35 15 -8 44 26 28 49
21 49 -15z m802 7 c28 -31 38 -68 18 -68 -5 0 -10 7 -10 16 0 9 -11 27 -25 40
-24 22 -33 44 -18 44 3 0 19 -14 35 -32z m4121 4 c-2 -6 3 -9 11 -6 16 6 34
-33 45 -104 8 -50 -2 -81 -15 -48 -9 23 -22 10 -19 -19 4 -31 -3 -32 -16 -2
-8 20 -9 19 -4 -6 5 -22 2 -27 -11 -25 -9 2 -19 -3 -21 -10 -3 -7 1 -10 11 -6
11 4 16 1 16 -10 0 -9 -4 -16 -9 -16 -6 0 -8 -17 -6 -37 1 -21 3 -44 4 -52 1
-10 13 -12 55 -7 50 7 55 5 75 -20 11 -15 21 -36 21 -46 0 -26 -32 -79 -45
-74 -5 2 -18 -1 -27 -5 -26 -14 -30 6 -7 27 28 25 39 55 28 76 -9 16 -16 17
-56 1 -10 -3 -22 -7 -27 -7 -15 -2 -24 -40 -13 -54 13 -17 0 -29 -15 -14 -7 7
-19 12 -27 12 -11 0 -10 -4 5 -14 18 -14 18 -15 -6 -20 -14 -4 -38 -6 -55 -5
-36 1 -87 -7 -130 -21 -18 -6 -41 -13 -51 -15 -59 -14 -110 -29 -114 -35 -3
-4 -27 -12 -55 -20 -27 -7 -54 -16 -60 -19 -5 -3 -12 -6 -15 -7 -44 -7 -208
-97 -221 -120 -9 -18 -18 -23 -33 -18 -34 11 -62 33 -76 60 -18 32 -10 37 74
54 34 7 174 48 311 92 138 44 262 84 276 88 45 14 88 40 100 61 9 18 7 25 -9
41 -16 16 -18 26 -11 47 6 18 3 43 -10 86 -19 59 -21 111 -6 150 6 14 5 17 -3
10 -6 -5 -15 -26 -20 -45 l-10 -35 -1 33 c-1 44 12 67 59 101 33 24 45 27 77
21 21 -3 37 -11 36 -18z m459 -6 c16 -23 16 -24 -8 -35 -31 -14 -44 -7 -44 23
0 42 26 48 52 12z m-4893 -12 c36 -30 44 -66 33 -154 -6 -49 -5 -74 6 -103 9
-22 11 -42 6 -45 -54 -40 -31 -88 58 -125 59 -25 506 -170 612 -199 27 -7 51
-19 53 -25 2 -6 -13 -28 -34 -49 -32 -33 -38 -35 -41 -20 -3 12 -7 15 -11 8
-5 -8 -15 -4 -31 11 -57 51 -141 93 -255 128 -22 6 -62 20 -90 29 -87 31 -185
60 -200 60 -8 0 -15 4 -15 8 0 5 -21 9 -46 10 -28 0 -50 6 -55 14 -7 10 -9 10
-9 1 0 -7 -6 -13 -14 -13 -8 0 -16 6 -19 13 -3 9 -9 9 -28 0 -13 -6 -40 -14
-60 -18 -32 -5 -40 -2 -63 26 -29 34 -28 53 6 102 22 30 36 33 85 15 41 -15
57 0 49 45 -3 15 -2 27 3 27 5 0 8 10 7 23 -3 25 -27 67 -39 67 -9 0 -1 -17
21 -42 8 -10 10 -18 5 -18 -18 0 -36 29 -37 60 -1 27 -16 45 -16 20 0 -5 -4
-10 -10 -10 -5 0 -10 7 -10 15 0 8 5 15 11 15 6 0 8 9 4 20 -9 29 4 97 22 115
22 23 68 18 102 -11z m175 -10 c9 -24 7 -28 -9 -14 -17 14 -20 30 -6 30 5 0
12 -7 15 -16z m-47 -25 c-1 -12 4 -24 12 -27 10 -3 12 0 8 12 -4 9 -2 16 3 16
18 0 19 -19 2 -40 -16 -20 -21 -21 -42 -10 -16 9 -19 14 -10 20 7 4 9 13 6 19
-8 13 1 31 14 31 6 0 9 -10 7 -21z m3984 -12 c-8 -8 -11 -7 -11 4 0 20 13 34
18 19 3 -7 -1 -17 -7 -23z m-4642 4 c12 -8 13 -14 3 -36 -17 -36 -109 -151
-180 -223 -61 -62 -156 -120 -167 -102 -13 21 6 49 38 56 49 10 121 63 187
137 55 62 70 87 54 87 -9 0 -144 -95 -212 -150 -57 -46 -65 -50 -76 -35 -8 12
-19 15 -39 10 -36 -9 -34 -25 3 -25 26 0 30 -3 30 -29 0 -35 -31 -47 -54 -22
-16 18 -22 72 -9 85 4 4 8 23 10 43 2 42 24 69 47 60 13 -5 15 -15 10 -47 -6
-38 6 -55 21 -30 3 5 21 17 40 25 33 16 208 156 234 188 15 19 38 22 60 8z
m941 -12 c0 -6 -4 -7 -10 -4 -5 3 -10 11 -10 16 0 6 5 7 10 4 6 -3 10 -11 10
-16z m3594 -3 c-3 -9 -10 -16 -15 -16 -6 0 -5 9 1 21 13 24 24 20 14 -5z
m1003 -38 c60 -59 229 -187 246 -188 14 0 7 -28 -9 -34 -10 -4 -36 11 -72 43
-70 60 -214 163 -220 157 -20 -21 138 -192 198 -215 78 -29 80 -30 80 -55 0
-23 -2 -24 -27 -15 -72 26 -191 143 -284 281 -48 70 -50 88 -8 88 25 0 45 -13
96 -62z m-4889 -28 c4 -12 2 -13 -9 -4 -8 6 -22 10 -31 9 -10 -2 -18 1 -18 7
0 15 53 5 58 -12z m-54 -26 c3 -8 2 -12 -4 -9 -6 3 -10 10 -10 16 0 14 7 11
14 -7z m36 1 c0 -12 -19 -12 -23 0 -4 9 -1 12 9 8 7 -3 14 -7 14 -8z m-220
-81 c12 -31 12 -37 1 -30 -5 3 -11 0 -14 -8 -6 -16 -67 -39 -67 -26 0 5 5 12
10 15 17 10 1 25 -26 25 -21 0 -25 4 -22 23 2 15 14 25 38 33 42 14 67 4 80
-32z m5420 31 c7 -9 16 -33 20 -55 7 -37 6 -40 -15 -40 -30 0 -46 21 -52 70
-5 35 -3 40 14 40 12 0 26 -7 33 -15z m-840 1 c0 -3 -4 -8 -10 -11 -5 -3 -10
-1 -10 4 0 6 5 11 10 11 6 0 10 -2 10 -4z m-4731 -20 c7 -8 14 -24 16 -36 2
-12 7 -30 10 -40 5 -17 -16 -32 -47 -35 -3 0 -48 -27 -99 -60 -150 -96 -272
-199 -364 -308 l-20 -24 -52 50 c-29 28 -53 56 -53 62 0 8 18 12 53 12 66 -1
101 17 258 134 178 132 223 172 244 218 19 43 35 51 54 27z m4832 4 c24 -13
24 -33 2 -51 -11 -10 -14 -10 -9 -1 11 19 1 14 -20 -10 -12 -14 -14 -19 -4
-13 12 6 12 5 4 -4 -17 -18 -56 3 -47 26 4 11 3 14 -5 9 -8 -5 -12 1 -12 18 0
34 48 48 91 26z m116 -84 c56 -63 321 -272 373 -294 19 -8 63 -15 96 -16 45
-1 60 -4 57 -13 -3 -7 -9 -11 -14 -8 -4 3 -16 -6 -25 -20 -9 -13 -21 -22 -27
-18 -5 3 -8 2 -4 -3 3 -5 -6 -23 -20 -39 l-24 -30 -27 35 c-70 91 -154 166
-281 251 -75 51 -146 91 -159 91 -13 0 -31 12 -43 29 l-20 29 21 30 c12 17 27
30 35 30 7 0 35 -24 62 -54z m646 -40 c-10 -51 -64 -71 -80 -30 -7 20 32 53
63 54 17 0 20 -5 17 -24z m-6540 -56 c5 -4 5 -10 -1 -14 -12 -7 -97 47 -105
67 -4 11 10 6 46 -15 29 -16 56 -33 60 -38z m6893 42 c-11 -17 -117 -84 -124
-78 -9 10 21 36 75 66 48 27 60 29 49 12z m-6741 -144 c55 -43 119 -93 142
-111 42 -31 55 -57 30 -57 -14 0 -290 235 -296 252 -5 15 9 6 124 -84z m-180
62 c3 -5 -1 -10 -10 -10 -9 0 -13 5 -10 10 3 6 8 10 10 10 2 0 7 -4 10 -10z
m6777 -3 c-7 -8 -7 -18 -2 -27 5 -8 7 -17 5 -21 -5 -7 24 -98 35 -114 15 -19
22 -103 11 -122 -9 -16 -11 -16 -12 7 -3 51 -8 77 -31 166 l-23 91 -60 -48
c-33 -27 -97 -74 -143 -106 -68 -47 -85 -55 -92 -43 -15 23 -12 27 20 39 33
11 184 112 240 160 36 31 73 44 52 18z m-6656 -69 c33 -35 92 -88 132 -118 41
-31 72 -62 72 -72 0 -10 -4 -18 -8 -18 -21 0 -237 209 -266 258 -19 31 17 6
70 -50z m6729 52 c-27 -12 -43 -12 -25 0 8 5 22 9 30 9 10 0 8 -3 -5 -9z m-43
-45 c3 -13 1 -22 -3 -19 -9 5 -13 44 -5 44 2 0 6 -11 8 -25z m-6822 -25 c0
-16 -4 -30 -8 -30 -5 0 -9 14 -9 30 0 17 4 30 9 30 4 0 8 -13 8 -30z m100 -18
c0 -23 -17 -4 -23 25 -5 26 -4 26 9 8 8 -10 14 -25 14 -33z m6670 40 c0 -15
-104 -115 -156 -151 -27 -19 -61 -43 -77 -54 -20 -16 -30 -18 -39 -9 -17 17 1
34 109 98 52 31 109 72 126 90 32 36 37 39 37 26z m-6710 -26 c0 -35 11 -61
20 -46 4 7 13 -18 20 -55 8 -44 16 -62 21 -53 14 22 10 3 -7 -30 -15 -31 -34
-43 -34 -21 0 5 5 7 10 4 6 -3 10 1 10 9 0 10 -6 13 -15 10 -10 -4 -21 8 -35
41 -23 55 -26 78 -5 51 8 -11 15 -30 15 -43 0 -13 2 -23 4 -23 2 0 11 -3 20
-6 12 -4 8 13 -15 78 -31 89 -35 108 -19 108 6 0 10 -11 10 -24z m6784 -21
c-4 -8 -8 -15 -10 -15 -2 0 -4 7 -4 15 0 8 4 15 10 15 5 0 7 -7 4 -15z m-6705
-75 l-1 -45 -9 35 c-23 99 -23 97 -5 75 9 -12 15 -38 15 -65z m6641 18 c6 -29
18 -67 26 -85 20 -43 18 -53 -10 -53 -20 0 -28 9 -44 53 -22 60 -34 107 -28
107 2 0 10 -17 17 -37 19 -61 43 -113 51 -113 10 0 11 -2 -11 60 -11 30 -23
73 -27 94 -11 59 12 36 26 -26z m144 46 c3 -8 2 -12 -4 -9 -6 3 -10 10 -10 16
0 14 7 11 14 -7z m-6917 -18 c-12 -32 27 -136 51 -136 11 0 13 -8 9 -30 -5
-22 -3 -30 8 -30 16 0 21 -16 7 -22 -5 -1 -26 -37 -48 -78 -22 -41 -61 -109
-86 -150 -25 -41 -56 -96 -69 -122 -24 -50 -49 -70 -49 -40 0 10 42 102 94
204 52 102 92 188 90 191 -3 3 7 14 22 26 l27 21 -26 28 c-32 34 -63 152 -40
152 9 0 13 -6 10 -14z m6894 -53 c-11 -21 -20 -35 -21 -32 0 14 31 81 36 76 3
-3 -4 -22 -15 -44z m-33 12 c-3 -3 -9 2 -12 12 -6 14 -5 15 5 6 7 -7 10 -15 7
-18z m-7375 -51 c62 -31 108 -93 89 -117 -11 -13 0 -51 17 -62 6 -3 11 -16 11
-28 -1 -18 -4 -15 -20 14 -24 46 -45 54 -70 29 -22 -22 -27 -75 -8 -86 11 -7
41 22 51 49 7 19 21 -1 22 -31 0 -15 6 -26 13 -25 7 2 12 -9 12 -27 0 -23 -5
-30 -19 -30 -11 0 -23 5 -27 11 -3 6 -15 9 -25 6 -12 -3 -23 2 -29 14 -6 10
-29 28 -51 39 -22 12 -44 31 -49 43 -5 13 -9 16 -9 7 -1 -12 -11 -14 -47 -11
-33 2 -44 0 -40 -8 4 -6 12 -8 18 -5 7 4 8 2 4 -4 -10 -17 -26 -15 -48 5 -18
16 -18 16 -12 -1 4 -9 21 -23 38 -31 26 -11 27 -14 9 -14 -26 -1 -81 51 -89
85 -18 71 22 148 91 179 42 19 130 18 168 -1z m2591 0 c24 -23 19 -49 -10 -62
-14 -7 -23 -8 -19 -3 3 5 -8 11 -25 13 l-30 3 26 33 c29 36 36 38 58 16z
m2734 -17 c7 -15 10 -32 7 -37 -11 -18 -44 -10 -61 15 -13 21 -14 28 -4 40 18
22 43 15 58 -18z m2679 22 c40 -15 91 -67 104 -107 13 -39 -3 -113 -29 -134
-13 -11 -14 -11 -7 1 6 11 4 13 -8 8 -10 -4 -25 -10 -34 -14 -12 -5 -15 -2
-11 8 7 18 -19 23 -111 20 -35 -1 -42 -4 -33 -13 20 -20 14 -28 -21 -28 -37 0
-57 -15 -57 -42 0 -11 -7 -18 -20 -18 -11 0 -20 5 -20 11 0 8 -4 8 -15 -1 -8
-6 -19 -9 -25 -5 -13 8 -5 114 9 128 7 7 8 -2 4 -27 -5 -31 -3 -35 11 -30 9 3
16 18 17 33 l1 26 7 -25 c8 -28 43 -39 66 -20 13 10 12 16 0 40 -19 37 -52 48
-71 23 -14 -17 -15 -16 -10 15 3 18 1 32 -5 32 -13 0 14 50 43 77 51 48 149
67 215 42z m-7059 -43 c4 -19 -15 -46 -32 -46 -6 0 -19 13 -28 28 -16 27 -16
30 -1 45 15 14 20 15 38 3 11 -7 21 -21 23 -30z m6042 5 c0 -3 -11 -19 -24
-34 l-25 -28 -21 21 -22 22 28 29 c26 27 29 28 46 12 10 -9 18 -19 18 -22z
m-4345 -42 c4 -13 0 -27 -11 -40 -21 -24 -40 -24 -53 -1 -7 13 -4 23 11 40 27
28 45 28 53 1z m2638 6 c13 -9 17 -20 13 -33 -10 -32 -35 -34 -62 -6 -21 20
-23 28 -14 39 15 19 39 19 63 0z m-2750 -31 l29 -34 -29 -11 c-15 -7 -38 -11
-51 -10 -15 0 -21 -3 -16 -11 4 -7 3 -8 -4 -4 -15 9 -175 -71 -278 -140 -94
-62 -112 -82 -31 -34 93 55 207 111 291 141 44 17 91 37 103 45 31 19 49 19
32 -2 -18 -22 -70 -47 -202 -98 -109 -42 -180 -78 -276 -138 -24 -15 -48 -25
-52 -22 -5 3 -9 -3 -9 -13 -1 -14 -4 -13 -15 7 -17 29 -20 84 -5 75 13 -8 96
39 253 144 121 81 216 139 227 139 3 1 18 -15 33 -34z m2889 19 c24 -9 95 -51
158 -93 95 -64 230 -145 299 -179 29 -15 34 -36 15 -65 -13 -20 -20 -24 -23
-15 -3 8 -11 15 -17 16 -7 1 -34 15 -60 31 -77 45 -191 98 -294 137 -129 48
-161 63 -190 85 -20 15 -23 21 -12 32 10 10 15 8 27 -8 8 -12 53 -36 102 -54
121 -46 282 -122 337 -159 25 -18 46 -28 46 -23 0 13 -118 90 -220 145 -47 25
-124 57 -172 72 -49 14 -88 32 -88 38 0 17 29 57 40 57 5 0 29 -8 52 -17z
m-4882 4 c0 -2 -44 -62 -97 -134 -123 -165 -168 -242 -148 -249 19 -8 31 -72
16 -87 -6 -6 -23 -11 -38 -12 -39 -2 -108 -23 -146 -44 -72 -41 -112 -65 -117
-71 -3 -3 -27 -19 -54 -34 l-49 -29 -19 23 c-27 33 -23 50 12 50 40 0 109 29
215 90 100 57 156 105 148 126 -3 8 7 34 23 57 55 85 235 317 244 317 6 0 10
-1 10 -3z m6882 -105 c32 -53 81 -134 109 -180 29 -45 50 -85 47 -87 -11 -12
-37 8 -49 38 -7 18 -37 72 -66 120 -29 48 -65 111 -80 140 -14 29 -28 47 -30
41 -5 -14 102 -319 123 -351 17 -28 19 -76 2 -71 -13 5 -188 402 -188 426 0 7
3 11 8 9 4 -3 16 -1 27 4 11 4 25 8 30 8 6 0 36 -43 67 -97z m-7502 -56 c0 -9
-39 -13 -51 -5 -10 6 -4 9 19 9 17 0 32 -2 32 -4z m8090 -11 c0 -7 -12 -10
-30 -7 -16 2 -27 8 -24 13 7 12 54 7 54 -6z m-8040 -57 c0 -22 26 -58 43 -58
5 0 6 11 3 25 -5 18 -2 25 9 25 8 0 15 -5 15 -10 0 -7 13 -9 33 -5 29 6 35 3
45 -20 19 -41 7 -62 -38 -70 -31 -5 -51 -2 -85 15 -47 23 -59 45 -51 90 2 14
5 29 5 33 2 18 21 -6 21 -25z m7964 8 c-3 -9 -12 -12 -22 -9 -15 6 -9 11 25
22 1 1 0 -5 -3 -13z m-50 -22 c9 -24 -20 -70 -52 -83 -39 -16 -112 -10 -125
10 -5 9 -7 27 -4 41 6 22 12 25 51 25 28 0 47 -5 50 -14 3 -7 13 -13 22 -13
10 0 14 5 10 16 -3 8 -2 12 4 9 6 -3 10 1 10 9 0 21 26 21 34 0z m-5864 -5 c0
-6 -6 -9 -14 -6 -18 7 -38 -13 -27 -27 4 -6 11 -23 15 -38 8 -37 -12 -37 -48
-2 -30 30 -31 36 -14 64 9 14 24 20 50 20 21 0 38 -5 38 -11z m3958 -30 c4
-47 -23 -73 -45 -44 -7 11 -11 30 -8 43 4 18 1 22 -20 22 -14 0 -25 5 -25 11
0 6 19 9 48 7 46 -3 47 -4 50 -39z m1973 14 c-12 -20 -14 -14 -5 12 4 9 9 14
11 11 3 -2 0 -13 -6 -23z m-34 -5 c-3 -8 -6 -5 -6 6 -1 11 2 17 5 13 3 -3 4
-12 1 -19z m-8014 -24 c-7 -19 -10 -18 -16 5 -3 13 -1 18 9 14 7 -2 10 -11 7
-19z m8055 -10 c-7 -15 -14 -21 -16 -15 -2 7 2 18 8 26 18 22 21 18 8 -11z
m-8085 -5 c4 -16 3 -18 -9 -8 -16 13 -19 29 -5 29 5 0 11 -9 14 -21z m-283 -8
c0 -5 -6 -11 -12 -14 -7 -2 -10 -7 -6 -11 3 -4 18 0 32 10 36 23 44 11 9 -13
-44 -31 -51 -34 -49 -20 0 6 -3 13 -8 14 -6 2 -9 -37 -8 -95 2 -82 0 -94 -10
-77 -8 12 -12 50 -12 97 1 44 -2 75 -7 72 -5 -3 -10 -29 -10 -57 l-1 -52 -12
50 c-7 27 -15 45 -18 40 -7 -12 4 -69 26 -137 8 -26 11 -50 6 -53 -10 -6 -50
108 -50 142 0 13 -4 23 -10 23 -16 0 -12 -42 11 -115 11 -37 18 -69 16 -71 -8
-8 -45 90 -52 136 -6 44 12 120 22 92 4 -10 8 -9 17 4 7 9 27 17 43 18 17 0
29 4 27 8 -4 6 6 9 49 17 4 0 7 -3 7 -8z m110 2 c0 -3 -8 -15 -17 -26 -17 -19
-17 -19 2 -14 73 22 91 14 120 -57 18 -41 14 -61 -5 -26 -16 30 -69 60 -105
59 -28 -1 -27 -2 13 -16 54 -19 108 -72 121 -119 17 -63 -10 -87 -63 -55 -58
35 -101 44 -138 28 -33 -15 -302 -277 -283 -277 6 0 18 7 28 14 11 9 34 12 60
10 23 -2 85 -6 137 -8 52 -3 95 -5 95 -6 8 -10 0 -40 -11 -40 -8 0 -14 5 -14
10 0 18 -18 10 -23 -10 -5 -18 -14 -20 -104 -20 -54 0 -126 -6 -160 -14 -44
-9 -63 -9 -63 -2 1 30 20 35 168 42 84 4 151 8 149 11 -10 10 -229 24 -240 15
-19 -15 -67 -24 -67 -12 0 5 -4 10 -10 10 -5 0 -10 -11 -10 -24 0 -28 -24 -51
-45 -42 -9 3 -15 18 -15 41 0 33 2 36 47 48 41 10 68 31 186 146 90 88 136
139 133 150 -2 9 -7 37 -11 62 -5 42 -3 48 19 62 13 9 30 18 38 19 7 2 21 13
31 26 18 21 37 29 37 15z m106 -5 c5 -7 2 -9 -7 -4 -8 4 -4 -1 9 -10 22 -16
29 -34 14 -34 -5 0 -19 10 -31 21 -18 17 -20 23 -9 30 17 11 16 11 24 -3z m39
1 c11 -17 -1 -21 -15 -4 -8 9 -8 15 -2 15 6 0 14 -5 17 -11z m8190 -13 c20 8
19 3 -10 -36 l-25 -34 0 37 c0 31 -3 37 -22 38 -22 0 -22 1 -3 8 12 5 24 3 33
-5 7 -7 19 -11 27 -8z m145 7 c14 -9 28 -21 32 -27 4 -6 10 -7 14 -3 4 3 1 13
-6 22 -18 22 -4 31 18 12 24 -22 33 -22 25 1 -6 14 -4 15 9 4 27 -22 87 -196
73 -211 -5 -4 -7 1 -26 71 -12 44 -65 116 -76 104 -3 -3 11 -39 31 -80 45 -92
47 -112 3 -32 -32 60 -60 87 -74 73 -4 -4 -1 -18 7 -30 8 -12 28 -48 45 -80
17 -31 57 -83 88 -115 31 -31 62 -63 69 -70 48 -51 86 -80 136 -107 44 -23 58
-36 60 -56 2 -17 -3 -29 -13 -33 -22 -8 -35 1 -35 23 0 20 -39 65 -48 56 -4
-3 -2 -9 3 -13 10 -7 37 -73 32 -78 -1 -2 -20 1 -42 7 -22 5 -98 12 -170 16
-104 5 -133 10 -148 24 -11 10 -16 22 -12 28 10 17 26 13 23 -6 -3 -16 10 -18
112 -20 63 -2 136 -4 163 -6 38 -3 45 -2 36 9 -6 8 -15 11 -20 8 -5 -3 -9 2
-9 11 0 9 -4 13 -10 10 -5 -3 -7 0 -5 7 3 8 -44 62 -113 131 -135 133 -138
134 -258 95 -56 -18 -67 -19 -75 -7 -13 20 -3 54 36 115 29 45 42 55 82 68 39
12 43 15 20 15 -37 1 -80 -22 -106 -56 -11 -15 -21 -22 -21 -15 0 22 29 70 52
86 21 15 21 16 2 38 l-19 23 26 -22 c17 -16 38 -23 65 -23 l39 0 -30 25 c-34
28 -22 34 15 8z m158 -25 c26 -44 52 -137 51 -185 l-1 -38 -15 50 c-8 28 -20
68 -26 90 -6 22 -19 57 -29 78 -23 45 -7 49 20 5z m-208 12 c0 -5 -2 -10 -4
-10 -3 0 -8 5 -11 10 -3 6 -1 10 4 10 6 0 11 -4 11 -10z m255 -20 c20 -21 29
-42 33 -78 6 -65 -13 -77 -22 -13 -3 27 -17 65 -31 85 -30 44 -19 47 20 6z
m-311 11 c3 -4 -6 -19 -20 -32 -18 -17 -23 -19 -18 -6 3 9 10 17 15 17 5 0 9
7 9 15 0 17 6 19 14 6z m-6104 -11 c16 -8 17 -15 8 -50 -12 -46 -27 -46 -20 1
3 22 1 30 -7 25 -6 -4 -9 -11 -6 -16 3 -5 1 -17 -4 -27 -5 -10 -12 -26 -15
-35 -3 -10 -10 -18 -16 -18 -16 0 -12 40 5 46 9 4 15 11 14 18 -4 32 2 66 12
66 6 0 19 -4 29 -10z m4014 -3 c-2 -7 14 -41 36 -76 21 -36 37 -67 33 -70 -3
-4 -8 -1 -10 4 -2 6 -19 35 -37 65 -35 59 -59 69 -83 34 -12 -19 -11 -24 8
-45 19 -22 20 -18 5 21 -3 8 -2 22 4 30 8 13 11 12 24 -5 30 -40 102 -212 93
-221 -1 -1 -15 12 -32 29 -16 17 -22 25 -12 18 22 -17 22 -3 0 28 -9 14 -11
21 -5 17 19 -12 14 8 -12 47 -13 19 -27 44 -31 56 -3 12 -11 21 -16 21 -13 0
-11 -12 6 -34 11 -15 12 -22 3 -27 -8 -5 -4 -19 15 -48 15 -23 23 -41 18 -41
-12 0 -80 107 -87 137 -8 30 23 68 57 70 18 1 26 -2 23 -10z m2467 -36 c7 -18
13 -21 21 -13 8 8 19 0 43 -31 49 -64 54 -79 60 -159 l5 -73 -14 70 c-8 39
-20 84 -27 100 l-13 30 -6 -55 c-6 -47 -7 -50 -10 -20 -5 41 -8 79 -9 101 -2
30 -31 17 -31 -13 0 -16 -4 -27 -9 -24 -5 3 -12 -18 -16 -46 -4 -29 -11 -62
-15 -73 -7 -18 -9 -18 -15 -3 -3 9 3 46 14 83 25 79 25 89 8 107 -8 7 -17 26
-21 42 -7 27 -6 28 9 16 10 -8 21 -25 26 -39z m-9036 8 c-14 -44 -6 -109 21
-169 15 -33 24 -63 21 -66 -10 -10 -56 80 -68 134 -7 29 -17 52 -22 52 -18 0
2 -118 28 -170 14 -28 22 -50 17 -50 -5 0 -23 28 -40 61 -23 45 -32 75 -32
111 0 52 27 109 40 87 5 -8 10 -5 15 10 3 11 11 21 16 21 6 0 7 -9 4 -21z
m2600 1 c8 -13 -24 -100 -36 -100 -5 0 -9 5 -9 10 0 6 4 10 8 10 9 0 11 8 14
60 1 30 11 39 23 20z m5598 -37 c65 -57 244 -151 306 -161 53 -9 59 -20 30
-57 -20 -25 -24 -26 -34 -11 -12 15 -81 66 -91 66 -2 0 -39 20 -82 44 -87 49
-166 78 -203 74 -21 -3 -24 1 -22 30 2 33 18 62 34 62 4 0 32 -21 62 -47z
m-8296 -65 c-1 -29 1 -80 5 -113 l7 -60 -20 60 c-14 41 -19 74 -15 103 10 79
26 85 23 10z m2645 14 c12 -24 12 -31 -2 -55 -9 -15 -19 -24 -23 -21 -3 4 2
18 11 32 12 19 13 27 4 30 -6 2 -12 12 -12 23 0 26 6 24 22 -9z m6533 18 c3
-5 1 -10 -4 -10 -6 0 -11 5 -11 10 0 6 2 10 4 10 3 0 8 -4 11 -10z m-6587 -39
c3 -8 -1 -12 -9 -9 -7 2 -15 10 -17 17 -3 8 1 12 9 9 7 -2 15 -10 17 -17z
m-2881 -11 c16 -6 43 -29 59 -50 16 -22 37 -40 47 -40 9 0 17 -1 18 -2 0 -2 3
-24 5 -49 8 -70 -12 -128 -59 -171 -46 -43 -86 -49 -116 -19 -27 27 -30 42
-14 81 39 95 36 170 -9 232 l-19 28 29 0 c16 0 42 -5 59 -10z m2908 -17 c-5
-10 -7 -24 -6 -30 1 -7 -3 -13 -8 -13 -15 0 -25 21 -14 29 5 3 13 15 16 25 4
10 10 16 13 13 4 -3 3 -14 -1 -24z m6965 22 c0 -3 -10 -19 -21 -35 -29 -39
-36 -116 -15 -176 18 -54 21 -100 6 -109 -5 -3 -10 1 -10 9 0 9 -4 16 -10 16
-19 0 -25 3 -35 16 -7 9 -15 10 -24 5 -12 -8 -7 -17 22 -45 35 -33 36 -36 15
-36 -13 0 -42 10 -65 22 -47 25 -69 65 -80 144 -3 24 -9 44 -13 44 -4 0 -11 7
-14 16 -6 15 -4 15 11 3 15 -13 16 -12 10 11 -6 24 -5 24 8 6 15 -19 15 -19
15 2 0 12 4 21 9 20 5 -2 25 14 45 34 35 36 76 55 124 57 12 1 22 -1 22 -4z
m-9631 -72 c-1 -40 -4 -58 -8 -45 -6 23 -2 112 5 112 2 0 4 -30 3 -67z m2621
52 c0 -13 -33 -54 -48 -60 -12 -4 -10 0 6 18 12 13 22 29 22 35 0 7 5 12 10
12 6 0 10 -2 10 -5z m4181 -12 c13 -16 12 -17 -3 -4 -10 7 -18 15 -18 17 0 8
8 3 21 -13z m2409 -57 c-17 -45 -22 -24 -8 30 10 38 14 43 16 23 2 -14 -2 -38
-8 -53z m-152 39 c-3 -3 -9 2 -12 12 -6 14 -5 15 5 6 7 -7 10 -15 7 -18z m43
-35 c5 0 9 -8 9 -17 0 -15 -4 -13 -20 7 -11 14 -19 34 -19 45 0 16 3 14 11 -7
5 -16 14 -28 19 -28z m-8701 24 c-12 -4 -15 -14 -12 -39 3 -21 0 -35 -7 -35
-12 0 -16 62 -4 73 3 4 13 6 22 6 14 -1 14 -2 1 -5z m37 -16 c-3 -8 -6 -5 -6
6 -1 11 2 17 5 13 3 -3 4 -12 1 -19z m2209 0 c4 -7 3 -8 -4 -4 -7 4 -12 1 -12
-6 0 -7 -9 -24 -19 -38 l-19 -24 11 42 c11 41 29 54 43 30z m6395 -91 c5 2 13
-6 19 -17 24 -45 -34 -6 -106 70 -44 46 -24 42 27 -7 28 -26 55 -47 60 -46z
m-8699 43 c-5 -46 -12 -50 -28 -15 -10 21 -9 26 10 39 11 8 21 15 21 15 0 1
-1 -17 -3 -39z m78 26 c0 -8 -4 -18 -10 -21 -5 -3 -10 3 -10 14 0 12 5 21 10
21 6 0 10 -6 10 -14z m8481 7 c0 -5 2 -16 4 -26 3 -15 1 -16 -11 -6 -16 13
-19 39 -4 39 6 0 10 -3 11 -7z m436 -15 c-3 -8 -6 -5 -6 6 -1 11 2 17 5 13 3
-3 4 -12 1 -19z m-9389 -23 c-3 -3 -9 2 -12 12 -6 14 -5 15 5 6 7 -7 10 -15 7
-18z m8778 -12 c-6 -26 -5 -27 8 -9 8 10 20 16 26 14 7 -2 1 -15 -14 -31 -21
-23 -28 -26 -40 -15 -12 11 -12 17 0 41 8 15 17 27 20 27 4 0 3 -12 0 -27z
m-8141 -3 c18 -20 15 -38 -4 -25 -15 9 -33 45 -23 45 5 0 17 -9 27 -20z m-292
-3 c6 -16 -39 -62 -47 -48 -5 7 29 61 39 61 1 0 5 -6 8 -13z m8877 -7 c0 -5
-5 -10 -11 -10 -5 0 -7 5 -4 10 3 6 8 10 11 10 2 0 4 -4 4 -10z m-563 -106
c-3 -3 -12 -4 -19 -1 -8 3 -5 6 6 6 11 1 17 -2 13 -5z m117 -10 c3 -9 2 -12
-4 -9 -6 4 -23 9 -37 11 -41 8 -41 14 -1 14 23 0 38 -6 42 -16z m-8214 -10
c-25 -9 -53 -25 -63 -36 -20 -24 -34 -18 -19 8 6 10 27 23 49 30 56 18 86 16
33 -2z m90 6 c0 -5 -2 -10 -4 -10 -3 0 -8 5 -11 10 -3 6 -1 10 4 10 6 0 11 -4
11 -10z m8176 -15 c-1 -21 -6 -25 -31 -25 l-30 1 28 15 c15 8 27 19 27 24 0 6
2 10 4 10 2 0 3 -11 2 -25z m54 5 c11 -6 26 -23 34 -38 14 -26 15 -26 16 -4 0
12 4 22 9 22 5 0 5 -17 -1 -39 -9 -37 -13 -39 -84 -63 -41 -14 -74 -22 -74
-18 0 4 15 13 33 20 17 6 43 17 57 23 14 6 28 10 33 9 4 -1 7 2 7 7 0 5 -11 9
-25 9 -13 0 -22 -4 -19 -9 8 -13 -10 -11 -23 2 -8 8 -17 8 -32 -1 -12 -6 -25
-8 -30 -5 -5 3 -11 1 -13 -5 -2 -5 -9 -6 -16 -1 -9 5 5 14 42 25 30 10 60 15
66 11 5 -3 10 -1 10 4 0 6 -8 11 -17 11 -15 0 -15 2 -4 9 16 10 43 3 36 -9 -6
-10 14 -25 22 -16 3 3 -9 19 -27 36 -33 31 -33 38 0 20z m350 -18 c0 -5 -15
-8 -32 -8 -18 0 -72 -3 -120 -6 -49 -4 -88 -3 -88 2 0 11 47 16 158 18 45 1
82 -2 82 -6z m-8581 -11 c9 -6 -14 -9 -62 -10 -45 0 -77 3 -77 9 0 12 120 13
139 1z m5609 -83 c13 -18 25 -58 17 -58 -3 0 -11 12 -19 28 -8 15 -34 50 -57
77 l-44 50 45 -39 c25 -22 51 -48 58 -58z m2482 82 c0 -5 -12 -10 -27 -9 l-28
1 25 8 c14 4 26 8 28 9 1 1 2 -3 2 -9z m-8200 -30 c0 -5 -6 -10 -14 -10 -8 0
-18 5 -21 10 -3 6 3 10 14 10 12 0 21 -4 21 -10z m56 -9 c21 -11 41 -18 44
-16 3 2 11 -4 18 -11 12 -13 9 -14 -15 -8 -15 4 -31 11 -34 16 -3 6 -10 9 -15
9 -17 -1 -44 10 -44 20 0 12 0 12 46 -10z m-95 -5 c19 -7 43 -17 54 -21 11 -4
26 -9 32 -11 19 -3 85 -46 80 -50 -2 -3 -26 6 -53 20 -27 13 -65 27 -84 31
-37 8 -70 25 -70 37 0 11 2 10 41 -6z m2794 -13 c-40 -42 -64 -95 -58 -126 l6
-28 24 23 c22 20 21 17 -6 -24 -18 -26 -35 -64 -38 -84 -3 -20 -12 -38 -19
-41 -8 -3 -11 -9 -8 -14 3 -5 -2 -6 -11 -2 -11 4 -15 14 -12 30 2 13 0 26 -4
29 -12 7 -11 71 1 79 6 4 10 -8 11 -27 1 -18 4 -44 8 -58 7 -23 9 -22 20 19 7
24 10 52 8 62 -3 11 -1 22 5 25 5 3 7 12 4 19 -13 36 49 145 83 145 7 0 0 -12
-14 -27z m5420 -13 c-3 -5 -14 -10 -23 -9 -14 0 -13 2 3 9 27 11 27 11 20 0z
m-5387 -34 c-31 -28 -35 -36 -24 -45 10 -8 16 -9 21 -1 3 5 11 10 18 10 6 0 2
-6 -9 -14 -12 -9 -23 -11 -28 -5 -14 13 -22 11 -40 -7 -19 -18 -21 -5 -3 19
12 17 88 76 97 76 3 1 -12 -15 -32 -33z m-2621 18 c-3 -3 -12 -4 -19 -1 -8 3
-5 6 6 6 11 1 17 -2 13 -5z m-172 -31 l18 -28 -21 19 c-12 11 -22 23 -22 28 0
14 7 9 25 -19z m8360 -10 c-13 -21 -31 -47 -40 -58 -15 -19 -15 -19 -4 5 13
27 57 90 64 90 3 0 -7 -17 -20 -37z m-147 3 c-2 -1 -12 -8 -22 -16 -18 -14
-18 -14 -6 7 8 12 18 19 23 16 4 -3 7 -6 5 -7z m-5563 -30 c0 -12 -6 -29 -14
-36 -12 -12 -13 -10 -8 11 4 13 7 33 7 43 0 27 13 11 15 -18z m3109 -97 c12
-39 26 -70 32 -70 15 1 10 -22 -6 -25 -8 -2 -24 -6 -36 -9 -18 -6 -24 1 -42
42 -11 26 -30 58 -42 71 -12 13 -19 26 -16 29 10 10 37 -20 68 -74 16 -29 34
-53 39 -53 11 0 12 -3 -7 61 -9 30 -29 79 -46 109 l-30 55 32 -33 c20 -21 40
-59 54 -103z m40 89 c4 -22 3 -38 -2 -38 -11 0 -20 50 -14 69 6 17 8 12 16
-31z m-140 -7 c-2 -3 -12 3 -22 13 -16 17 -16 18 5 5 12 -7 20 -15 17 -18z
m-5623 2 c13 -16 12 -17 -3 -4 -10 7 -18 15 -18 17 0 8 8 3 21 -13z m30 -40
c13 -16 12 -17 -3 -4 -10 7 -18 15 -18 17 0 8 8 3 21 -13z m2739 -12 c0 -12
-28 -22 -34 -12 -3 5 -3 11 1 15 9 9 33 7 33 -3z m2993 -72 c-5 -5 -8 9 -7 33
3 57 6 62 11 14 3 -21 0 -43 -4 -47z m2487 78 c0 -2 -10 -12 -22 -23 l-23 -19
19 23 c18 21 26 27 26 19z m-5544 -81 c-27 -46 -55 -74 -43 -43 11 30 58 99
64 93 3 -3 -6 -25 -21 -50z m-46 -81 c0 -8 -2 -15 -4 -15 -2 0 -6 7 -10 15 -3
8 -1 15 4 15 6 0 10 -7 10 -15z m-32 -11 c9 -16 -2 -112 -36 -304 -18 -103
-19 -105 -45 -102 -27 3 -48 -21 -40 -45 3 -7 0 -13 -6 -13 -20 0 -20 17 0 57
11 23 29 89 39 147 11 58 26 132 35 165 8 32 15 71 15 85 0 29 24 36 38 10z
m3150 -146 c13 -84 30 -177 37 -205 7 -29 12 -53 12 -54 -1 0 -15 -2 -30 -4
-37 -5 -42 8 -67 181 -29 203 -27 230 15 233 6 1 21 -68 33 -151z m2945 28
c44 -19 73 -53 87 -105 6 -23 10 -44 8 -46 -2 -1 -16 -7 -33 -12 -16 -6 -37
-14 -47 -18 -10 -4 -18 -1 -21 7 -2 7 -3 5 -2 -4 2 -9 -9 -25 -24 -34 -43 -29
-54 -43 -45 -62 4 -9 9 -28 11 -42 3 -23 2 -24 -11 -7 -12 15 -15 15 -26 2 -7
-9 -10 -25 -6 -41 7 -25 8 -26 21 -8 13 16 16 17 24 4 16 -23 35 3 33 46 -1
22 6 46 17 60 l18 23 6 -56 c6 -53 4 -60 -26 -103 -54 -75 -143 -104 -118 -38
8 23 5 28 -30 54 -28 21 -38 35 -35 48 3 12 -6 32 -24 53 -34 39 -53 98 -44
142 4 17 24 51 45 75 59 67 151 93 222 62z m-9042 -31 c59 -42 83 -78 82 -123
-1 -72 -6 -103 -18 -110 -7 -4 -23 -32 -36 -62 -13 -30 -31 -62 -41 -72 -20
-20 -22 -36 -9 -57 7 -11 15 -11 46 -1 32 10 39 10 53 -4 9 -8 12 -19 8 -23
-4 -4 -11 -2 -15 5 -5 9 -15 10 -32 4 -39 -15 -96 0 -143 38 -65 51 -78 77
-64 126 7 21 13 41 15 44 8 10 23 -27 23 -56 0 -30 20 -51 44 -45 4 1 14 -3
22 -10 28 -23 34 2 9 39 -14 20 -25 46 -25 58 0 23 -79 84 -107 84 -8 0 -11 5
-8 10 3 6 -1 10 -10 10 -23 0 -31 -31 -12 -45 10 -7 17 -16 17 -21 0 -4 -18 9
-39 30 -35 34 -39 43 -36 77 6 53 30 96 68 120 50 31 152 23 208 -16z m995
-116 c25 -7 62 -27 86 -48 39 -35 42 -41 46 -100 4 -55 2 -64 -17 -77 -15 -11
-21 -26 -21 -54 0 -29 -4 -38 -13 -34 -13 5 -18 -7 -45 -106 -12 -41 -43 -36
-97 14 -45 43 -47 47 -42 86 3 23 8 44 10 47 11 10 27 -9 27 -32 0 -16 7 -26
23 -31 12 -4 25 -11 28 -17 4 -5 12 -6 18 -2 9 5 9 12 -2 28 -8 12 -17 34 -20
49 -4 15 -16 30 -27 33 -13 4 -20 15 -20 30 0 19 -4 23 -27 20 -16 -2 -34 2
-41 7 -7 6 -15 8 -19 4 -3 -3 -14 1 -24 10 -16 15 -17 14 -12 -5 3 -11 11 -26
19 -32 8 -6 14 -16 14 -21 0 -5 -9 0 -21 11 -40 37 -34 145 11 186 19 17 84
44 108 45 7 0 33 -5 58 -11z m1089 -41 c31 -16 75 -60 75 -76 0 -8 11 -27 25
-44 28 -33 33 -53 10 -44 -8 3 -15 1 -15 -3 0 -5 -3 -18 -7 -28 -7 -17 -6 -17
11 0 25 24 39 21 34 -8 -3 -14 1 -30 8 -36 8 -6 14 -17 14 -24 0 -7 7 -18 15
-25 25 -21 17 -37 -28 -59 -54 -26 -133 -28 -163 -3 -18 15 -64 85 -64 98 0 2
8 4 19 4 10 0 31 -16 45 -35 30 -39 47 -42 99 -20 43 18 50 28 42 56 -6 16
-10 18 -18 9 -9 -10 -9 -14 1 -17 17 -7 5 -23 -19 -23 -21 0 -24 11 -8 43 9
20 9 20 -4 5 -8 -10 -17 -15 -21 -11 -4 4 -11 1 -15 -6 -7 -11 -15 -7 -37 17
-29 30 -29 30 -77 18 -27 -8 -55 -23 -63 -35 -16 -23 -50 -21 -66 3 -6 8 -10
7 -17 -2 -11 -17 -41 55 -41 99 0 39 34 105 65 125 64 42 143 50 200 22z
m4966 12 c29 0 105 -59 122 -95 23 -47 22 -107 -3 -155 -21 -41 -38 -45 -70
-17 -30 25 -109 59 -123 51 -7 -4 -22 -16 -35 -28 -19 -17 -25 -18 -32 -7 -9
16 -40 8 -40 -10 0 -6 7 -9 15 -5 8 3 15 1 15 -3 0 -5 -16 -15 -35 -23 -26
-10 -32 -17 -25 -28 8 -12 10 -12 10 -1 0 11 4 10 19 -3 25 -23 52 -14 91 30
17 20 37 34 45 32 23 -5 -7 -61 -51 -94 -44 -34 -101 -37 -164 -9 -46 21 -51
41 -16 74 20 19 23 30 19 58 -5 30 -3 35 13 31 10 -2 24 -14 31 -28 7 -14 13
-18 13 -10 0 8 -8 29 -19 46 -18 30 -18 30 6 59 15 16 23 36 20 47 -10 36 106
104 158 93 11 -3 27 -5 36 -5z m1021 -70 c46 -38 63 -85 49 -137 -18 -63 -24
-68 -59 -47 -25 14 -34 15 -46 5 -14 -12 -75 -9 -97 5 -15 9 -10 -13 6 -26 21
-17 19 -27 -12 -57 l-28 -25 38 4 c26 3 37 0 37 -9 0 -7 -3 -12 -7 -12 -24 4
-36 -2 -27 -11 16 -16 38 -3 53 31 17 38 25 31 13 -12 -6 -25 -19 -40 -48 -56
-61 -35 -79 -31 -100 22 -20 53 -13 67 19 37 36 -34 40 -26 5 9 -17 16 -37 28
-45 25 -19 -8 -29 23 -14 46 10 16 9 23 -3 37 -22 24 -20 89 2 126 28 45 95
75 167 75 53 0 65 -4 97 -30z m-8266 -37 c-8 -8 -36 11 -51 34 -17 25 -17 25
18 -3 20 -15 35 -30 33 -31z m9284 47 c0 -5 -2 -10 -4 -10 -3 0 -8 5 -11 10
-3 6 -1 10 4 10 6 0 11 -4 11 -10z m-2930 -92 c0 -13 -5 -18 -13 -15 -7 3 -19
-4 -26 -16 -13 -20 -14 -20 -27 -2 -16 21 -19 59 -5 51 5 -4 20 -2 33 3 29 11
38 6 38 -21z m-3270 3 c0 -22 -25 -45 -40 -36 -5 3 -10 17 -10 31 0 19 5 24
25 24 18 0 25 -5 25 -19z m-2950 -21 c0 -13 -20 -13 -40 0 -12 8 -9 10 13 10
15 0 27 -4 27 -10z m9162 -34 c-2 -5 -9 -1 -14 8 -5 9 -6 21 -2 28 9 14 25
-22 16 -36z m-9348 -17 c-19 -22 -39 -24 -50 -7 -5 8 -2 9 9 5 20 -8 22 3 5
23 -7 8 -2 6 11 -5 l24 -20 -6 23 c-4 19 -3 21 9 11 13 -10 12 -14 -2 -30z
m3094 4 c4 -26 -22 -42 -64 -41 -45 1 -262 -91 -336 -143 -24 -18 -28 -18 -42
-3 -24 23 -20 31 22 45 20 6 75 30 122 52 47 21 119 53 160 69 41 16 79 34 85
39 17 17 50 6 53 -18z m3366 -7 c128 -61 291 -134 314 -141 24 -7 26 -13 13
-34 -8 -12 -31 -4 -128 46 -131 67 -172 83 -247 92 -54 6 -70 27 -46 56 16 19
11 20 94 -19z m2926 -3 c0 -13 -3 -13 -15 -3 -8 7 -12 16 -9 21 8 13 24 1 24
-18z m280 5 c-75 -21 -107 -65 -72 -100 7 -7 12 -17 12 -22 0 -6 -5 -3 -11 7
-14 24 -36 22 -114 -12 -76 -32 -109 -56 -99 -73 4 -6 7 -37 6 -69 -1 -62 2
-65 84 -88 38 -11 103 15 128 50 12 17 16 19 16 7 0 -19 -62 -75 -98 -89 -34
-13 -63 -5 -101 27 -28 23 -31 24 -31 7 0 -35 67 -83 117 -83 32 0 90 32 115
63 24 30 22 9 -2 -30 -10 -18 -37 -41 -58 -52 -49 -25 -95 -15 -148 31 -37 33
-53 33 -35 0 6 -11 9 -27 6 -34 -8 -21 6 -33 72 -67 74 -37 82 -37 117 -10 14
11 23 14 21 7 -3 -7 -17 -21 -31 -32 -23 -16 -31 -17 -63 -7 -50 16 -112 61
-136 99 -11 17 -23 31 -26 32 -4 0 -19 -19 -35 -42 -48 -69 -124 -83 -153 -29
-15 27 -14 38 2 19 23 -31 85 -27 126 8 39 33 41 52 2 24 -37 -25 -70 -21
-114 16 -30 25 -52 62 -43 71 2 3 7 -5 11 -16 8 -26 54 -51 94 -51 83 0 150
61 105 95 -18 13 -18 14 -1 15 12 0 17 8 17 26 0 16 -4 23 -11 18 -21 -13 -73
-14 -107 -3 -46 15 -102 66 -102 93 1 17 4 15 15 -11 19 -45 63 -65 138 -61
45 2 63 7 65 18 2 12 -10 15 -66 15 -65 0 -71 2 -103 33 -38 37 -29 41 21 10
24 -14 54 -22 93 -24 31 -1 57 -1 57 1 0 22 -17 35 -45 35 -55 0 -95 12 -95
27 0 10 6 13 18 8 30 -11 112 -18 112 -9 -1 29 -19 35 -91 31 -51 -4 -82 -1
-100 9 -38 19 -111 44 -132 44 -10 0 -15 5 -12 10 11 17 54 11 107 -16 55 -28
113 -34 191 -20 27 5 47 5 45 0 -1 -5 4 -19 12 -30 l13 -22 70 24 c77 26 99
40 95 60 -4 19 100 73 137 73 l30 -1 -35 -10z m-240 -2 c0 -3 -4 -8 -10 -11
-5 -3 -10 -1 -10 4 0 6 5 11 10 11 6 0 10 -2 10 -4z m-9410 -9 c0 -2 -10 -12
-22 -23 l-23 -19 19 23 c18 21 26 27 26 19z m9716 -22 c13 -20 14 -28 4 -40
-10 -12 -12 -57 -8 -188 5 -139 10 -184 27 -232 l20 -60 -29 -27 c-17 -16 -38
-28 -46 -28 -14 0 -15 6 -8 33 13 46 9 339 -5 423 -15 88 -24 103 -39 69 -8
-18 -9 -24 -1 -20 6 4 4 -6 -4 -21 -8 -16 -17 -36 -21 -44 -3 -8 -3 17 0 55 4
54 10 74 26 88 29 25 65 22 84 -8z m-9781 -3 c-3 -3 -11 0 -18 7 -9 10 -8 11
6 5 10 -3 15 -9 12 -12z m9479 -27 c-10 -26 -34 -26 -34 -1 0 19 4 23 19 19
11 -3 17 -11 15 -18z m-9601 8 c-7 -2 -19 -2 -25 0 -7 3 -2 5 12 5 14 0 19 -2
13 -5z m7474 -15 c-3 -8 -6 -5 -6 6 -1 11 2 17 5 13 3 -3 4 -12 1 -19z m933 2
c0 -5 -9 -6 -20 -3 -11 3 -17 9 -15 14 7 10 35 1 35 -11z m91 5 c11 6 11 5 2
-5 -12 -14 -33 -6 -33 13 0 8 3 7 9 -2 5 -8 14 -10 22 -6z m-8427 -1 c24 -9
20 -33 -4 -27 -27 7 -48 33 -27 33 8 0 22 -3 31 -6z m9141 -31 c19 -9 35 -23
35 -30 0 -8 -4 -11 -10 -8 -5 3 -10 -1 -10 -10 0 -11 -5 -15 -14 -12 -17 7
-22 -31 -31 -234 -5 -111 -3 -144 10 -180 32 -86 34 -80 -26 -74 -44 4 -50 3
-34 -6 29 -17 30 -19 20 -27 -6 -4 -18 -23 -27 -42 -34 -69 -36 -316 -3 -304
10 4 14 22 12 67 -4 123 3 243 13 227 5 -8 10 -49 11 -90 1 -59 3 -68 9 -42 4
18 10 36 14 39 10 10 7 -38 -5 -81 -22 -79 -27 -135 -13 -147 17 -14 18 -33 2
-23 -9 5 -9 3 1 -9 7 -9 18 -14 25 -10 6 3 8 2 3 -2 -4 -5 0 -17 10 -27 15
-17 15 -18 -10 -18 -19 0 -25 4 -21 15 7 17 -7 20 -23 4 -7 -7 -13 -7 -17 -1
-3 6 -2 13 4 17 5 3 10 14 10 23 -1 12 -6 8 -16 -10 -8 -16 -18 -28 -23 -28
-10 0 -21 148 -21 274 0 63 5 100 16 121 8 16 13 38 10 48 -2 11 4 53 15 96
29 107 38 360 16 413 -15 35 -14 39 4 63 24 30 20 29 64 8z m-6845 -3 c0 -5
-7 -7 -15 -4 -8 4 -15 8 -15 10 0 2 7 4 15 4 8 0 15 -4 15 -10z m-1842 -16
c22 -14 31 -54 12 -54 -25 0 1 -335 34 -427 l15 -42 -33 -11 c-34 -11 -66 -5
-66 12 0 5 7 23 16 41 13 25 15 48 10 117 -14 190 -25 283 -35 293 -6 6 -11
19 -11 28 0 10 -4 21 -10 24 -6 4 -7 -1 -4 -12 6 -15 4 -15 -9 2 -10 13 -12
24 -6 31 13 16 60 15 87 -2z m9034 -6 c-7 -7 -12 -8 -12 -2 0 14 12 26 19 19
2 -3 -1 -11 -7 -17z m-9683 -38 l-1 -25 -8 25 c-4 14 -8 32 -9 40 -1 13 0 13
9 0 5 -8 9 -26 9 -40z m1401 36 c0 -3 -4 -8 -10 -11 -5 -3 -10 -1 -10 4 0 6 5
11 10 11 6 0 10 -2 10 -4z m7195 -16 c3 -5 1 -10 -4 -10 -6 0 -11 5 -11 10 0
6 2 10 4 10 3 0 8 -4 11 -10z m1223 -27 c-16 -7 -37 -13 -46 -13 -8 0 -23 -7
-32 -15 -14 -13 -19 -13 -28 -2 -9 10 0 17 43 32 30 10 55 22 55 27 0 4 9 3
20 -4 18 -12 17 -13 -12 -25z m35 -31 c-34 -45 -128 -67 -154 -35 -13 15 -10
16 29 9 59 -9 120 22 130 67 6 28 7 29 10 8 2 -13 -5 -35 -15 -49z m-8473 37
c0 -6 -4 -7 -10 -4 -5 3 -10 11 -10 16 0 6 5 7 10 4 6 -3 10 -11 10 -16z
m1540 -9 c0 -40 -63 -86 -94 -68 -16 9 -17 7 -11 -12 6 -20 4 -21 -17 -14 -12
4 -36 7 -51 6 -43 -2 -28 22 19 30 95 16 109 22 112 51 4 33 42 39 42 7z
m4231 -16 c7 -19 16 -24 43 -24 37 0 92 -17 84 -26 -3 -2 -17 0 -32 6 -21 8
-28 7 -33 -5 -4 -13 -12 -12 -49 9 -24 14 -44 22 -44 18 0 -10 53 -62 64 -62
6 0 24 -7 40 -15 33 -17 45 -13 26 10 -7 9 -10 18 -6 22 3 4 12 -2 20 -12 13
-18 15 -18 30 -2 18 18 56 23 56 8 0 -5 -10 -7 -22 -3 -20 5 -19 2 8 -21 43
-36 91 -36 136 0 49 41 78 76 78 96 0 21 37 23 67 2 19 -14 20 -17 7 -71 -17
-77 -22 -118 -30 -274 l-6 -135 31 -59 c17 -32 30 -60 29 -61 -2 -2 -18 -6
-35 -10 -27 -5 -33 -3 -33 10 0 9 -5 13 -10 10 -6 -4 -7 -11 -4 -17 4 -6 1 -9
-7 -6 -8 3 -13 14 -11 24 24 161 27 439 4 453 -7 4 -14 18 -15 29 -2 28 -4 28
-51 -4 -45 -31 -118 -43 -141 -24 -27 22 -41 -4 -16 -29 27 -27 82 -28 105 -2
24 27 60 16 52 -15 -13 -49 -25 -72 -52 -93 -41 -32 -77 -27 -113 16 -17 20
-29 39 -27 41 3 2 22 -8 43 -22 44 -31 45 -31 88 -10 35 16 48 43 34 65 -8 11
-11 11 -19 -3 -6 -10 -26 -20 -46 -24 -30 -5 -40 -2 -63 20 -15 14 -32 26 -39
26 -19 0 -14 -67 8 -111 31 -61 55 -81 88 -73 37 10 72 34 72 50 0 8 4 14 9
14 6 0 6 -12 -1 -30 -7 -21 -22 -36 -45 -45 -71 -30 -91 -18 -143 84 l-22 45
-15 -28 c-14 -27 -13 -33 8 -78 29 -63 77 -91 133 -78 20 4 43 14 51 20 22 18
18 -4 -3 -23 -10 -9 -40 -20 -66 -23 -46 -7 -48 -6 -86 35 -21 23 -42 50 -45
61 -9 28 -25 25 -25 -5 0 -17 18 -43 55 -82 53 -53 57 -55 96 -50 28 4 39 2
36 -6 -10 -32 -142 -2 -163 36 -5 8 -2 8 7 0 28 -27 31 -12 4 17 -38 39 -55
24 -27 -22 29 -46 51 -65 98 -82 32 -12 35 -15 14 -15 -33 -1 -96 38 -120 75
-11 16 -20 24 -20 18 0 -21 40 -102 53 -107 7 -3 4 -6 -6 -6 -10 -1 -20 6 -23
14 -4 8 -10 12 -15 9 -5 -3 -9 4 -9 16 0 11 -9 39 -20 60 -11 22 -16 40 -10
40 6 0 9 26 8 63 l-1 62 -81 -3 c-82 -3 -144 15 -153 45 -3 7 11 3 34 -8 37
-19 103 -26 103 -11 0 4 -19 8 -41 9 -40 3 -118 48 -105 61 4 3 16 -4 29 -16
26 -25 87 -41 87 -23 0 6 5 11 11 11 5 0 7 -5 3 -12 -5 -8 0 -9 14 -6 12 4 22
3 22 -2 0 -4 20 -10 45 -12 27 -2 44 1 42 7 -2 5 3 16 12 23 9 8 10 11 4 7
-19 -9 -159 13 -193 30 -41 21 -65 59 -51 82 10 17 10 16 11 -4 0 -12 12 -31
26 -42 28 -22 53 -28 157 -34 58 -4 68 -2 65 11 -2 9 -16 19 -33 24 -16 4 -45
16 -63 25 -37 20 -81 81 -65 92 6 3 12 13 15 21 2 8 8 -4 11 -26 8 -48 32 -68
103 -84 37 -9 49 -8 56 2 13 21 9 28 -14 28 -27 0 -84 32 -115 65 -19 20 -20
24 -7 29 10 4 14 13 10 22 -3 9 -4 20 -1 24 9 15 36 -1 46 -26z m1462 11 c-3
-9 -8 -14 -10 -11 -3 3 -2 9 2 15 9 16 15 13 8 -4z m-6150 -35 c24 -40 158
-105 187 -90 12 7 27 7 45 0 37 -14 40 -13 20 10 -10 11 -24 20 -31 20 -8 0
-11 6 -8 15 7 17 34 21 34 5 0 -31 98 -56 123 -31 14 14 30 14 22 1 -12 -20 5
-9 40 24 19 19 35 28 35 21 0 -23 -69 -75 -100 -75 -35 0 -44 -11 -27 -34 11
-15 17 -15 60 -2 90 27 113 55 86 109 -9 19 -7 18 10 -3 11 -14 21 -33 21 -43
0 -29 -43 -64 -104 -83 -72 -23 -78 -48 -8 -39 101 13 143 28 165 59 14 20 17
31 9 34 -7 2 -12 9 -12 15 0 6 -10 21 -22 34 -12 13 -19 25 -17 28 9 9 69 -78
69 -100 0 -12 -10 -31 -22 -43 -27 -24 -117 -61 -136 -55 -18 7 -62 -5 -62
-16 0 -5 38 -9 85 -9 87 0 114 10 152 58 11 13 12 13 13 -1 0 -22 -38 -69 -56
-69 -8 0 -12 -5 -9 -10 12 -20 -81 -34 -123 -18 -14 5 -31 4 -40 -2 -14 -8
-14 -9 -2 -10 13 0 13 -1 0 -10 -13 -9 -12 -12 4 -25 19 -15 19 -15 -3 -15
-13 0 -19 -4 -16 -10 10 -16 -6 -141 -17 -134 -5 3 -19 -3 -31 -14 -33 -30
-65 -44 -72 -32 -3 6 4 14 17 19 25 10 49 34 67 68 11 22 11 22 -16 8 -37 -18
-66 -29 -76 -26 -15 3 -77 -23 -77 -32 0 -5 -9 2 -20 16 -25 31 -25 41 -1 28
12 -7 31 -6 57 1 21 7 43 11 47 10 11 -3 62 25 76 42 7 8 11 30 9 49 l-3 34
-40 -30 c-39 -29 -39 -29 -10 -23 16 4 33 13 37 19 5 8 8 4 8 -9 0 -18 -11
-24 -67 -38 -89 -21 -115 -20 -147 5 -39 30 -32 39 14 17 45 -23 85 -18 122
14 13 11 36 31 52 44 28 24 28 26 16 69 -13 47 -29 56 -50 30 -7 -8 -17 -15
-22 -15 -5 0 -18 -10 -27 -22 -13 -15 -24 -19 -42 -15 -39 10 -119 65 -119 82
0 14 2 14 14 3 7 -8 32 -22 54 -32 39 -18 43 -18 84 -1 49 19 78 42 78 62 0
17 0 17 -55 -7 -51 -22 -91 -25 -115 -10 -13 9 -13 10 0 11 61 4 130 30 130
49 0 14 -26 12 -89 -5 -56 -15 -93 -9 -50 8 22 8 20 11 -33 31 -63 24 -108 58
-108 82 0 8 -5 12 -10 9 -7 -4 -6 -13 1 -26 12 -22 9 -59 -6 -75 -6 -6 -10
-105 -10 -251 0 -223 -4 -258 -25 -232 -3 4 -16 2 -30 -3 l-25 -10 23 -11 c27
-12 28 -24 3 -51 -11 -12 -47 -94 -81 -183 -63 -164 -89 -216 -90 -180 0 9 12
45 26 80 65 157 105 287 87 287 -21 0 -102 -219 -121 -330 -5 -30 -10 -37 -21
-31 -11 7 -4 38 38 169 31 97 59 166 72 178 14 13 18 25 14 42 -5 20 -3 23 10
18 24 -9 38 3 24 20 -10 12 -7 19 10 38 12 13 28 44 36 69 21 69 30 317 15
405 -14 83 -6 102 39 102 19 0 32 -9 44 -30z m110 16 c3 -8 1 -16 -5 -18 -8
-3 -7 -11 2 -27 10 -19 10 -23 -2 -19 -15 5 -24 78 -10 78 6 0 12 -6 15 -14z
m6067 -5 c0 -4 -6 -8 -14 -8 -8 0 -12 6 -9 14 5 13 23 9 23 -6z m-8103 -13
c-3 -8 -6 -5 -6 6 -1 11 2 17 5 13 3 -3 4 -12 1 -19z m8868 1 c-10 -15 -25
-10 -19 6 4 8 10 12 15 9 5 -3 7 -10 4 -15z m-6790 -7 c-3 -3 -11 0 -18 7 -9
10 -8 11 6 5 10 -3 15 -9 12 -12z m-1362 -32 c24 -21 55 -44 69 -49 39 -15
128 -11 128 6 0 7 5 13 11 13 6 0 1 9 -12 20 -13 10 -19 19 -14 20 30 0 52
-43 33 -67 -21 -27 14 -18 112 29 117 56 177 66 207 35 17 -17 17 -18 -10 -8
-44 17 -70 13 -123 -16 -93 -51 -115 -62 -146 -72 l-31 -11 20 -23 c11 -12 23
-30 27 -41 5 -16 13 -17 51 -12 29 5 45 4 45 -3 0 -6 -11 -11 -24 -11 -14 0
-28 -5 -31 -10 -4 -7 -13 -6 -26 1 -12 6 -23 8 -26 6 -9 -10 30 -59 54 -68 34
-13 40 -12 63 11 25 25 26 68 3 86 -17 13 -17 14 0 8 14 -5 17 0 18 32 1 22 3
31 6 21 2 -9 9 -14 15 -11 8 5 9 -12 5 -57 -5 -55 -10 -68 -36 -91 -36 -32
-61 -35 -98 -11 -25 17 -26 17 -42 -7 -35 -53 -101 -128 -145 -163 -69 -57
-56 -26 22 51 63 62 102 112 86 112 -12 0 -69 -53 -66 -62 1 -5 -14 -18 -33
-29 -19 -12 -35 -25 -35 -31 0 -5 -5 -6 -10 -3 -6 4 -17 1 -25 -5 -8 -7 -15
-8 -15 -3 0 12 60 74 93 96 15 10 25 22 22 27 -4 6 0 10 7 10 7 1 26 12 43 25
22 18 27 27 18 36 -8 8 -18 6 -39 -8 -47 -29 -103 -93 -97 -109 4 -12 1 -13
-20 -3 -15 7 -24 15 -22 19 3 5 -2 11 -11 14 -8 3 -13 10 -10 15 3 5 -1 12 -9
15 -17 6 -54 81 -55 109 0 15 3 15 20 5 11 -7 20 -17 20 -22 0 -4 -7 -3 -15 4
-19 16 -19 7 1 -33 37 -73 83 -96 120 -59 17 16 17 17 -1 21 -11 2 -21 -2 -23
-8 -3 -8 -10 -7 -23 5 -29 26 -23 32 25 27 35 -4 50 -1 77 18 19 13 36 27 37
32 2 4 8 5 13 2 5 -4 6 2 2 11 -4 11 -8 13 -11 6 -2 -7 -8 -9 -14 -6 -5 3 -24
-8 -41 -26 -23 -23 -36 -30 -51 -25 -46 15 -71 12 -78 -9 -5 -14 -6 -8 -4 16
5 38 -6 58 -39 76 -14 8 -16 11 -5 12 9 0 31 -14 49 -31 33 -30 48 -34 104
-31 45 3 27 26 -27 35 -45 7 -82 28 -70 39 2 3 37 3 77 0 50 -3 76 -10 84 -21
11 -14 12 -13 13 6 0 27 -27 43 -74 43 -52 0 -86 17 -124 61 -31 36 -59 48
-75 33 -3 -3 10 -19 29 -36 38 -33 41 -43 19 -52 -10 -3 -18 1 -22 12 -11 31
-46 62 -70 62 -32 0 -20 17 20 29 54 16 66 12 110 -29z m55 19 c7 -12 11 -24
8 -27 -3 -3 -6 0 -6 6 0 7 -7 12 -15 12 -8 0 -15 7 -15 15 0 21 13 19 28 -6z
m98 -7 c-17 -16 -18 -16 -5 5 7 12 15 20 18 17 3 -2 -3 -12 -13 -22z m6001 -9
c-3 -3 -11 -2 -17 2 -8 5 -7 11 2 22 12 15 13 14 16 -1 2 -10 1 -20 -1 -23z
m63 16 c0 -5 -4 -9 -10 -9 -5 0 -10 7 -10 16 0 8 5 12 10 9 6 -3 10 -10 10
-16z m1070 -4 c0 -8 -4 -15 -10 -15 -5 0 -7 7 -4 15 4 8 8 15 10 15 2 0 4 -7
4 -15z m1379 -17 c-1 -24 -3 -27 -6 -10 -6 28 -9 28 -44 -8 -41 -40 -98 -57
-139 -40 -48 20 -48 32 1 25 48 -7 122 17 148 49 23 27 41 20 40 -16z m-1556
-6 c70 -43 158 -75 169 -64 8 8 8 15 0 25 -9 11 -8 14 6 14 26 0 43 -28 29
-46 -10 -12 -9 -13 2 -7 7 5 31 10 52 11 22 2 61 17 89 34 50 31 90 40 90 21
0 -7 6 -7 18 -1 29 15 92 -6 92 -30 0 -5 -14 -2 -30 6 -40 20 -66 12 -87 -28
-13 -24 -18 -28 -21 -15 -2 9 2 26 8 38 10 18 5 17 -47 -10 -32 -16 -80 -33
-108 -36 -48 -6 -75 -18 -75 -33 0 -16 130 7 166 30 l38 23 -19 -26 c-27 -37
-69 -53 -131 -50 -69 3 -77 -13 -16 -31 49 -15 96 -13 120 6 8 6 12 6 12 -1 0
-31 -71 -47 -125 -28 -60 21 -73 7 -18 -20 46 -22 140 -34 129 -15 -3 4 6 19
19 31 14 13 25 29 25 36 0 6 6 16 13 22 10 9 13 4 14 -25 1 -25 -2 -32 -8 -22
-8 13 -13 6 -10 -13 0 -5 -6 -8 -14 -8 -9 0 -21 -11 -27 -25 -9 -21 -18 -25
-52 -25 -23 1 -59 9 -81 20 -39 18 -61 18 -49 -2 11 -17 94 -48 129 -48 18 0
39 -7 46 -17 13 -15 10 -16 -26 -9 l-40 7 25 -20 c14 -12 30 -21 37 -21 18 0
77 128 77 166 0 19 4 34 9 34 28 0 -33 -194 -65 -208 -5 -2 -8 -10 -8 -18 0
-8 -5 -14 -11 -14 -6 0 -9 7 -5 15 3 9 0 15 -9 15 -8 0 -15 3 -15 8 0 9 -83
62 -107 67 -10 2 -27 6 -38 10 -37 13 37 -44 98 -75 37 -20 57 -36 56 -48 0
-10 -3 -12 -6 -5 -2 7 -20 15 -39 19 -19 4 -51 22 -71 40 -20 19 -38 33 -39
31 -7 -7 42 -67 59 -73 9 -3 14 -10 11 -15 -3 -6 8 -28 25 -50 68 -84 0 -20
-118 112 -22 25 -41 53 -41 60 0 8 -14 21 -32 28 -18 8 -52 33 -76 55 l-43 40
7 -30 c10 -41 10 -42 62 -69 70 -36 83 -47 47 -39 -46 10 -103 42 -115 63 -12
23 -12 108 0 136 7 16 9 13 9 -16 1 -29 8 -43 35 -65 48 -40 103 -73 110 -66
12 11 5 42 -9 42 -17 0 -82 35 -107 58 -29 25 -20 35 11 12 32 -22 111 -53
119 -46 9 10 -35 43 -78 59 -61 23 -66 27 -74 62 -5 20 -4 27 2 20 6 -5 12
-19 14 -30 2 -14 14 -21 40 -26 42 -6 88 -34 88 -52 1 -6 7 -1 15 13 7 14 10
28 6 32 -4 5 -38 24 -76 44 -39 20 -83 43 -99 51 -16 9 -46 16 -67 16 -23 0
-36 4 -32 10 9 15 100 1 136 -21z m274 6 c-3 -8 -6 -5 -6 6 -1 11 2 17 5 13 3
-3 4 -12 1 -19z m-5996 -8 c-27 -24 -41 -25 -41 -6 0 16 15 24 45 25 19 0 18
-1 -4 -19z m4802 14 c3 -3 3 -13 0 -21 -5 -12 -7 -12 -14 -1 -15 23 -4 40 14
22z m1999 -36 c4 -12 77 -37 110 -38 15 0 30 -5 34 -11 5 -9 -10 -10 -52 -7
-52 4 -61 9 -91 43 -18 21 -33 43 -33 49 1 11 26 -18 32 -36z m-2394 -50 c14
-16 20 -28 13 -28 -19 0 -71 56 -71 78 0 32 14 35 24 5 4 -15 20 -40 34 -55z
m366 41 c-8 -13 -44 9 -44 27 0 12 4 12 25 -2 14 -9 22 -20 19 -25z m2059 -72
c43 -21 51 -21 92 -1 25 11 39 13 52 6 16 -10 15 -12 -12 -22 -16 -7 -49 -15
-72 -17 -36 -5 -49 -1 -78 22 -36 27 -49 50 -61 103 -3 15 5 5 19 -24 18 -36
34 -55 60 -67z m-8293 47 c0 -6 -6 -24 -14 -40 -9 -17 -20 -95 -28 -184 -15
-180 -16 -235 -5 -272 7 -27 6 -28 -35 -29 -39 0 -40 -1 -18 -10 43 -18 50
-39 20 -69 -26 -26 -42 -17 -39 24 2 17 -1 37 -5 44 -5 8 1 34 13 62 11 27 25
79 31 117 13 89 12 268 -1 318 -18 70 -17 79 16 85 23 5 34 2 47 -14 10 -12
18 -26 18 -32z m614 40 c18 -18 21 -45 6 -60 -5 -5 -14 -46 -19 -89 -36 -300
-39 -355 -16 -395 18 -31 19 -48 3 -32 -9 9 -18 6 -39 -14 -26 -25 -31 -26
-59 -14 -36 15 -37 21 -9 46 45 40 75 172 86 375 6 112 5 117 -16 128 -16 9
-21 9 -22 -1 0 -7 -5 0 -11 15 -8 23 -7 31 8 42 25 19 69 19 88 -1z m6504 0
l23 -16 -29 -28 c-34 -32 -47 -78 -62 -230 -7 -70 -7 -125 0 -164 5 -33 8 -61
6 -63 -2 -2 -18 10 -36 27 -50 47 -56 36 -11 -19 46 -54 47 -60 26 -100 -12
-24 -21 -29 -50 -29 -22 0 -35 5 -35 13 0 7 -14 18 -31 24 -25 9 -30 15 -27
38 2 15 12 32 23 38 44 23 47 26 33 43 -11 12 -11 16 1 20 25 8 50 41 60 79
19 70 33 291 21 314 -10 17 -8 25 11 45 26 28 46 30 77 8z m-5828 -24 c0 -10
-4 -22 -10 -25 -6 -4 -10 7 -10 25 0 18 4 29 10 25 6 -3 10 -15 10 -25z m1328
8 c17 -17 15 -45 -4 -52 -28 -11 -61 -6 -74 9 -27 33 47 74 78 43z m2521 -12
l23 -24 -25 -17 c-23 -15 -28 -15 -56 0 -36 18 -37 22 -14 47 22 25 45 23 72
-6z m-4667 -8 c-7 -7 -12 -8 -12 -2 0 14 12 26 19 19 2 -3 -1 -11 -7 -17z
m7232 -7 c14 -15 16 -30 11 -77 -7 -65 24 -295 51 -376 14 -43 14 -50 1 -63
-9 -8 -23 -12 -31 -9 -10 4 -16 1 -16 -7 0 -8 -3 -9 -9 -3 -6 5 -6 27 1 55 9
37 6 77 -11 199 -20 142 -34 192 -62 231 -9 12 -8 21 6 42 20 32 36 34 59 8z
m-7248 -18 c-7 -7 -26 7 -26 19 0 6 6 6 15 -2 9 -7 13 -15 11 -17z m1388 18
c3 -4 -4 -17 -15 -27 -21 -19 -21 -18 -8 9 13 30 15 31 23 18z m-1394 -53 c0
-5 -2 -8 -3 -8 -7 0 -47 38 -47 44 0 9 49 -27 50 -36z m4787 -43 c14 -27 38
-68 54 -91 15 -22 58 -102 95 -177 65 -133 106 -189 198 -278 34 -32 38 -41
33 -68 -7 -33 -7 -34 62 -34 23 1 41 9 60 28 l26 27 -27 -4 c-15 -3 -33 -1
-40 3 -7 5 -16 3 -20 -4 -4 -7 -13 2 -23 26 -8 20 -18 37 -21 37 -3 0 -2 -6 2
-12 4 -7 4 -10 -1 -6 -14 13 -17 70 -3 62 7 -4 8 -3 4 5 -4 6 4 32 19 56 21
37 31 45 55 45 16 0 32 -4 35 -10 13 -22 46 -10 57 20 8 24 13 28 23 20 10 -8
17 -6 27 9 15 21 15 21 38 -4 25 -26 21 -32 -11 -15 -17 10 -18 8 -9 -15 14
-36 15 -34 -32 -54 l-43 -18 55 -8 c114 -16 160 -71 111 -135 -16 -20 -31 -25
-90 -31 -44 -4 -89 -15 -123 -32 -29 -14 -75 -29 -103 -34 l-50 -8 -1 -46 -1
-45 42 -3 c35 -1 46 3 59 21 9 12 16 35 16 51 0 24 3 28 20 24 13 -3 21 1 25
14 4 11 11 16 17 13 6 -4 14 0 19 7 6 10 9 10 9 2 0 -7 -9 -17 -20 -23 -15 -8
-18 -15 -11 -33 10 -25 1 -47 -31 -81 -16 -18 -18 -18 -18 -2 0 16 -2 16 -26
-3 -50 -39 -136 -14 -118 34 5 13 4 16 -4 11 -9 -5 -11 3 -6 28 4 28 2 36 -10
36 -20 0 -20 14 -1 30 31 26 6 84 -40 93 -33 6 -55 -15 -55 -52 0 -29 20 -53
55 -65 16 -6 17 -9 5 -16 -8 -5 -19 -6 -25 -2 -5 3 -4 -2 4 -11 12 -15 11 -17
-2 -17 -29 0 -57 49 -57 100 0 40 4 50 26 65 14 9 23 19 20 22 -3 3 -17 -2
-31 -11 l-25 -16 0 35 c0 59 -85 255 -165 380 -17 28 -31 52 -31 55 2 13 -47
71 -53 62 -3 -6 -15 -6 -28 -1 -31 12 -32 73 -1 106 21 22 22 22 41 5 10 -9
31 -39 44 -67z m-3862 48 c10 -16 12 -23 5 -16 -7 6 -19 9 -26 6 -9 -3 -14 2
-14 16 0 29 14 26 35 -6z m1160 11 c43 -28 26 -118 -19 -101 -8 3 -23 -7 -37
-24 -12 -16 -28 -29 -36 -29 -8 0 -11 -5 -8 -11 4 -5 0 -18 -8 -27 -21 -25
-101 -176 -143 -272 -26 -60 -37 -98 -35 -128 1 -43 1 -43 -21 -28 -17 12 -25
13 -36 3 -12 -9 -16 -9 -19 1 -9 24 -22 12 -49 -45 -20 -40 -24 -58 -16 -61 7
-2 17 -13 23 -24 7 -13 7 -18 1 -14 -6 3 -13 2 -16 -3 -7 -10 -161 29 -230 59
-27 11 -70 21 -95 21 -53 1 -88 20 -101 55 -22 56 21 94 122 108 26 4 50 12
54 18 4 6 -1 8 -14 4 -11 -4 -23 -2 -27 4 -3 5 -1 10 4 10 6 0 11 6 11 13 -1
6 -9 2 -19 -10 -13 -16 -21 -19 -29 -11 -9 9 -7 16 5 30 9 10 11 18 5 18 -6 0
-14 -4 -17 -10 -3 -5 -11 -10 -16 -10 -6 0 -7 5 -4 10 3 6 -1 10 -10 10 -15 0
-15 2 -1 22 22 31 20 45 -2 25 -26 -24 -33 -21 -20 8 11 24 38 35 38 15 0 -5
10 -14 21 -21 13 -7 19 -7 15 -1 -3 6 -2 13 4 17 5 3 10 -1 10 -9 0 -8 -4 -18
-10 -21 -5 -3 -10 -11 -10 -17 0 -6 8 -4 18 5 27 24 37 21 19 -7 -15 -22 -14
-23 6 -22 12 1 30 -4 39 -12 14 -12 20 -12 40 2 37 26 64 20 88 -19 13 -20 20
-45 17 -56 -5 -17 -3 -18 10 -7 14 12 15 11 5 -9 -9 -17 -9 -22 3 -27 19 -7
19 -42 1 -49 -15 -6 -30 7 -38 33 -3 8 -8 -2 -12 -23 -8 -43 -25 -54 -55 -37
-17 8 -21 8 -21 -3 0 -24 35 -47 77 -51 49 -5 58 1 66 41 4 21 30 56 76 103
58 60 82 97 151 231 46 88 100 186 120 218 21 32 45 74 55 95 19 40 34 44 70
20z m-2105 -42 c3 -2 -15 -1 -40 3 -53 9 -54 9 -47 29 5 14 12 13 44 -6 21
-12 40 -24 43 -26z m-1592 2 c-4 -3 -12 5 -18 18 -12 22 -12 22 6 6 10 -10 15
-20 12 -24z m3832 16 c6 -12 8 -31 5 -43 -5 -16 -4 -18 3 -8 8 11 19 -3 47
-60 64 -127 281 -437 368 -526 49 -50 70 -90 42 -80 -7 3 -25 -1 -41 -9 -26
-14 -30 -13 -43 3 -13 16 -13 17 -8 1 4 -12 1 -18 -8 -18 -7 0 -28 26 -44 58
-17 31 -74 111 -127 177 -126 157 -146 187 -211 314 -31 58 -59 111 -63 116
-4 6 -10 23 -12 38 -4 20 0 32 16 42 29 21 63 19 76 -5z m2424 7 c26 -19 16
-70 -25 -134 -19 -29 -56 -91 -83 -138 -28 -47 -101 -150 -164 -228 -62 -78
-121 -154 -130 -169 -9 -16 -20 -28 -25 -28 -4 0 -6 -4 -3 -9 11 -17 -4 -37
-29 -39 -23 -2 -95 33 -95 46 0 3 15 22 34 42 102 107 305 390 372 517 29 53
47 78 59 76 13 -1 15 4 10 24 -11 46 37 70 79 40z m-6176 -27 c11 0 32 -6 47
-14 24 -13 31 -13 50 0 13 8 26 11 28 7 8 -13 -58 -62 -91 -69 -31 -6 -79 13
-101 40 -17 21 -2 20 27 0 26 -18 78 -22 93 -7 8 8 -2 13 -33 18 -49 8 -78 21
-78 36 0 6 7 6 19 -1 11 -5 28 -10 39 -10z m2653 -88 c-20 -40 -69 -72 -109
-72 -24 0 -103 58 -110 80 -3 10 3 8 19 -6 75 -67 140 -59 190 23 29 47 37 27
10 -25z m6749 -5 c13 -5 12 -6 -1 -6 -20 -1 -69 36 -69 52 0 6 12 -1 28 -15
15 -14 34 -28 42 -31z m-7886 13 c-7 -7 -19 -7 -35 -1 -23 9 -22 10 11 10 23
1 31 -2 24 -9z m7143 -20 c-9 -13 -17 -17 -22 -11 -3 6 -1 11 5 11 6 0 9 4 6
9 -4 5 0 11 6 14 20 7 21 0 5 -23z m999 5 c10 -8 14 -15 7 -15 -19 0 -43 11
-43 21 0 13 14 11 36 -6z m109 -15 c-18 -20 -92 -30 -81 -11 9 13 56 20 56 7
0 -6 7 0 16 12 9 13 19 21 22 18 3 -3 -3 -15 -13 -26z m37 8 c-7 -7 -12 -8
-12 -2 0 14 12 26 19 19 2 -3 -1 -11 -7 -17z m-9835 -34 c25 -17 47 -24 66
-21 18 2 27 -1 27 -10 0 -13 -12 -17 -40 -13 -19 3 -99 53 -100 63 0 11 7 9
47 -19z m1588 -53 c-13 -27 -19 -30 -48 -24 -42 8 -97 41 -97 59 0 8 5 14 10
14 6 0 10 -4 10 -8 0 -5 15 -17 33 -27 32 -17 35 -17 60 0 15 10 31 29 34 44
l8 26 3 -27 c2 -15 -4 -40 -13 -57z m5659 30 c-6 -7 -44 31 -44 43 0 6 11 -1
24 -14 13 -14 22 -27 20 -29z m-7048 24 c-3 -20 -16 -31 -16 -13 0 13 8 28 16
28 1 0 1 -7 0 -15z m978 -33 c20 -24 36 -49 36 -55 0 -15 -45 38 -66 78 -19
35 -18 34 30 -23z m8414 12 c-4 -3 -12 5 -18 18 -12 22 -12 22 6 6 10 -10 15
-20 12 -24z m-1338 17 c0 -6 27 -18 60 -27 33 -9 60 -21 60 -25 0 -17 -52 -13
-92 6 -33 16 -36 3 -8 -25 40 -40 116 -34 127 10 3 11 10 20 15 20 12 0 0 -40
-20 -62 -25 -30 -88 -24 -123 11 -16 16 -29 38 -29 49 0 11 -3 27 -6 36 -3 9
-1 16 5 16 6 0 11 -4 11 -9z m-7963 -21 c14 -11 39 -20 54 -20 16 0 29 -4 29
-10 0 -5 -15 -10 -33 -10 -24 0 -41 8 -62 30 -33 34 -26 40 12 10z m6763 5 c0
-9 -6 -12 -15 -9 -8 4 -15 2 -15 -4 0 -5 -6 -12 -14 -15 -10 -4 -12 0 -9 13 4
17 17 24 46 29 4 0 7 -6 7 -14z m-4176 -3 c5 -9 -41 -8 -51 1 -3 4 5 7 20 7
14 0 28 -4 31 -8z m69 -9 c3 -5 -5 -16 -18 -25 -23 -17 -23 -17 -11 7 11 25
21 31 29 18z m4027 -3 c0 -5 -4 -10 -9 -10 -6 0 -13 5 -16 10 -3 6 1 10 9 10
9 0 16 -4 16 -10z m2530 1 c0 -16 -15 -20 -41 -14 l-24 7 25 7 c36 10 40 10
40 0z m-9300 -20 c15 -29 12 -33 -10 -14 -21 19 -26 33 -10 33 5 0 14 -9 20
-19z m8515 -18 c-6 -41 -15 -57 -15 -27 0 24 11 64 17 64 2 0 2 -17 -2 -37z
m895 27 c0 -5 -10 -10 -22 -10 -19 0 -20 2 -8 10 19 13 30 13 30 0z m-2665
-18 c-3 -3 -11 0 -18 7 -9 10 -8 11 6 5 10 -3 15 -9 12 -12z m2470 8 c3 -5 17
-10 31 -10 13 0 24 -4 24 -10 0 -17 -36 -11 -61 10 -13 10 -19 19 -12 20 6 0
15 -4 18 -10z m574 -46 l-22 -47 32 -174 c18 -95 31 -178 29 -183 -2 -6 -21
69 -42 167 -21 98 -43 191 -49 207 -10 26 -8 31 18 52 16 12 32 21 37 18 4 -3
8 0 8 7 0 7 3 10 6 6 4 -3 -4 -27 -17 -53z m-8484 6 c8 0 15 -4 15 -10 0 -16
-35 -12 -69 8 -45 25 -46 42 -1 21 22 -11 46 -19 55 -19z m-335 -5 c0 -5 -5
-3 -10 5 -5 8 -10 20 -10 25 0 6 5 3 10 -5 5 -8 10 -19 10 -25z m8424 10 c3
-9 0 -15 -8 -15 -8 0 -16 7 -20 15 -3 9 0 15 8 15 8 0 16 -7 20 -15z m-9537
-1 c-3 -3 -12 -4 -19 -1 -8 3 -5 6 6 6 11 1 17 -2 13 -5z m148 -24 c4 -6 -5
-10 -19 -10 -14 0 -26 5 -26 10 0 6 9 10 19 10 11 0 23 -4 26 -10z m9380 -20
c8 0 17 -4 20 -10 4 -6 -12 -10 -40 -10 l-45 0 16 26 c15 22 19 23 26 10 5 -9
15 -16 23 -16z m-8385 -12 c7 -18 16 -37 18 -42 3 -5 0 -6 -6 -2 -9 5 -42 62
-42 73 0 1 4 3 8 3 4 0 14 -15 22 -32z m5891 11 c9 -17 8 -20 -2 -14 -9 6 -10
3 -5 -10 5 -15 4 -16 -9 -5 -18 15 -20 35 -3 24 8 -5 9 -2 5 9 -9 24 0 21 14
-4z m1599 11 c0 -5 -4 -10 -10 -10 -5 0 -10 5 -10 10 0 6 5 10 10 10 6 0 10
-4 10 -10z m697 -22 c36 -35 42 -55 18 -64 -8 -4 -15 -12 -15 -19 0 -6 -8 -19
-18 -28 -10 -10 -18 -27 -17 -40 1 -12 -4 -29 -11 -37 -18 -22 4 -104 45 -169
27 -41 38 -50 70 -55 32 -5 41 -11 49 -36 14 -39 3 -38 -48 5 -23 19 -45 35
-48 36 -4 0 -26 2 -50 5 -27 2 -41 0 -37 -6 3 -5 -1 -10 -9 -10 -8 0 -18 5
-21 11 -4 6 -14 8 -24 5 -12 -4 -11 -2 3 7 62 40 62 42 43 82 -10 21 -22 60
-27 87 -5 26 -21 65 -35 86 -14 20 -25 47 -25 60 0 53 53 111 105 112 10 0 34
-14 52 -32z m659 -131 c12 -87 25 -169 28 -182 5 -18 2 -25 -8 -25 -9 0 -15
21 -20 73 -7 66 -28 200 -42 271 -5 21 -3 27 7 24 9 -3 21 -56 35 -161z
m-9566 138 c29 -15 60 -61 60 -88 0 -8 -11 -34 -24 -58 -14 -24 -28 -62 -31
-84 -4 -22 -17 -62 -28 -89 -19 -45 -19 -49 -4 -58 22 -12 22 -29 0 -21 -11 4
-14 3 -9 -5 10 -17 -15 -14 -38 3 -27 21 -47 2 -39 -36 6 -33 -3 -38 -23 -11
-12 16 -14 15 -39 -8 -20 -19 -28 -22 -34 -11 -7 11 -9 11 -14 0 -3 -8 -6 -2
-6 14 -1 15 2 27 7 28 57 4 87 10 90 18 2 6 17 27 34 48 44 56 60 92 53 120
-4 16 1 34 15 53 26 36 26 36 -10 49 -22 7 -30 7 -31 -2 0 -7 -5 -1 -12 13 -6
14 -23 37 -37 51 -31 30 -28 44 14 70 38 23 67 24 106 4z m1050 5 c-8 -5 -22
-9 -30 -9 -10 0 -8 3 5 9 27 12 43 12 25 0z m1318 -30 c-5 -16 -17 -35 -26
-42 -14 -11 -15 -10 -7 7 5 11 9 32 9 46 1 19 5 25 18 21 13 -3 15 -9 6 -32z
m-40 -11 c-6 -19 -14 -27 -20 -21 -11 11 11 64 23 56 4 -2 3 -18 -3 -35z
m4257 -38 c-3 -2 -11 2 -20 9 -18 15 -20 -1 -3 -18 9 -9 7 -12 -9 -12 -22 0
-33 18 -33 52 0 18 2 19 16 7 14 -11 16 -10 14 6 -4 39 2 39 20 0 10 -22 17
-41 15 -44z m1292 48 c31 0 34 -2 17 -9 -27 -11 -101 7 -108 26 -5 12 -1 12
24 -1 16 -8 46 -15 67 -16z m-8118 -1 c13 -22 13 -22 -5 -6 -10 9 -32 18 -49
21 -29 4 -29 4 5 6 27 1 39 -4 49 -21z m410 -15 c14 -48 14 -213 1 -233 -8
-11 -9 -9 -5 10 6 26 -9 199 -20 238 -5 13 -3 22 3 22 6 0 16 -17 21 -37z
m906 27 c-3 -5 -11 -10 -16 -10 -6 0 -7 5 -4 10 3 6 11 10 16 10 6 0 7 -4 4
-10z m7070 0 c5 -8 12 -7 23 2 13 11 14 11 10 -2 -6 -20 -73 -23 -89 -4 -9 11
-6 14 19 14 17 0 34 -5 37 -10z m-7265 -17 c0 -7 -4 -13 -9 -13 -5 0 -11 6
-14 13 -3 8 1 14 9 14 8 0 14 -6 14 -14z m153 10 c-7 -2 -21 -2 -30 0 -10 3
-4 5 12 5 17 0 24 -2 18 -5z m1167 -3 c0 -5 -5 -10 -11 -10 -5 0 -7 5 -4 10 3
6 8 10 11 10 2 0 4 -4 4 -10z m-2476 -20 c-10 -4 -23 -5 -28 -2 -13 7 16 21
32 14 13 -4 12 -7 -4 -12z m8283 -6 c12 -26 12 -26 -7 -9 -20 18 -26 35 -12
35 4 0 12 -12 19 -26z m-7870 -151 c7 -86 11 -159 8 -161 -4 -5 -10 29 -24
163 -13 115 -14 171 -4 161 4 -4 13 -77 20 -163z m2021 155 c-3 -7 -18 -14
-34 -16 l-29 -3 25 15 c32 18 43 19 38 4z m6942 2 c8 -5 11 -10 5 -11 -24 -3
-61 3 -69 12 -13 12 45 12 64 -1z m-8070 -10 c-20 -13 -33 -13 -25 0 3 6 14
10 23 10 15 0 15 -2 2 -10z m-170 -4 c0 -2 -7 -7 -16 -10 -8 -3 -12 -2 -9 4 6
10 25 14 25 6z m7290 -6 c0 -5 -4 -10 -10 -10 -5 0 -10 5 -10 10 0 6 5 10 10
10 6 0 10 -4 10 -10z m-8370 -10 c0 -5 -22 -10 -51 -10 -27 0 -48 3 -46 8 8
11 97 14 97 2z m945 0 c3 -5 1 -10 -4 -10 -6 0 -11 5 -11 10 0 6 2 10 4 10 3
0 8 -4 11 -10z m8347 0 c17 0 18 -2 4 -15 -20 -21 -33 -19 -47 7 -10 18 -9 20
6 15 9 -4 26 -7 37 -7z m-8182 -10 c0 -5 -12 -10 -27 -9 -25 0 -26 1 -8 9 27
12 35 12 35 0z m7115 -8 c-3 -3 -11 0 -18 7 -9 10 -8 11 6 5 10 -3 15 -9 12
-12z m-8225 -12 c11 -7 4 -10 -25 -10 -29 0 -36 3 -25 10 8 5 20 10 25 10 6 0
17 -5 25 -10z m8226 -18 c-4 -3 -14 2 -24 12 -16 18 -16 18 6 6 13 -6 21 -14
18 -18z m-8116 -2 c0 -5 -5 -10 -11 -10 -7 0 0 -11 15 -25 14 -13 26 -30 26
-36 0 -7 -3 -9 -7 -5 -4 3 -12 -3 -19 -16 -12 -22 -12 -22 -33 12 -21 35 -20
67 3 82 16 11 26 10 26 -2z m993 3 c-7 -2 -21 -2 -30 0 -10 3 -4 5 12 5 17 0
24 -2 18 -5z m8060 -8 c10 -10 13 -28 10 -60 -6 -52 0 -57 22 -17 14 22 15 23
12 5 -3 -12 0 -24 6 -26 8 -2 6 -10 -5 -21 -16 -16 -18 -16 -38 4 -13 13 -20
33 -20 58 0 27 -3 33 -10 22 -5 -8 -10 -27 -10 -42 0 -15 -4 -30 -10 -33 -16
-10 -12 62 5 95 18 35 19 35 38 15z m139 -10 c-9 -11 -17 -21 -18 -23 -1 -2
-18 0 -37 3 -24 5 -34 11 -30 20 5 16 25 21 70 21 30 -1 31 -2 15 -21z m-8983
-143 c1 -12 9 -39 20 -60 10 -20 22 -51 25 -68 6 -29 5 -32 -16 -31 -13 1 -33
-2 -45 -7 -19 -6 -23 -4 -23 13 0 11 -7 24 -16 29 -14 8 -13 10 5 15 12 3 19
2 17 -2 -3 -4 5 -13 16 -20 18 -11 20 -11 14 4 -3 9 -6 23 -6 31 0 9 -4 12
-10 9 -5 -3 -10 -2 -10 4 0 5 5 11 12 13 9 3 8 23 -5 84 -9 44 -16 95 -16 114
1 29 5 22 19 -35 10 -38 19 -80 19 -93z m7027 144 c3 -8 -1 -27 -9 -42 -14
-27 -13 -35 18 -120 47 -129 107 -253 112 -231 6 22 -50 193 -88 271 -32 65
-37 88 -13 65 12 -13 112 -255 131 -320 5 -18 -21 -49 -42 -49 -8 0 -21 12
-29 28 -28 54 -126 313 -127 335 0 12 -3 16 -6 10 -3 -10 -8 -10 -19 1 -23 24
-16 45 19 55 45 13 47 13 53 -3z m889 -16 c8 -13 -1 -13 -26 0 -27 15 -24 -4
4 -23 22 -15 22 -15 -6 -10 -34 7 -44 26 -25 46 13 15 40 8 53 -13z m-8239 9
c-26 -6 -43 -6 -50 1 -7 7 6 10 40 9 l49 -1 -39 -9z m1130 -8 c-10 -15 -66
-19 -66 -4 0 8 13 13 36 13 19 0 33 -4 30 -9z m-950 -39 c-9 -8 -26 10 -26 26
1 15 2 15 15 -2 8 -11 13 -21 11 -24z m-137 -4 c1 7 6 10 11 7 16 -10 0 -27
-21 -22 -10 3 -22 1 -25 -4 -7 -13 -64 -11 -64 2 0 5 8 9 18 8 37 -3 50 2 57
24 l7 22 8 -25 c4 -14 8 -19 9 -12z m9234 8 c9 -7 17 -19 17 -27 0 -10 -2 -11
-8 -2 -5 7 -13 9 -21 3 -15 -9 -41 -3 -41 10 0 4 12 6 28 3 25 -3 26 -3 5 6
-13 6 -23 13 -23 16 0 10 25 4 43 -9z m263 -17 c25 -24 32 -71 14 -99 -9 -13
-10 -13 -11 0 0 12 -2 12 -7 -1 -4 -9 -44 -50 -89 -92 -95 -87 -136 -103 -165
-67 -23 29 -23 48 0 27 25 -23 54 -21 86 4 23 18 27 28 25 70 -2 45 -4 49 -23
42 -43 -14 -61 -9 -59 15 2 15 -1 21 -9 16 -7 -5 -8 -3 -3 6 4 7 2 16 -6 22
-10 7 -8 8 7 3 17 -4 23 0 26 20 3 14 1 28 -4 31 -4 3 -6 10 -3 15 4 5 19 2
37 -7 29 -15 32 -15 52 6 28 28 96 23 132 -11z m-8436 12 c-25 -8 -25 -8 6
-15 17 -4 31 -13 31 -22 0 -9 -6 -13 -14 -9 -8 3 -19 5 -24 5 -6 0 -7 5 -4 10
3 6 -1 10 -9 10 -10 0 -13 -6 -9 -17 5 -17 4 -17 -13 0 -19 18 -19 18 0 33 11
8 29 14 40 13 18 -1 17 -2 -4 -8z m6936 -1 c8 0 22 -16 30 -35 8 -19 18 -35
24 -35 12 0 66 -50 62 -58 -1 -4 6 -8 18 -10 11 -2 25 -12 30 -22 9 -16 8 -19
-7 -13 -15 5 -16 3 -5 -8 18 -19 15 -33 -4 -14 -12 12 -13 19 -5 29 9 11 6 12
-15 8 -14 -2 -22 -7 -17 -11 4 -3 16 -23 26 -45 16 -35 11 -32 -58 39 l-75 77
0 -37 c0 -20 5 -46 11 -58 21 -40 72 -86 103 -93 49 -10 105 -47 111 -73 7
-28 3 -34 -17 -26 -10 4 -13 15 -10 31 2 13 0 24 -6 24 -6 0 -19 3 -29 6 -17
6 -17 6 1 -8 16 -13 17 -17 5 -36 -15 -24 -34 -30 -26 -9 3 8 -7 18 -24 24
-23 9 -29 9 -29 -3 0 -8 -10 -14 -22 -14 -13 0 -18 3 -12 8 6 4 10 17 9 29 -2
26 -105 147 -152 177 -33 21 -42 36 -22 36 5 0 7 5 3 11 -4 8 -9 7 -15 -2 -6
-11 -11 -11 -21 -1 -21 21 24 99 64 111 18 5 39 7 46 5 8 -2 20 -4 28 -4z
m591 -7 c4 -10 -2 -23 -16 -34 -18 -15 -62 -107 -61 -129 1 -14 40 47 40 63 0
9 7 17 16 17 12 0 3 -24 -36 -97 -74 -138 -125 -222 -163 -266 -27 -33 -36
-38 -60 -32 -15 4 -27 11 -27 15 0 5 20 35 45 67 122 156 208 308 207 362 -1
18 1 38 4 42 9 15 44 10 51 -8z m-7305 -18 c65 -36 79 -55 72 -94 -5 -23 -16
-36 -41 -47 -35 -17 -143 -130 -143 -150 0 -16 33 -23 53 -13 12 7 14 5 10
-11 -3 -11 -12 -25 -21 -32 -13 -11 -15 -10 -9 5 3 9 2 17 -3 17 -6 0 -10 -4
-10 -10 0 -5 -11 -10 -25 -10 -14 0 -25 5 -25 11 0 8 -4 8 -14 0 -8 -6 -18
-11 -22 -10 -23 4 -45 -2 -39 -11 3 -6 3 -10 -2 -10 -4 0 -19 -3 -33 -7 l-25
-6 28 30 c15 16 27 32 27 36 0 4 -19 7 -42 7 -24 0 -62 5 -86 10 -34 8 -49 7
-73 -6 -17 -8 -32 -14 -34 -12 -14 18 -24 48 -15 48 6 0 8 5 5 10 -3 6 3 10
14 10 11 0 23 -4 26 -10 3 -6 11 -10 16 -10 17 0 -29 74 -70 113 -22 21 -38
44 -35 51 3 8 1 17 -5 21 -35 21 20 85 74 85 43 0 86 -39 80 -73 -4 -20 -3
-21 9 -4 7 9 21 17 31 17 14 0 16 -6 12 -27 -5 -29 11 -71 37 -92 29 -24 17
-31 -16 -11 -42 25 -64 25 -78 0 -25 -46 49 -111 102 -91 15 5 42 8 60 5 28
-5 42 0 78 28 24 18 52 47 62 65 19 31 19 31 -5 55 l-24 24 -26 -37 c-15 -21
-27 -42 -27 -48 0 -16 -39 -33 -60 -26 -31 10 -24 35 9 35 25 0 30 5 36 31 5
21 3 34 -5 39 -7 5 -9 13 -5 21 6 9 3 10 -11 5 -10 -4 -26 -9 -34 -11 -8 -2
-24 -7 -35 -11 -17 -7 -18 -5 -8 8 7 8 11 17 9 19 -2 2 12 5 32 6 84 4 116 9
119 18 8 23 43 75 52 75 4 0 29 -11 53 -25z m6898 10 c19 -7 27 -14 18 -14 -9
-1 -28 3 -42 9 -15 5 -26 6 -26 1 0 -5 12 -14 28 -19 l27 -10 -27 -1 c-30 -1
-43 12 -34 34 6 18 10 18 56 0z m-8154 -53 c-11 -10 -15 4 -8 28 l7 25 3 -23
c2 -13 1 -26 -2 -30z m1364 34 c0 -8 -3 -22 -6 -30 -5 -13 -9 -14 -20 -5 -21
18 -17 49 6 49 11 0 20 -6 20 -14z m-1277 -10 c4 -10 1 -13 -9 -9 -15 6 -19
23 -5 23 5 0 11 -7 14 -14z m8321 -17 c14 -17 26 -34 26 -39 0 -25 -14 -69
-20 -65 -4 3 -10 -5 -13 -16 -3 -11 -14 -23 -25 -26 -11 -2 -25 -16 -33 -29
-11 -21 -10 -26 5 -37 17 -12 13 -16 -34 -35 -61 -25 -95 -27 -130 -7 -25 14
-24 14 17 15 33 0 46 6 62 26 29 37 28 72 -4 80 -15 4 -32 1 -40 -6 -8 -7 -15
-9 -15 -5 0 4 -9 -3 -20 -16 -11 -14 -19 -18 -20 -11 0 7 -4 10 -10 7 -16 -10
-12 11 5 25 13 11 14 10 9 -6 -5 -15 -1 -13 21 7 21 21 28 37 29 72 1 42 2 44
24 36 14 -5 22 -5 22 2 0 5 11 21 25 34 36 37 86 34 119 -6z m-8454 12 c0 21
20 -12 20 -33 0 -27 -13 -21 -33 14 -14 24 -15 28 -2 18 12 -10 15 -10 15 1z
m7749 -38 c-9 -61 -24 -99 -32 -86 -3 5 -2 25 2 44 5 19 12 46 15 62 11 46 23
30 15 -20z m1476 38 c-3 -6 3 -14 12 -20 10 -6 14 -10 8 -11 -19 0 -38 18 -31
29 4 6 9 11 12 11 3 0 3 -4 -1 -9z m-8122 -22 c-8 -8 -16 -8 -30 0 -16 9 -14
10 12 11 21 0 26 -3 18 -11z m7067 -9 c0 -12 7 -20 18 -20 14 0 15 -2 2 -10
-17 -11 -37 -13 -27 -3 4 3 2 12 -4 20 -6 7 -8 13 -3 13 5 0 2 5 -6 10 -13 8
-12 10 3 10 10 0 17 -8 17 -20z m1080 -25 c8 5 11 3 8 -6 -7 -21 -32 -17 -36
6 -2 15 -1 17 6 6 6 -8 15 -10 22 -6z m-6187 -68 c-1 -39 -30 -100 -43 -92 -4
3 -10 0 -12 -7 -3 -8 -7 -9 -11 -1 -3 5 5 25 19 44 20 26 25 43 22 76 -3 37
-1 41 11 28 8 -8 15 -30 14 -48z m-1977 14 c-19 -21 -56 -34 -56 -20 0 5 7 9
15 9 8 0 12 6 9 14 -4 9 3 16 18 18 32 5 34 1 14 -21z m6671 -14 c1 -24 8 -69
16 -101 14 -53 14 -57 -1 -54 -24 5 -43 137 -26 182 8 22 9 21 11 -27z m1517
28 c-7 -17 -20 -20 -28 -6 -7 10 3 21 20 21 8 0 11 -6 8 -15z m-6569 -65 c3
-6 -1 -7 -9 -4 -18 7 -21 14 -7 14 6 0 13 -4 16 -10z m5024 -67 c-1 -75 -2
-76 -11 -36 -9 37 -4 113 7 113 3 0 4 -35 4 -77z m-4978 38 c0 -10 2 -11 6 -3
5 13 32 17 34 5 6 -33 5 -53 -2 -53 -4 0 3 -11 17 -25 39 -39 92 -28 108 23 8
25 26 21 26 -6 0 -15 -2 -15 -10 -2 -8 13 -10 13 -10 -2 0 -9 5 -18 10 -20 6
-2 2 -13 -9 -24 -36 -40 -183 -19 -167 23 3 8 1 11 -4 8 -16 -10 -24 23 -10
40 10 12 10 15 0 15 -7 0 -10 6 -7 14 3 7 0 19 -6 25 -9 9 -8 11 6 6 9 -4 17
-15 18 -24z m6329 -1 c0 -5 -4 -10 -10 -10 -5 0 -10 5 -10 10 0 6 5 10 10 10
6 0 10 -4 10 -10z m45 -13 c0 -26 -20 -25 -23 2 -3 16 1 22 10 19 7 -3 13 -12
13 -21z m-8955 4 c0 -5 -13 -11 -30 -13 -20 -3 -30 0 -30 9 0 8 12 13 30 13
17 0 30 -4 30 -9z m5245 -11 c10 -11 28 -20 40 -20 25 0 45 -18 45 -41 0 -27
-13 -30 -76 -16 -69 16 -84 33 -59 70 21 32 26 33 50 7z m-1437 -2 c17 -17 15
-55 -3 -62 -8 -3 -19 2 -24 12 -10 16 -10 16 -11 -1 0 -18 -45 -41 -61 -31 -5
3 -9 -1 -9 -8 -1 -7 -10 -2 -21 12 l-21 24 23 19 c12 10 29 15 37 12 8 -3 21
3 29 15 16 22 43 26 61 8z m69 -3 c19 -8 43 -15 52 -15 9 0 50 -16 90 -35 40
-20 78 -35 85 -34 6 1 20 1 31 0 19 -2 19 -3 -2 -11 -12 -5 -35 -5 -52 0 -16
4 -32 6 -35 2 -3 -3 -6 -1 -6 4 0 5 -8 10 -17 10 -43 2 -156 41 -125 43 7 1
10 6 7 12 -5 6 -12 4 -20 -7 -11 -16 -8 -20 34 -40 25 -12 73 -29 106 -39 33
-11 52 -20 43 -23 -31 -6 -176 36 -197 57 -12 12 -25 21 -29 21 -5 0 -9 16
-10 35 -2 40 -3 40 45 20z m1270 -1 c-3 -4 3 -24 14 -45 17 -35 18 -40 4 -45
-20 -8 -24 -4 -27 29 -1 15 -6 27 -11 27 -4 0 -3 9 3 20 6 11 14 20 17 20 3 0
4 -3 0 -6z m-30 -31 c0 -16 3 -35 6 -43 6 -13 -9 -20 -81 -38 -101 -25 -102
-25 -102 -14 0 5 23 14 51 21 42 11 50 17 46 32 -3 11 -1 19 4 19 5 0 9 -9 9
-21 0 -11 4 -18 9 -15 5 3 7 15 4 26 -3 11 0 20 6 20 6 0 11 -9 11 -21 0 -11
4 -17 10 -14 6 4 8 16 4 28 -9 30 -11 32 -26 19 -7 -6 -17 -11 -23 -12 -40 -5
-53 -13 -47 -28 5 -15 4 -15 -12 -3 -9 8 -16 10 -14 4 2 -6 -1 -11 -7 -11 -5
0 -9 5 -7 12 1 6 -4 3 -11 -6 -10 -12 -28 -18 -57 -18 -52 0 -50 8 3 12 20 1
37 5 37 9 0 8 11 13 100 45 83 30 87 30 87 -3z m-5222 -13 c-10 -11 -22 -17
-26 -14 -5 3 -9 0 -9 -5 0 -6 11 -11 24 -11 17 0 26 7 30 25 4 14 11 25 17 25
6 0 7 -5 3 -11 -5 -9 1 -10 19 -5 21 5 25 3 21 -9 -4 -8 -1 -15 5 -15 6 0 10
6 9 13 -5 20 192 11 211 -9 3 -4 -16 -4 -44 0 -27 4 -72 9 -100 11 l-50 4 45
-10 c25 -5 52 -13 60 -16 23 -10 28 -10 61 -12 23 -1 30 -5 25 -16 -3 -8 -1
-15 3 -15 5 0 11 5 13 12 3 7 7 5 11 -6 7 -17 3 -18 -40 -11 -50 7 -52 -8 -3
-18 14 -3 3 -4 -25 -2 -27 2 -63 8 -78 14 -32 13 -110 13 -179 2 -27 -4 -48
-5 -48 -1 0 9 42 17 130 26 46 4 77 1 107 -10 26 -9 45 -11 48 -5 4 5 16 10
28 10 12 1 -9 6 -48 10 -38 5 -73 15 -77 22 -5 7 -8 8 -8 1 0 -6 -19 -12 -42
-13 -24 -1 -64 -4 -90 -6 -27 -2 -48 1 -48 6 0 5 -9 1 -19 -8 -11 -9 -18 -20
-15 -25 3 -4 1 -8 -5 -8 -5 0 -13 5 -16 10 -3 6 -1 10 4 10 6 0 11 9 11 20 0
11 -4 20 -10 20 -5 0 -7 -7 -4 -15 4 -9 0 -15 -10 -15 -10 0 -16 9 -16 24 0
18 5 24 23 24 30 0 89 10 95 17 16 15 22 2 7 -15z m734 -12 c35 -38 38 -48 14
-48 -13 0 -15 -2 -5 -8 8 -6 2 -9 -17 -9 -20 0 -28 4 -24 14 3 7 -2 13 -11 13
-13 0 -15 4 -7 18 7 14 6 19 -4 19 -7 0 -11 -7 -8 -15 5 -12 3 -12 -15 -1 -18
12 -24 11 -37 -2 -15 -15 -13 -16 15 -17 39 -1 48 -8 31 -25 -9 -9 -14 -9 -21
3 -6 9 -10 10 -10 3 0 -6 -8 -11 -17 -11 -33 1 -165 -12 -174 -18 -5 -3 -9 -1
-9 5 0 13 64 31 115 31 36 1 38 2 22 15 -18 13 -18 14 0 23 10 5 34 12 54 15
20 2 45 9 55 15 10 6 20 12 21 12 1 0 16 -15 32 -32z m7179 24 c13 -9 6 -42
-9 -42 -14 0 -11 20 4 20 7 0 4 7 -7 15 -21 16 -11 21 12 7z m1235 -11 c22 -1
27 -6 27 -25 0 -23 -3 -24 -30 -16 -18 5 -32 5 -36 -1 -3 -5 -10 -6 -16 -3 -6
4 -9 1 -6 -7 3 -8 12 -13 22 -11 9 2 16 -4 16 -12 0 -10 -8 -13 -27 -10 -104
15 -152 19 -179 14 -20 -5 -38 -2 -49 7 -17 11 -10 13 48 13 58 0 66 2 60 16
-5 14 -1 16 20 12 15 -3 27 -1 27 4 0 8 -116 7 -233 -1 -5 -1 -5 -6 -2 -11 4
-6 28 -9 53 -7 26 3 35 2 20 0 -16 -2 -28 -8 -28 -13 0 -4 -18 -10 -39 -12
-22 -2 -37 0 -35 4 3 5 0 8 -5 8 -6 0 -11 5 -11 12 0 9 3 9 12 0 17 -17 33
-15 19 2 -14 17 2 32 39 38 22 3 261 3 333 -1z m-7918 -34 c-4 -8 -12 -18 -20
-20 -10 -4 -10 0 -2 24 6 16 15 25 19 21 5 -5 6 -16 3 -25z m7308 4 c18 -15
18 -16 0 -22 -13 -6 -8 -8 17 -9 51 -2 83 -9 95 -21 7 -7 -7 -8 -45 -2 -30 4
-67 7 -82 7 -15 -1 -25 2 -23 6 3 4 -7 8 -21 8 -33 0 -39 7 -26 34 8 17 11 18
11 7 1 -22 25 -31 53 -20 16 6 18 10 9 16 -8 4 -17 2 -22 -6 -5 -8 -9 -11 -9
-7 0 3 -3 14 -6 22 -5 12 -2 15 12 10 11 -4 27 -14 37 -23z m-530 2 c-3 -7
-11 -13 -19 -13 -8 0 -14 -4 -14 -10 0 -16 -26 -11 -41 8 -12 15 -12 16 2 5 9
-7 19 -10 22 -6 4 3 -1 12 -11 19 -14 11 -11 12 24 11 28 -1 40 -6 37 -14z
m1196 5 c-1 -7 -5 -24 -9 -38 -7 -22 -8 -20 -7 13 0 20 4 37 9 37 4 0 8 -6 7
-12z m-5254 -8 c-3 -6 1 -7 9 -4 9 3 16 1 16 -5 0 -6 -9 -11 -20 -11 -11 0
-20 7 -20 15 0 8 5 15 11 15 5 0 7 -4 4 -10z m1180 0 c3 -5 1 -10 -4 -10 -6 0
-11 5 -11 10 0 6 2 10 4 10 3 0 8 -4 11 -10z m3835 -2 c0 -5 -14 -8 -31 -8
-16 0 -28 3 -26 8 3 4 17 7 31 7 14 0 26 -3 26 -7z m-8037 -14 c-3 -8 -12 -13
-20 -10 -8 3 -17 6 -19 6 -3 0 -2 5 1 10 11 17 45 12 38 -6z m6810 -11 c-8 -3
-9 -12 -3 -29 17 -43 20 -76 7 -71 -18 6 -38 98 -25 115 8 10 14 10 22 1 8 -8
8 -13 -1 -16z m-5987 -15 c3 -5 0 -16 -7 -24 -9 -11 -28 -14 -71 -12 -32 2
-58 7 -58 12 0 5 -8 15 -17 22 -17 12 -17 13 3 14 12 0 24 -6 27 -14 6 -15 67
-28 67 -14 0 4 -3 8 -7 9 -24 2 -46 8 -51 14 -4 4 10 6 31 3 20 -2 37 -1 37 3
0 10 39 -1 46 -13z m5766 11 c26 -2 35 -6 31 -16 -3 -9 3 -13 21 -13 14 0 26
-4 26 -10 0 -12 -10 -12 -70 0 -29 5 -52 4 -64 -2 -14 -8 -21 -8 -24 0 -1 5
-12 8 -22 5 -14 -4 -20 0 -20 10 0 21 26 35 59 31 14 -2 42 -4 63 -5z m148 2
c8 11 25 -29 40 -91 8 -32 7 -33 -5 -16 -8 11 -18 34 -21 53 -6 33 -17 42 -29
23 -3 -5 -1 -10 5 -10 7 0 10 -6 7 -12 -2 -7 -10 -12 -17 -10 -10 2 -11 -10
-7 -50 l5 -53 -10 45 c-5 25 -14 53 -19 62 -13 26 -11 32 6 18 12 -10 15 -10
15 3 0 8 -9 17 -21 20 -12 3 -18 10 -15 16 5 7 15 7 33 0 19 -7 28 -6 33 2z
m1070 -1 c13 -8 13 -10 -2 -10 -9 0 -20 5 -23 10 -8 13 5 13 25 0z m-7160 -13
c0 -9 -12 -14 -30 -15 -16 0 -30 4 -30 10 0 5 7 8 15 4 8 -3 15 -1 15 4 0 6 7
10 15 10 8 0 15 -6 15 -13z m7575 4 c3 -5 1 -12 -5 -16 -5 -3 -10 1 -10 9 0
18 6 21 15 7z m-4115 -11 c0 -5 -5 -10 -11 -10 -5 0 -7 5 -4 10 3 6 8 10 11
10 2 0 4 -4 4 -10z m3835 0 c3 -6 -1 -7 -9 -4 -10 4 -16 1 -16 -7 0 -11 -3
-11 -10 1 -8 12 -12 13 -19 2 -7 -11 -9 -11 -14 2 -5 13 1 16 28 16 18 0 37
-4 40 -10z m-7365 -10 c0 -5 -4 -10 -9 -10 -5 0 -18 -3 -28 -6 -16 -5 -16 -4
1 10 23 18 36 20 36 6z m6300 -52 c0 -13 -19 -18 -26 -7 -4 8 -3 9 4 5 7 -4
12 -3 12 3 0 5 -4 13 -10 16 -5 3 -15 16 -21 28 -7 15 -3 12 15 -8 14 -16 25
-33 26 -37z m980 52 c0 -5 -4 -10 -10 -10 -5 0 -10 5 -10 10 0 6 5 10 10 10 6
0 10 -4 10 -10z m-7183 -12 c-2 -7 -14 -12 -26 -10 -12 2 -28 -1 -34 -5 -13
-10 -74 -17 -65 -7 7 6 95 32 116 33 8 1 12 -5 9 -11z m-177 -28 c0 -5 -4 -10
-10 -10 -5 0 -10 5 -10 10 0 6 5 10 10 10 6 0 10 -4 10 -10z m40 1 c0 -5 -7
-11 -15 -15 -15 -5 -20 5 -8 17 9 10 23 9 23 -2z m6097 -33 c-3 -7 -5 -2 -5
12 0 14 2 19 5 13 2 -7 2 -19 0 -25z"/>
<path d="M2120 5130 c0 -5 5 -10 10 -10 6 0 10 5 10 10 0 6 -4 10 -10 10 -5 0
-10 -4 -10 -10z"/>
<path d="M3674 4732 c4 -7 12 -12 17 -12 5 0 28 -12 50 -26 39 -24 42 -25 60
-8 10 9 19 20 19 24 0 13 -40 19 -47 8 -3 -7 -1 -8 5 -4 7 4 12 2 12 -3 0 -20
-31 -11 -40 12 -5 12 -9 16 -9 9 -1 -13 -14 -11 -60 6 -9 3 -12 1 -7 -6z"/>
<path d="M3830 4680 c-23 -23 -25 -41 -8 -58 20 -20 32 -14 52 22 28 53 -2 78
-44 36z"/>
<path d="M6440 4725 c0 -13 45 -43 55 -37 5 4 18 8 29 9 10 2 26 8 35 13 12 8
7 10 -24 10 -22 -1 -52 2 -67 6 -16 3 -28 3 -28 -1z"/>
<path d="M6667 4723 c-12 -12 -7 -22 8 -17 8 4 15 10 15 15 0 11 -14 12 -23 2z"/>
<path d="M6370 4680 c0 -12 12 -33 26 -47 26 -26 27 -26 40 -8 18 24 18 40 -2
59 -23 24 -64 21 -64 -4z"/>
<path d="M3394 4448 c3 -9 10 -35 16 -58 13 -48 64 -110 91 -110 10 0 19 5 19
11 0 5 5 7 10 4 7 -4 8 3 4 22 -9 39 -9 38 -70 79 -30 20 -59 43 -65 53 -10
15 -10 15 -5 -1z m116 -109 c0 -5 -4 -9 -10 -9 -5 0 -10 7 -10 16 0 8 5 12 10
9 6 -3 10 -10 10 -16z"/>
<path d="M3500 4264 c0 -6 9 -23 20 -37 12 -14 27 -43 35 -64 10 -27 14 -32
14 -16 1 12 -3 32 -8 45 -12 29 -60 87 -61 72z"/>
<path d="M6780 4400 c-25 -22 -53 -47 -62 -55 -16 -14 -26 -65 -13 -65 13 0
82 40 94 54 15 18 43 106 33 106 -4 0 -27 -18 -52 -40z"/>
<path d="M6678 4260 c-11 -38 -10 -56 3 -43 6 6 9 23 7 39 l-3 29 -7 -25z"/>
<path d="M6671 4176 c-6 -14 -7 -35 -2 -48 7 -18 9 -15 14 22 7 52 2 63 -12
26z"/>
<path d="M6721 4024 c0 -11 3 -14 6 -6 3 7 2 16 -1 19 -3 4 -6 -2 -5 -13z"/>
<path d="M3305 4580 c-4 -7 -1 -16 6 -21 17 -10 26 8 11 23 -6 6 -12 6 -17 -2z"/>
<path d="M6980 4560 c-8 -5 -10 -10 -5 -10 6 0 17 5 25 10 8 5 11 10 5 10 -5
0 -17 -5 -25 -10z"/>
<path d="M3390 4253 c0 -4 18 -32 40 -61 28 -37 40 -62 40 -86 0 -22 5 -33 15
-33 9 0 15 10 15 24 0 13 -6 23 -12 23 -10 0 -10 2 0 9 10 6 11 13 1 33 -11
26 -99 106 -99 91z"/>
<path d="M3484 4044 c3 -9 6 -18 6 -20 0 -2 5 -4 10 -4 6 0 10 9 10 20 0 12
-7 20 -16 20 -11 0 -14 -5 -10 -16z"/>
<path d="M6887 4182 c-25 -27 -21 -36 5 -12 12 11 19 22 16 25 -2 3 -12 -3
-21 -13z"/>
<path d="M5560 4223 c0 -11 191 -33 289 -33 34 0 71 -5 82 -10 14 -8 19 -7 19
2 0 22 -14 34 -40 35 -14 0 -98 4 -187 8 -108 5 -163 5 -163 -2z"/>
<path d="M5395 4200 c3 -5 8 -10 11 -10 2 0 4 5 4 10 0 6 -5 10 -11 10 -5 0
-7 -4 -4 -10z"/>
<path d="M7260 3984 l-25 -15 25 7 c28 7 35 12 29 18 -2 2 -15 -2 -29 -10z"/>
<path d="M6556 3301 c-4 -5 3 -7 14 -4 23 6 26 13 6 13 -8 0 -17 -4 -20 -9z"/>
<path d="M2724 3606 c-9 -37 19 -76 54 -76 75 0 62 81 -16 96 -27 6 -32 3 -38
-20z"/>
<path d="M2840 3554 c0 -8 5 -12 10 -9 6 4 8 11 5 16 -9 14 -15 11 -15 -7z"/>
<path d="M3015 3900 c3 -5 11 -10 16 -10 6 0 7 5 4 10 -3 6 -11 10 -16 10 -6
0 -7 -4 -4 -10z"/>
<path d="M1617 3060 c-62 -123 -71 -160 -14 -58 58 105 78 149 74 161 -2 6
-29 -40 -60 -103z"/>
<path d="M1105 3130 c-3 -5 -3 -10 2 -11 4 0 -5 -7 -22 -14 l-30 -14 33 -1
c28 0 32 3 32 25 0 27 -5 31 -15 15z"/>
<path d="M1347 2773 c-4 -3 -7 -11 -7 -17 0 -6 5 -5 12 2 6 6 9 14 7 17 -3 3
-9 2 -12 -2z"/>
<path d="M8440 3183 c0 -13 6 -25 71 -158 45 -92 44 -85 -7 40 -37 90 -64 140
-64 118z"/>
<path d="M732 2831 c-9 -5 -12 -24 -10 -56 l3 -49 28 43 c36 55 24 91 -21 62z"/>
<path d="M146 2466 c-5 -19 -11 -24 -24 -19 -15 6 -16 5 -2 -12 9 -11 10 -16
3 -11 -17 9 -17 -16 -1 -32 7 -7 19 -12 28 -12 12 1 11 4 -4 15 -17 13 -17 15
-3 15 11 0 14 5 10 18 -6 15 -5 16 13 2 17 -14 18 -14 6 2 -8 9 -11 21 -9 26
3 4 2 14 -2 21 -6 9 -10 5 -15 -13z"/>
<path d="M3507 1900 c-22 -99 -39 -211 -33 -217 7 -7 23 58 41 169 20 119 14
152 -8 48z"/>
<path d="M6651 1944 c-1 -40 34 -241 47 -274 8 -20 9 -13 5 30 -7 80 -32 226
-43 252 -8 21 -9 21 -9 -8z"/>
<path d="M9585 1720 c-8 -13 5 -13 25 0 13 8 13 10 -2 10 -9 0 -20 -4 -23 -10z"/>
<path d="M9534 1694 c9 -8 20 -12 26 -9 15 9 2 25 -21 25 -19 0 -19 -1 -5 -16z"/>
<path d="M9457 1663 c-14 -13 -7 -51 11 -58 45 -20 72 -10 72 27 0 21 -68 47
-83 31z"/>
<path d="M520 1684 c0 -9 5 -14 12 -12 18 6 21 28 4 28 -9 0 -16 -7 -16 -16z"/>
<path d="M567 1654 c-35 -19 -32 -44 6 -57 23 -7 31 -6 42 9 8 11 15 29 15 42
0 26 -22 28 -63 6z"/>
<path d="M1573 1553 c-7 -2 -13 -9 -13 -14 0 -14 24 -11 46 6 19 14 19 14 -1
14 -11 0 -26 -3 -32 -6z"/>
<path d="M1611 1514 c-16 -20 -18 -30 -10 -40 17 -21 47 -17 54 6 4 11 11 17
17 14 6 -4 8 3 6 17 -5 35 -41 36 -67 3z"/>
<path d="M1540 1401 c0 -6 9 -15 20 -21 13 -7 20 -7 20 -1 0 6 -9 15 -20 21
-13 7 -20 7 -20 1z"/>
<path d="M1605 1380 c-3 -5 -1 -10 4 -10 6 0 11 5 11 10 0 6 -2 10 -4 10 -3 0
-8 -4 -11 -10z"/>
<path d="M2711 1594 c-24 -30 -27 -54 -9 -72 31 -31 73 13 60 63 -11 39 -26
41 -51 9z"/>
<path d="M2610 1540 c-10 -6 -5 -9 18 -8 18 1 32 5 32 10 0 11 -31 10 -50 -2z"/>
<path d="M7474 1603 c-3 -10 -11 -31 -16 -46 -11 -30 -7 -39 19 -43 48 -7 67
36 37 81 -19 29 -32 32 -40 8z"/>
<path d="M7560 1544 c0 -8 5 -12 10 -9 6 4 8 11 5 16 -9 14 -15 11 -15 -7z"/>
<path d="M7415 1490 c3 -5 8 -10 11 -10 2 0 4 5 4 10 0 6 -5 10 -11 10 -5 0
-7 -4 -4 -10z"/>
<path d="M8680 1489 c0 -5 5 -7 10 -4 6 3 10 8 10 11 0 2 -4 4 -10 4 -5 0 -10
-5 -10 -11z"/>
<path d="M8437 1460 c-3 -11 -1 -20 4 -20 5 0 8 -6 7 -12 -2 -8 9 -14 25 -16
23 -3 27 0 27 20 0 45 -52 68 -63 28z"/>
<path d="M9331 594 c0 -11 3 -14 6 -6 3 7 2 16 -1 19 -3 4 -6 -2 -5 -13z"/>
<path d="M7620 1300 c0 -5 5 -10 10 -10 6 0 10 5 10 10 0 6 -4 10 -10 10 -5 0
-10 -4 -10 -10z"/>
<path d="M7625 1260 c-6 -10 1 -59 10 -68 3 -3 5 13 5 36 0 42 -4 50 -15 32z"/>
<path d="M2980 1030 c8 -5 26 -10 39 -10 32 0 24 6 -19 14 -25 4 -31 3 -20 -4z"/>
<path d="M1410 1129 c0 -5 9 -9 20 -9 11 0 20 2 20 4 0 2 -9 6 -20 9 -11 3
-20 1 -20 -4z"/>
<path d="M8182 680 c0 -14 2 -19 5 -12 2 6 2 18 0 25 -3 6 -5 1 -5 -13z"/>
<path d="M8910 1129 c0 -5 5 -7 10 -4 6 3 10 8 10 11 0 2 -4 4 -10 4 -5 0 -10
-5 -10 -11z"/>
<path d="M7065 710 c10 -11 23 -20 28 -20 6 0 2 9 -8 20 -10 11 -23 20 -28 20
-6 0 -2 -9 8 -20z"/>
<path d="M7050 690 c0 -5 5 -10 11 -10 5 0 7 5 4 10 -3 6 -8 10 -11 10 -2 0
-4 -4 -4 -10z"/>
<path d="M6926 615 c-9 -26 -7 -32 5 -12 6 10 9 21 6 23 -2 3 -7 -2 -11 -11z"/>
<path d="M6890 595 c0 -8 4 -15 10 -15 5 0 7 7 4 15 -4 8 -8 15 -10 15 -2 0
-4 -7 -4 -15z"/>
<path d="M6901 544 c0 -11 3 -14 6 -6 3 7 2 16 -1 19 -3 4 -6 -2 -5 -13z"/>
<path d="M3210 529 c0 -5 5 -7 10 -4 6 3 10 8 10 11 0 2 -4 4 -10 4 -5 0 -10
-5 -10 -11z"/>
<path d="M3892 998 c57 -118 144 -247 312 -463 30 -38 55 -75 56 -82 0 -6 4
-14 9 -18 15 -9 5 58 -13 93 -9 18 -52 78 -94 135 -43 56 -98 131 -122 167
-39 58 -159 210 -165 210 -2 0 6 -19 17 -42z"/>
<path d="M6247 996 c-15 -22 -49 -68 -75 -102 -102 -133 -250 -341 -271 -382
-22 -43 -19 -75 3 -38 15 25 47 67 143 190 121 153 240 342 231 366 -2 4 -16
-11 -31 -34z"/>
<path d="M9515 780 c-3 -5 1 -10 9 -10 9 0 16 5 16 10 0 6 -4 10 -9 10 -6 0
-13 -4 -16 -10z"/>
<path d="M9485 750 c-3 -5 -1 -10 4 -10 6 0 11 5 11 10 0 6 -2 10 -4 10 -3 0
-8 -4 -11 -10z"/>
<path d="M9441 684 c0 -11 3 -14 6 -6 3 7 2 16 -1 19 -3 4 -6 -2 -5 -13z"/>
<path d="M538 723 c7 -3 16 -2 19 1 4 3 -2 6 -13 5 -11 0 -14 -3 -6 -6z"/>
<path d="M9640 690 c19 -13 30 -13 30 0 0 6 -10 10 -22 10 -19 0 -20 -2 -8
-10z"/>
<path d="M8311 564 c0 -11 3 -14 6 -6 3 7 2 16 -1 19 -3 4 -6 -2 -5 -13z"/>
<path d="M8909 423 c-14 -21 -33 -55 -44 -76 -11 -21 -44 -68 -72 -104 -29
-37 -50 -69 -47 -72 10 -10 87 85 119 146 16 32 40 75 53 96 31 51 22 59 -9
10z"/>
<path d="M1620 545 c0 -8 2 -15 4 -15 2 0 6 7 10 15 3 8 1 15 -4 15 -6 0 -10
-7 -10 -15z"/>
<path d="M1351 474 c0 -11 3 -14 6 -6 3 7 2 16 -1 19 -3 4 -6 -2 -5 -13z"/>
<path d="M8715 500 c-4 -12 -5 -24 -2 -27 3 -2 8 5 12 17 4 12 5 24 2 27 -3 2
-8 -5 -12 -17z"/>
<path d="M3310 298 c-12 -22 -12 -22 6 -6 10 10 15 20 12 24 -4 3 -12 -5 -18
-18z"/>
<path d="M4437 364 c-4 -4 -7 -14 -7 -23 0 -11 3 -12 11 -4 6 6 10 16 7 23 -2
6 -7 8 -11 4z"/>
<path d="M4520 331 c0 -5 7 -12 16 -15 14 -5 15 -4 4 9 -14 17 -20 19 -20 6z"/>
<path d="M5726 317 c3 -10 9 -15 12 -12 3 3 0 11 -7 18 -10 9 -11 8 -5 -6z"/>
<path d="M505 310 c4 -6 11 -8 16 -5 14 9 11 15 -7 15 -8 0 -12 -5 -9 -10z"/>
<path d="M9560 310 c0 -5 5 -10 11 -10 5 0 7 5 4 10 -3 6 -8 10 -11 10 -2 0
-4 -4 -4 -10z"/>
<path d="M9515 300 c4 -6 -6 -10 -22 -11 -24 0 -25 -1 -8 -8 11 -5 26 -6 33
-4 15 6 16 33 1 33 -5 0 -7 -4 -4 -10z"/>
<path d="M9541 284 c0 -11 3 -14 6 -6 3 7 2 16 -1 19 -3 4 -6 -2 -5 -13z"/>
<path d="M2188 233 c7 -3 16 -2 19 1 4 3 -2 6 -13 5 -11 0 -14 -3 -6 -6z"/>
<path d="M10020 2610 c0 -5 7 -7 15 -4 8 4 15 8 15 10 0 2 -7 4 -15 4 -8 0
-15 -4 -15 -10z"/>
<path d="M10231 2584 c0 -11 3 -14 6 -6 3 7 2 16 -1 19 -3 4 -6 -2 -5 -13z"/>
<path d="M504 1079 c-19 -22 -19 -22 3 -10 24 12 39 31 25 31 -5 0 -17 -10
-28 -21z"/>
<path d="M0 338 c0 -23 4 -25 113 -36 61 -7 131 -15 155 -19 73 -10 47 13 -30
27 -80 14 -193 37 -220 46 -14 4 -18 0 -18 -18z"/>
<path d="M9718 293 c6 -2 18 -2 25 0 6 3 1 5 -13 5 -14 0 -19 -2 -12 -5z"/>
</g>
</svg>
