<?xml version="1.0" standalone="no"?>
<!DOCTYPE svg PUBLIC "-//W3C//DTD SVG 20010904//EN"
 "http://www.w3.org/TR/2001/REC-SVG-20010904/DTD/svg10.dtd">
<svg version="1.0" xmlns="http://www.w3.org/2000/svg"
 width="564.000000pt" height="736.000000pt" viewBox="0 0 564.000000 736.000000"
 preserveAspectRatio="xMidYMid meet">

<g transform="translate(0.000000,736.000000) scale(0.100000,-0.100000)"
fill="#000000" stroke="none">
<path d="M2840 7080 c-4 -48 -16 -85 -44 -142 -43 -87 -42 -95 10 -169 18 -26
40 -69 48 -96 13 -43 15 -45 15 -16 1 33 -30 116 -47 127 -6 3 -13 27 -17 54
-5 38 -1 57 20 104 22 48 25 68 23 130 l-3 73 -5 -65z"/>
<path d="M2736 6818 c-13 -49 -6 -96 18 -125 52 -63 61 -122 25 -180 -25 -40
-18 -56 12 -27 29 29 37 120 14 163 -9 18 -14 38 -12 45 3 6 -4 22 -14 35 -18
22 -29 8 -11 -15 4 -5 -1 -1 -11 10 -14 15 -16 28 -11 67 7 51 1 66 -10 27z"/>
<path d="M2872 6528 c-1 -25 -11 -68 -23 -95 -32 -74 -27 -135 20 -246 66
-155 65 -239 -5 -313 -46 -49 -86 -134 -92 -194 -5 -58 13 -95 83 -170 29 -30
60 -69 69 -87 18 -35 22 -108 6 -118 -13 -8 -13 -100 1 -148 6 -21 19 -47 30
-58 11 -11 24 -31 29 -44 5 -13 26 -33 47 -44 38 -19 153 -125 153 -140 0 -16
48 -40 90 -45 71 -8 138 -86 146 -169 6 -62 14 -57 14 9 -1 65 -18 125 -46
155 -10 11 -12 19 -6 19 7 0 12 -4 12 -9 0 -6 23 -33 50 -62 28 -29 50 -61 50
-73 0 -12 -13 -45 -29 -73 -28 -51 -29 -55 -16 -100 7 -27 23 -70 35 -98 19
-41 23 -69 24 -151 1 -91 3 -104 26 -135 25 -33 30 -79 9 -79 -6 0 -7 -5 -4
-10 13 -20 -6 -47 -45 -64 -41 -18 -90 -84 -90 -121 0 -28 -49 -105 -66 -105
-8 0 -12 -4 -9 -10 6 -9 -10 -14 -42 -13 -7 1 -13 -4 -13 -9 0 -6 13 -8 30 -6
36 5 26 -10 -27 -43 -19 -12 -32 -24 -29 -27 6 -5 44 24 114 85 34 31 45 50
57 97 18 68 48 121 77 137 25 13 35 4 18 -16 -7 -9 -10 -18 -6 -22 3 -3 6 0 7
8 0 8 4 5 8 -6 7 -17 9 -16 15 13 5 21 14 32 25 32 9 0 27 7 39 16 22 15 23
15 17 -13 -4 -15 -8 -34 -11 -40 -2 -7 1 -13 6 -13 5 0 14 18 20 40 15 57 46
74 118 66 175 -21 193 -20 261 13 45 21 73 28 95 25 24 -4 28 -3 16 5 -26 19
-82 12 -129 -16 l-45 -26 -108 13 c-59 7 -126 10 -148 6 -39 -6 -40 -5 -35 17
4 15 -1 32 -16 50 -32 42 -19 41 35 -2 63 -50 100 -55 194 -30 93 25 152 66
187 131 15 28 36 53 46 55 10 3 16 9 13 14 -5 9 24 14 65 10 39 -4 79 -29 93
-58 7 -16 23 -32 36 -38 12 -5 22 -13 22 -17 0 -5 7 -8 15 -8 8 0 15 -4 15 -8
0 -10 40 -30 85 -43 88 -26 294 -16 359 18 17 9 48 30 69 47 36 28 44 30 135
33 93 4 257 31 246 42 -2 3 -40 6 -82 7 -43 1 -96 7 -118 13 -47 13 -194 14
-227 2 -13 -5 -41 -28 -63 -51 -68 -74 -77 -81 -85 -69 -4 7 -16 10 -27 7 -10
-3 -27 -1 -37 5 -15 8 -17 7 -12 -7 6 -16 -8 -24 -15 -8 -3 9 -100 43 -106 38
-1 -2 12 -13 30 -24 18 -12 35 -17 38 -13 3 5 11 3 18 -5 10 -11 10 -14 0 -15
-29 -3 -65 4 -93 16 -16 7 -40 16 -53 20 -12 4 -20 11 -16 16 3 5 0 8 -8 7 -7
-2 -12 2 -11 8 1 7 -20 33 -47 58 -54 51 -139 96 -180 96 -41 -1 -101 -35
-165 -96 -33 -31 -54 -53 -46 -49 9 5 12 3 9 -6 -3 -8 -9 -14 -14 -14 -16 0
-54 -31 -47 -38 3 -4 16 1 27 10 20 17 20 17 6 0 -22 -29 -91 -60 -136 -61
-42 -1 -90 27 -78 45 3 5 -2 9 -10 9 -8 0 -21 9 -29 21 -11 15 -16 17 -20 7
-3 -10 -11 -8 -33 8 -32 23 -42 57 -24 80 10 11 9 14 -8 14 -25 0 -32 -17 -25
-69 5 -35 3 -41 -11 -35 -17 7 -19 16 -21 134 -1 41 -5 107 -8 145 -5 48 -2
89 8 130 15 58 15 80 0 118 -11 27 2 20 57 -30 40 -37 47 -41 31 -18 -36 53
-103 203 -103 232 0 15 -4 23 -8 17 -9 -14 -52 0 -52 16 0 6 5 8 12 4 7 -4 8
-3 4 4 -4 6 -2 22 4 34 11 22 11 22 -5 3 -22 -27 -52 -27 -107 2 -57 30 -70
45 -70 79 0 44 37 68 111 71 l66 3 -52 -16 c-62 -19 -103 -54 -103 -86 0 -21
2 -20 20 9 11 19 31 35 47 39 15 4 33 11 40 16 6 5 42 11 80 14 47 3 62 1 48
-5 -19 -9 -19 -10 3 -10 20 -1 18 -4 -18 -37 -23 -21 -40 -45 -40 -58 0 -17 2
-18 10 -6 5 8 10 10 10 5 0 -6 -4 -15 -10 -21 -6 -6 -3 -14 10 -22 18 -11 20
-10 20 13 0 35 25 82 53 97 12 6 50 17 85 24 53 10 61 10 51 -2 -6 -8 -30 -17
-52 -21 -46 -7 -99 -49 -117 -93 -17 -40 -9 -140 14 -175 24 -36 32 -24 12 19
-31 65 -14 153 38 193 14 11 46 24 70 27 48 7 89 44 122 108 17 33 14 95 -8
171 -9 28 -8 43 2 65 l13 27 8 -31 c10 -35 57 -62 86 -49 17 7 16 8 -2 13 -31
7 -45 22 -45 51 0 42 46 100 97 122 63 27 101 56 119 91 22 43 10 46 -16 4
-12 -20 -27 -36 -33 -36 -7 0 -49 -22 -95 -48 -66 -39 -88 -58 -116 -101 -36
-59 -53 -51 -33 14 11 37 71 104 94 106 24 3 28 5 98 51 76 50 88 65 104 125
6 22 27 57 47 77 20 20 34 39 31 42 -9 10 -78 -59 -98 -97 -34 -68 -79 -109
-170 -155 -71 -35 -99 -44 -140 -44 -45 0 -50 -2 -39 -15 10 -12 9 -15 -8 -15
-14 0 -27 -14 -42 -46 -19 -38 -22 -56 -16 -108 4 -37 2 -75 -5 -94 -18 -53
-127 -120 -172 -106 -45 14 -148 3 -205 -22 -40 -17 -66 -23 -91 -19 -19 3
-32 2 -28 -1 4 -4 -1 -16 -10 -27 -17 -19 -17 -19 5 -13 18 6 28 1 50 -24 103
-121 99 -117 157 -122 61 -5 73 -11 57 -30 -6 -8 -34 -13 -72 -13 -52 0 -65 4
-80 23 -10 12 -21 22 -24 22 -18 0 -147 94 -182 132 -65 71 -68 127 -10 213
14 21 26 50 26 64 0 33 -39 107 -80 151 -39 41 -56 74 -65 123 -4 20 -11 39
-15 42 -4 2 -3 -16 1 -42 10 -51 66 -158 98 -187 11 -10 23 -34 27 -52 5 -27
1 -40 -20 -64 -42 -50 -47 -140 -13 -209 9 -17 14 -31 11 -31 -12 0 -56 87
-66 129 -10 44 -9 55 10 100 35 81 27 117 -51 214 -15 19 -37 61 -48 93 -20
56 -21 99 -6 185 1 9 22 38 45 65 l42 49 -15 -37 c-8 -21 -15 -54 -15 -75 1
-33 5 -27 32 52 54 153 42 259 -37 344 -48 53 -54 66 -61 137 -3 35 1 66 11
92 10 25 15 59 12 93 l-3 54 -2 -47z m87 -453 c0 -13 -5 -8 -14 15 -18 46 -18
61 0 30 8 -14 14 -34 14 -45z m-120 -326 c-8 -37 -6 -62 9 -125 11 -44 18 -81
16 -83 -2 -2 -13 17 -24 43 -22 53 -26 135 -9 185 16 45 19 35 8 -20z m966
-229 c3 -6 -3 -22 -14 -36 -12 -15 -21 -35 -21 -44 0 -13 -6 -17 -20 -13 -29
8 -25 21 16 59 38 36 38 44 -1 18 -22 -15 -23 -14 -18 5 6 22 46 30 58 11z
m-99 -87 c-4 -32 -3 -43 4 -33 14 22 20 8 21 -52 2 -57 -15 -108 -25 -78 -8
27 -16 177 -10 194 12 31 17 16 10 -31z m-728 -48 c-3 -3 -9 2 -12 12 -6 14
-5 15 5 6 7 -7 10 -15 7 -18z m817 -77 c11 -35 15 -89 6 -83 -5 2 -11 19 -14
37 -3 18 -8 41 -12 51 -4 9 -3 17 3 17 5 0 13 -10 17 -22z m-16 -109 c1 -52
-17 -71 -81 -79 -31 -5 -65 -11 -77 -15 -12 -4 -21 -2 -21 4 0 6 20 16 45 22
50 13 91 53 101 97 11 52 16 59 24 32 5 -14 8 -41 9 -61z m-123 -6 c-20 -18
-46 -33 -58 -33 -19 0 -16 4 18 25 22 13 46 37 54 52 12 25 14 26 18 8 3 -13
-8 -30 -32 -52z m-391 -93 c-3 -5 -15 -10 -25 -10 -10 0 -22 5 -25 10 -4 6 7
10 25 10 18 0 29 -4 25 -10z m-15 -30 c0 -5 -2 -10 -4 -10 -3 0 -8 5 -11 10
-3 6 -1 10 4 10 6 0 11 -4 11 -10z m-49 -124 c20 -9 40 -23 43 -31 3 -9 26
-25 51 -36 25 -11 45 -22 45 -24 0 -9 -78 9 -117 27 -44 20 -62 46 -41 60 9 6
7 8 -7 4 -14 -4 -24 1 -33 14 -11 18 -10 19 5 11 10 -5 34 -16 54 -25z m183
15 c3 -4 -6 -6 -19 -3 -14 2 -25 6 -25 8 0 8 39 4 44 -5z m90 -77 c40 -34 55
-57 67 -97 l9 -32 -38 40 c-67 71 -96 115 -76 115 3 0 20 -12 38 -26z m-89
-14 c-3 -5 -11 -10 -16 -10 -6 0 -7 5 -4 10 3 6 11 10 16 10 6 0 7 -4 4 -10z
m35 -21 c0 -6 -4 -7 -10 -4 -5 3 -10 11 -10 16 0 6 5 7 10 4 6 -3 10 -11 10
-16z m35 -29 c3 -5 1 -10 -4 -10 -6 0 -11 5 -11 10 0 6 2 10 4 10 3 0 8 -4 11
-10z m46 -233 c-8 -8 -11 -7 -11 4 0 20 13 34 18 19 3 -7 -1 -17 -7 -23z m20
-101 c15 -16 10 -30 -5 -17 -18 15 -29 58 -19 74 5 7 9 1 11 -18 2 -16 8 -34
13 -39z m812 -229 c43 -46 28 -40 -28 11 -27 25 -39 39 -25 32 14 -7 38 -27
53 -43z m602 -9 c-22 -6 -63 -28 -91 -49 -61 -47 -73 -50 -36 -10 31 35 106
71 142 70 18 -1 14 -4 -15 -11z m133 5 c-10 -2 -26 -2 -35 0 -10 3 -2 5 17 5
19 0 27 -2 18 -5z m-1052 -31 c-8 -15 -24 -36 -37 -47 -25 -22 -19 -8 19 43
30 39 37 41 18 4z m309 -10 c-6 -7 -35 18 -35 31 0 5 9 2 20 -8 11 -10 18 -20
15 -23z m105 -49 c0 -8 -38 17 -51 33 -9 11 -2 9 19 -6 17 -13 32 -25 32 -27z
m-860 -8 c7 -8 8 -15 2 -15 -5 0 -15 7 -22 15 -7 8 -8 15 -2 15 5 0 15 -7 22
-15z m45 -45 c16 -32 19 -50 8 -50 -9 0 -33 49 -33 67 0 21 8 15 25 -17z
m1028 23 c-7 -2 -21 -2 -30 0 -10 3 -4 5 12 5 17 0 24 -2 18 -5z m-1049 -97
c-3 -8 -12 -17 -20 -20 -11 -4 -13 1 -8 22 11 53 15 59 25 34 4 -12 6 -28 3
-36z"/>
<path d="M3770 6307 c-8 -18 -19 -32 -25 -32 -5 0 -26 -10 -45 -22 -19 -11
-53 -23 -75 -26 -95 -12 -148 -44 -171 -103 -24 -63 -10 -67 17 -5 19 44 31
58 42 49 2 -2 14 4 27 13 14 9 45 19 70 23 80 12 191 90 179 124 -2 6 -11 -4
-19 -21z"/>
<path d="M2795 6218 c1 -54 9 -88 29 -131 29 -64 33 -119 11 -157 -19 -33 -31
-59 -40 -89 -6 -20 0 -17 34 17 50 52 57 65 66 122 6 40 2 54 -33 120 -22 42
-42 97 -46 125 -10 78 -24 74 -21 -7z"/>
<path d="M1962 6210 c0 -14 2 -19 5 -12 2 6 2 18 0 25 -3 6 -5 1 -5 -13z"/>
<path d="M3720 6175 c-19 -19 -40 -35 -47 -35 -24 0 -87 -37 -116 -68 -20 -21
-30 -43 -33 -73 l-4 -44 14 49 c16 55 47 85 121 116 29 12 62 35 78 55 36 45
30 45 -13 0z"/>
<path d="M1961 6130 c-1 -50 40 -100 112 -138 137 -70 237 -254 237 -436 0
-88 19 -185 42 -210 10 -10 15 -24 11 -29 -3 -6 -1 -7 4 -4 6 4 22 -3 37 -14
38 -30 32 -11 -8 26 -43 39 -66 113 -66 210 0 83 -28 201 -64 272 -43 87 -122
170 -191 202 -64 31 -87 55 -103 112 -9 29 -10 30 -11 9z"/>
<path d="M3416 5980 c-6 -42 -4 -62 8 -85 20 -37 22 -129 4 -122 -8 2 -12 19
-11 43 1 21 -1 50 -4 64 -5 21 -7 18 -13 -20 -8 -53 5 -110 25 -110 25 0 17
-34 -24 -96 -43 -67 -80 -103 -131 -131 -19 -11 -54 -43 -77 -72 -35 -42 -43
-59 -43 -92 0 -42 24 -95 47 -103 21 -9 15 12 -9 29 -19 12 -23 25 -23 65 0
28 6 54 14 62 11 11 12 3 7 -52 l-5 -65 13 42 c17 54 53 98 96 122 33 17 54
48 137 209 9 17 19 32 22 32 12 0 12 117 0 161 -6 24 -14 73 -18 109 l-7 65
-8 -55z m-66 -439 c-6 -12 -22 -29 -37 -38 -14 -9 -45 -38 -69 -63 -24 -25
-44 -39 -44 -31 0 7 17 30 38 49 20 20 31 33 25 28 -7 -4 -13 -3 -13 1 0 5 16
17 35 27 19 10 42 27 51 38 21 23 29 17 14 -11z"/>
<path d="M1310 5810 c-7 -4 -8 -9 -2 -11 5 -2 19 -22 31 -44 11 -22 21 -36 21
-31 0 4 20 -18 44 -51 49 -64 148 -162 143 -141 -2 7 -2 10 0 6 7 -11 95 -54
138 -67 65 -20 135 -53 129 -63 -3 -5 0 -7 8 -6 7 2 12 -2 11 -9 -2 -7 3 -10
11 -7 17 7 72 -56 57 -66 -7 -4 -4 -21 10 -49 24 -50 24 -54 14 -143 -10 -86
-3 -108 46 -162 54 -58 118 -85 206 -88 130 -3 193 31 219 117 17 61 23 67 79
75 l40 7 -28 11 c-44 19 -76 -2 -118 -78 -19 -36 -40 -64 -46 -63 -6 1 -33 -8
-59 -21 -48 -23 -49 -23 -92 -5 -53 23 -62 24 -36 3 18 -15 18 -15 -6 -10 -14
4 -37 9 -52 12 -15 4 -34 14 -42 23 -20 22 -46 124 -46 181 0 45 -20 119 -46
169 -7 13 -11 28 -9 31 3 4 -21 32 -53 62 -53 51 -143 98 -187 98 -8 0 -40 16
-72 35 -32 19 -62 35 -68 35 -13 0 -136 126 -165 170 -45 66 -67 88 -80 80z
m660 -721 c5 -77 5 -78 -14 -60 -16 17 -18 28 -11 86 4 37 10 64 13 60 4 -4 9
-42 12 -86z"/>
<path d="M3502 5759 c11 -51 6 -121 -13 -164 l-13 -30 -6 50 -7 50 -2 -55 c-1
-30 -5 -60 -9 -66 -4 -6 -33 -30 -65 -53 -88 -64 -120 -135 -83 -183 23 -31
75 -18 97 25 10 18 7 17 -14 -5 -33 -35 -57 -36 -57 -4 0 14 -5 28 -11 32 -8
4 -9 -1 -5 -17 6 -21 5 -21 -4 -6 -8 13 -8 27 0 51 13 41 64 91 81 81 8 -5 10
-4 5 3 -4 7 -3 12 1 12 20 0 93 85 109 126 18 48 15 167 -4 186 -7 7 -7 -3 0
-33z"/>
<path d="M2740 5746 c-27 -82 -7 -180 67 -326 36 -72 37 -79 37 -175 0 -84 -3
-107 -23 -147 -32 -67 -97 -105 -188 -113 -43 -4 -102 -19 -158 -41 -78 -31
-95 -42 -128 -85 -23 -29 -33 -49 -25 -49 15 0 53 39 53 54 0 5 6 11 14 14 9
3 11 0 6 -9 -4 -8 8 1 27 19 46 44 137 75 193 66 45 -6 112 12 163 44 18 12
42 13 110 8 48 -3 101 -8 117 -11 l30 -5 -30 14 c-16 8 -54 18 -82 21 -29 4
-53 12 -53 17 0 5 -4 6 -10 3 -15 -9 -12 1 10 37 39 64 16 282 -36 343 -13 15
-24 34 -24 40 0 7 -7 18 -15 25 -8 7 -25 43 -37 81 -20 63 -21 76 -11 136 13
76 11 91 -7 39z m129 -599 c-7 -32 -20 -64 -31 -74 -20 -18 -20 -18 -4 17 8
19 20 55 26 79 16 61 22 45 9 -22z"/>
<path d="M1474 5540 c-5 -5 -22 -10 -39 -13 -27 -4 -26 -4 8 -6 21 0 47 -6 59
-12 26 -14 52 -75 49 -119 -2 -24 5 -45 20 -64 23 -30 31 -30 134 -10 25 5 39
-1 71 -28 36 -29 84 -88 84 -103 0 -2 -20 -27 -45 -55 -25 -28 -46 -61 -47
-73 -5 -77 21 -132 78 -168 31 -19 44 -21 97 -15 34 4 70 8 80 9 9 1 17 5 17
9 0 4 -24 8 -53 8 -58 0 -74 11 -110 77 -23 41 -22 84 4 156 19 53 20 66 10
112 -18 82 -104 152 -215 175 -45 9 -65 21 -108 61 -62 59 -82 71 -94 59z
m106 -148 c0 -22 25 -47 60 -61 l25 -10 -28 0 c-33 -1 -77 38 -77 69 0 11 5
20 10 20 6 0 10 -8 10 -18z m115 -12 c69 -7 114 -28 144 -66 31 -39 16 -43
-22 -6 -41 39 -75 52 -142 52 -45 0 -56 4 -66 22 -10 19 -9 20 7 13 11 -5 46
-11 79 -15z m88 -66 c21 -14 36 -28 34 -31 -3 -2 -24 9 -48 26 -51 37 -39 42
14 5z m56 -226 c-15 -55 3 -114 58 -179 l28 -33 -34 20 c-77 45 -110 131 -72
192 26 41 32 41 20 0z"/>
<path d="M2224 5456 c6 -46 46 -111 78 -126 19 -9 21 -9 8 2 -34 30 -54 61
-72 110 -18 50 -19 51 -14 14z"/>
<path d="M2695 5425 c3 -22 20 -60 38 -85 27 -38 32 -53 31 -100 0 -31 -8 -69
-18 -88 -21 -40 -102 -101 -136 -102 -47 0 -164 -48 -184 -74 -29 -38 -16 -39
38 -3 44 28 60 32 140 37 50 3 104 12 121 20 42 21 73 72 80 134 9 67 -7 127
-50 191 -18 28 -40 64 -49 80 l-17 30 6 -40z"/>
<path d="M3346 5409 c-14 -23 -24 -44 -21 -47 6 -6 6 -7 34 42 30 52 21 56
-13 5z"/>
<path d="M838 5360 c44 -68 62 -106 62 -134 0 -14 4 -27 8 -30 14 -8 -3 76
-21 109 -9 17 -30 46 -48 65 l-31 35 30 -45z"/>
<path d="M1870 5342 c6 -13 14 -21 18 -18 3 4 -2 14 -12 24 -18 16 -18 16 -6
-6z"/>
<path d="M1953 5312 c25 -27 55 -102 63 -157 15 -109 87 -184 193 -201 36 -6
46 -3 68 17 37 35 43 59 25 94 l-15 30 -9 -31 c-15 -60 -88 -80 -156 -44 -60
32 -78 65 -97 171 -8 43 -61 139 -77 139 -6 0 -4 -7 5 -18z"/>
<path d="M4620 5210 c-8 -5 -10 -10 -5 -10 6 0 17 5 25 10 8 5 11 10 5 10 -5
0 -17 -5 -25 -10z"/>
<path d="M4544 5170 c-43 -31 -67 -74 -84 -155 -6 -27 -23 -68 -37 -91 -29
-46 -102 -99 -148 -108 -34 -7 -119 4 -215 29 -101 26 -196 5 -230 -49 -28
-47 -25 -58 5 -14 13 19 39 41 56 47 48 17 135 13 219 -9 41 -11 95 -20 120
-20 112 1 232 107 246 218 8 62 40 119 85 151 23 17 38 31 33 31 -5 -1 -27
-14 -50 -30z"/>
<path d="M914 5142 c8 -16 31 -48 50 -71 40 -47 47 -64 16 -36 -11 10 -23 15
-27 11 -16 -16 145 -85 198 -86 56 0 159 12 159 19 0 4 -32 5 -70 3 -39 -2
-96 -1 -126 3 -52 6 -61 12 -109 61 -29 30 -61 70 -71 89 -10 19 -22 35 -27
35 -4 0 -1 -13 7 -28z"/>
<path d="M4341 4978 c-35 -40 -107 -78 -148 -78 -13 0 -60 10 -105 21 -100 26
-174 21 -230 -16 -46 -30 -86 -88 -93 -135 -5 -31 -3 -28 23 22 32 63 77 112
94 102 7 -5 8 -2 3 6 -6 9 -2 10 15 5 17 -5 21 -4 15 6 -6 9 -3 11 8 6 10 -3
17 -2 17 4 0 13 92 4 121 -12 32 -17 142 -23 182 -10 37 13 115 71 130 98 17
28 2 19 -32 -19z"/>
<path d="M2764 4966 c-64 -20 -136 -63 -180 -104 -8 -8 -22 -11 -32 -9 -16 4
-16 5 1 6 9 0 17 8 17 16 0 19 -5 19 -33 1 -12 -8 -39 -17 -59 -20 -59 -11
-126 -64 -169 -134 l-38 -64 -7 36 c-3 20 -10 36 -14 36 -4 0 -10 9 -13 20 -3
11 -10 20 -16 20 -8 0 -9 -6 -3 -17 5 -10 9 -34 11 -53 2 -41 -26 -75 -104
-124 -30 -18 -56 -44 -64 -62 l-14 -32 -23 27 c-13 14 -24 21 -24 14 0 -6 5
-15 10 -18 16 -10 11 -48 -9 -74 -12 -16 -31 -25 -63 -28 -41 -5 -48 -3 -63
21 -16 23 -23 26 -80 26 -55 0 -67 -4 -105 -32 -107 -82 -134 -100 -156 -102
-13 -2 -27 -6 -31 -9 -3 -4 -28 -7 -55 -7 -40 0 -54 5 -85 34 -21 18 -46 34
-55 34 -63 4 -91 3 -98 -4 -5 -5 11 -9 35 -10 31 -1 58 -10 95 -34 54 -35 150
-63 178 -52 10 3 37 18 62 33 25 15 63 30 85 33 53 9 131 -9 170 -38 16 -13
44 -31 60 -40 18 -10 22 -15 10 -12 -11 2 -47 7 -80 11 -55 5 -66 3 -135 -31
-49 -24 -69 -39 -57 -41 23 -6 87 15 111 36 26 23 96 19 140 -8 39 -24 66 -66
66 -101 0 -20 -4 -18 -42 14 -74 64 -162 71 -253 21 -144 -81 -242 -75 -350
21 -34 30 -36 34 -15 29 14 -4 34 -18 45 -30 29 -33 56 -44 122 -49 64 -5 164
27 144 47 -7 7 -20 6 -40 -3 -42 -17 -141 -9 -177 15 l-29 19 37 6 c20 4 43
12 51 18 8 7 18 8 22 4 5 -4 5 -2 2 5 -4 6 -1 13 5 16 7 2 10 7 7 11 -3 3 -24
-3 -47 -14 -53 -26 -55 -25 -94 9 -18 15 -43 31 -55 35 -30 10 -79 -17 -98
-54 -8 -16 -25 -35 -38 -41 -12 -7 -35 -23 -50 -35 -23 -19 -39 -24 -80 -23
l-52 2 41 6 c71 12 130 55 166 121 18 32 42 63 53 69 18 9 17 10 -9 10 -21 1
-38 -10 -67 -41 -22 -24 -39 -46 -39 -50 0 -14 -44 -48 -61 -48 -9 0 -36 16
-59 35 -73 61 -115 59 -189 -10 -62 -58 -89 -64 -138 -31 -44 30 -52 31 -79
10 -19 -15 -19 -15 2 -9 13 3 26 -1 34 -10 10 -12 9 -15 -6 -16 -15 0 -15 -2
-4 -6 8 -4 27 -19 42 -35 32 -34 61 -36 99 -3 16 13 36 22 44 19 8 -4 15 -1
15 4 0 17 35 23 63 13 14 -6 45 -27 68 -48 56 -51 105 -51 173 -2 71 50 94 61
117 54 25 -8 73 -80 64 -95 -11 -17 32 -57 81 -76 60 -23 138 -15 189 20 22
16 63 39 90 53 28 14 57 32 66 40 13 11 21 11 43 2 14 -7 26 -18 26 -26 0 -18
17 -16 24 3 7 19 -10 43 -38 53 -34 13 -139 -35 -251 -114 -55 -38 -143 -19
-182 38 -32 46 -30 64 3 42 45 -29 136 -56 168 -49 16 3 72 28 124 55 102 53
146 60 205 35 66 -28 125 -123 107 -171 -13 -34 -13 -35 5 -29 8 4 15 13 15
22 0 13 4 11 16 -6 21 -31 85 -61 141 -68 70 -8 93 -13 90 -22 -3 -10 56 -102
67 -102 5 0 3 7 -4 15 -7 8 -9 15 -4 15 4 0 -7 16 -26 35 -19 19 -29 35 -24
35 19 0 65 -57 68 -83 1 -14 7 -32 13 -39 24 -31 24 -41 1 -20 -13 12 -27 20
-30 17 -3 -3 -21 16 -41 44 -38 53 -65 66 -152 74 -61 6 -31 -9 37 -18 49 -6
88 -32 88 -59 0 -9 5 -16 11 -16 5 0 8 -4 4 -9 -3 -6 4 -15 15 -21 11 -6 20
-16 20 -23 0 -7 -4 -6 -10 3 -5 8 -10 10 -10 4 0 -6 7 -17 15 -24 30 -25 14
-28 -28 -5 -23 13 -66 49 -96 80 -36 37 -77 66 -120 87 -73 33 -91 57 -91 118
0 39 -20 74 -53 91 -19 11 -18 8 6 -20 20 -24 27 -43 27 -74 0 -64 27 -108 85
-138 34 -17 60 -40 81 -72 51 -77 119 -122 153 -100 12 8 29 1 79 -34 34 -25
68 -46 75 -47 7 -1 30 -13 51 -26 22 -14 52 -32 67 -41 50 -28 59 -40 59 -77
0 -34 1 -35 16 -20 19 19 14 54 -13 85 -10 11 -47 34 -83 51 -87 42 -152 92
-178 136 -26 44 -17 46 27 6 18 -17 36 -28 40 -25 5 2 17 -3 27 -11 19 -15 19
-15 0 -10 -16 6 -17 4 -6 -9 7 -9 19 -14 26 -11 8 3 13 1 11 -5 -1 -5 21 -22
48 -37 28 -15 52 -30 55 -34 8 -10 62 -13 120 -4 96 13 136 -23 102 -94 -19
-39 -30 -39 -24 1 9 62 -72 105 -113 59 -21 -23 -14 -26 15 -8 31 20 74 -8 78
-49 3 -26 -5 -40 -38 -75 -52 -56 -84 -120 -76 -154 10 -38 44 -80 89 -110 55
-36 56 -24 3 23 -25 22 -48 51 -51 66 -12 48 20 119 85 184 56 56 60 63 60
106 0 38 -5 49 -27 67 -24 19 -38 21 -98 18 -53 -2 -81 2 -112 16 -24 10 -40
22 -38 27 3 4 0 11 -6 15 -8 4 -9 3 -5 -4 10 -17 1 -15 -45 8 -37 19 -66 61
-54 80 3 4 -3 7 -13 6 -11 -1 -26 17 -44 53 -14 30 -40 66 -56 80 -16 15 -38
39 -48 54 l-17 29 36 -25 c58 -39 197 -169 197 -183 0 -8 5 -14 11 -14 41 0
-46 102 -171 202 -25 20 -55 53 -65 74 -11 22 -23 40 -27 42 -4 2 -4 10 -1 18
3 8 1 14 -4 14 -14 0 -3 61 16 90 11 17 12 22 2 16 -10 -7 -11 -3 -5 15 9 30
9 32 -6 104 -25 120 -25 114 9 145 21 20 31 38 30 57 l-1 28 -9 -27 c-6 -15
-25 -36 -44 -47 -37 -21 -45 -48 -32 -99 7 -27 5 -36 -9 -46 -9 -7 -14 -18
-10 -24 3 -6 -14 -50 -39 -98 -47 -92 -57 -152 -34 -196 8 -15 8 -19 0 -14
-20 13 -42 67 -57 139 -11 56 -21 77 -42 94 l-27 23 32 0 c64 0 126 40 130 86
1 11 6 31 11 45 5 13 9 26 9 29 0 10 46 95 58 105 18 16 69 84 85 115 14 28
15 25 15 -63 0 -86 -2 -94 -29 -129 -33 -44 -22 -51 16 -10 34 36 42 65 39
134 -4 72 16 114 89 190 48 52 62 61 115 73 66 15 107 32 174 71 37 22 54 26
124 25 120 -1 153 -15 265 -109 30 -25 93 -65 140 -89 48 -25 102 -59 119 -77
31 -30 33 -37 37 -120 2 -48 9 -92 14 -99 5 -7 12 -25 16 -40 4 -16 16 -31 29
-36 18 -7 25 -22 35 -70 l13 -62 -36 -58 c-49 -79 -59 -124 -34 -152 23 -26
17 -38 -51 -104 l-51 -50 7 39 c5 28 4 37 -5 32 -6 -4 -11 -17 -11 -30 0 -35
-56 -115 -92 -130 -18 -8 -49 -21 -68 -29 -59 -26 -102 -29 -178 -13 -99 22
-102 21 -157 -21 -46 -36 -52 -38 -119 -37 -68 1 -90 7 -146 39 -33 19 -38 10
-10 -20 32 -34 124 -67 192 -68 43 0 70 7 115 29 52 26 69 29 164 30 111 2
167 18 226 64 33 26 43 25 35 -2 -3 -14 -2 -19 6 -14 7 4 12 13 12 19 0 7 9
18 20 25 11 7 20 19 20 26 0 8 27 43 60 77 57 59 78 86 45 59 -21 -18 -19 -7
5 20 11 13 20 19 20 14 0 -24 29 40 48 106 31 107 32 109 17 186 -7 37 -10 74
-8 82 3 7 -1 20 -8 30 -37 45 -53 90 -55 150 -2 51 -7 71 -31 103 -15 23 -44
65 -63 95 -43 66 -71 87 -135 103 -56 14 -103 40 -155 87 -81 73 -186 100
-276 70z m390 -161 c47 -14 65 -28 66 -49 0 -4 -7 -6 -14 -3 -11 4 -13 1 -10
-11 3 -9 -10 0 -30 21 -20 20 -40 37 -46 37 -5 0 -12 5 -15 10 -8 13 -10 13
49 -5z m123 -49 c15 -13 24 -28 20 -32 -4 -4 -22 6 -40 24 -37 37 -21 43 20 8z
m-37 -26 c0 -5 -2 -10 -4 -10 -3 0 -8 5 -11 10 -3 6 -1 10 4 10 6 0 11 -4 11
-10z m-1085 -160 c-10 -16 -65 -52 -65 -42 0 6 15 19 33 31 36 23 41 25 32 11z
m-73 -92 c-7 -7 -12 -8 -12 -2 0 14 12 26 19 19 2 -3 -1 -11 -7 -17z m-276
-68 c8 0 32 -9 54 -20 57 -29 115 -27 145 6 l25 27 0 -46 c0 -37 -5 -49 -26
-66 -36 -28 -66 -26 -148 9 -38 16 -96 32 -129 36 l-61 7 34 28 c32 27 82 42
88 27 2 -5 10 -8 18 -8z m-831 -206 c35 -22 26 -28 -13 -8 -17 8 -48 17 -69
20 l-38 4 40 -20 40 -20 -34 5 c-18 3 -42 5 -53 5 -29 0 -17 22 23 42 36 18
31 19 104 -28z m948 15 c12 -6 28 -19 35 -30 14 -22 9 -25 -10 -6 -7 7 -24 21
-38 30 -28 19 -22 22 13 6z m225 -40 c-17 -49 -3 -151 27 -199 l25 -40 -26 0
c-31 0 -90 55 -100 93 -11 45 5 96 43 138 19 21 37 39 39 39 1 0 -2 -14 -8
-31z m1308 -36 c-8 -16 -22 -36 -32 -44 -16 -13 -16 -12 -4 11 22 43 43 71 47
66 3 -2 -2 -17 -11 -33z m-2716 -13 c-18 -12 -47 -13 -53 -2 -3 4 11 8 31 9
27 2 33 0 22 -7z m2711 -67 c-6 -21 -18 -47 -26 -58 -16 -19 -16 -18 -11 19 5
38 33 92 42 83 3 -3 1 -22 -5 -44z m-1371 -103 c0 -5 -2 -10 -4 -10 -3 0 -8 5
-11 10 -3 6 -1 10 4 10 6 0 11 -4 11 -10z m130 -40 c0 -5 -2 -10 -4 -10 -3 0
-8 5 -11 10 -3 6 -1 10 4 10 6 0 11 -4 11 -10z m294 -315 c40 -17 49 -31 14
-19 -23 7 -68 34 -56 34 3 0 22 -7 42 -15z m113 -41 c-3 -3 -12 -4 -19 -1 -8
3 -5 6 6 6 11 1 17 -2 13 -5z"/>
<path d="M1062 4950 c11 -34 83 -71 168 -87 154 -28 159 -31 223 -95 34 -33
52 -47 42 -32 -50 78 -101 109 -210 130 -37 6 -38 8 -15 15 15 4 2 5 -31 2
-61 -6 -92 5 -149 54 -18 15 -31 21 -28 13z"/>
<path d="M4335 4940 c-3 -5 -1 -10 4 -10 6 0 11 5 11 10 0 6 -2 10 -4 10 -3 0
-8 -4 -11 -10z"/>
<path d="M1443 4911 c28 -34 36 -58 15 -44 -14 8 39 -64 81 -111 14 -15 49
-46 78 -67 43 -32 60 -39 99 -39 56 0 53 10 -5 16 -88 10 -146 62 -230 204
-21 35 -44 66 -52 69 -7 2 -1 -10 14 -28z"/>
<path d="M1425 4900 c10 -11 20 -20 23 -20 3 0 -3 9 -13 20 -10 11 -20 20 -23
20 -3 0 3 -9 13 -20z"/>
<path d="M3958 4913 c7 -3 16 -2 19 1 4 3 -2 6 -13 5 -11 0 -14 -3 -6 -6z"/>
<path d="M1970 4841 c-14 -11 -33 -21 -42 -21 -10 0 -18 -4 -18 -9 0 -13 57
-8 72 7 17 17 46 15 93 -7 46 -20 105 -83 105 -110 0 -17 -29 -51 -44 -51 -20
0 -66 -44 -66 -63 0 -20 2 -19 28 10 16 17 38 34 49 37 21 7 53 61 53 90 0 20
-40 85 -69 110 -33 30 -128 33 -161 7z"/>
<path d="M3802 4720 c0 -14 2 -19 5 -12 2 6 2 18 0 25 -3 6 -5 1 -5 -13z"/>
<path d="M3598 4618 c-8 -7 -23 -34 -33 -61 -36 -96 2 -206 92 -264 75 -48
120 -58 192 -42 34 7 61 18 61 24 1 16 90 77 150 102 97 40 168 28 280 -49 41
-28 100 -51 100 -39 0 5 -11 12 -25 15 -13 3 -39 19 -57 35 -109 95 -266 105
-385 24 -55 -38 -114 -63 -148 -63 -64 0 -168 54 -201 106 -32 48 -49 184 -24
184 4 0 10 9 13 20 6 24 6 24 -15 8z m0 -205 c6 -19 7 -33 2 -33 -5 0 -12 12
-16 28 -3 15 -8 34 -10 42 -3 10 -2 11 4 5 5 -5 14 -25 20 -42z m71 -73 c7 0
9 -5 5 -12 -4 -6 -3 -8 3 -5 6 4 32 -3 58 -14 37 -16 62 -20 106 -17 33 2 59
3 59 1 0 -6 -55 -25 -85 -29 -37 -6 -78 4 -70 15 3 5 -4 7 -15 4 -14 -4 -20 0
-20 11 0 10 -6 13 -16 9 -9 -3 -27 6 -45 23 -31 30 -41 58 -11 31 10 -10 24
-17 31 -17z"/>
<path d="M4876 4362 c-17 -2 -50 -18 -74 -35 -102 -74 -126 -87 -163 -87 -21
0 -45 7 -54 16 -9 9 -18 14 -21 11 -3 -3 4 -15 15 -26 46 -46 150 -19 238 62
37 34 54 43 97 47 41 5 45 7 21 10 -16 3 -43 3 -59 2z"/>
<path d="M1096 4309 c-41 -41 -72 -47 -117 -21 -26 15 -53 22 -86 21 l-48 -1
50 -13 c28 -6 60 -17 72 -23 50 -27 137 -1 163 47 15 29 1 24 -34 -10z"/>
<path d="M4105 4210 c-11 -4 -42 -33 -70 -64 -52 -59 -98 -82 -141 -72 -13 4
-24 2 -24 -3 0 -6 15 -13 34 -16 40 -8 94 16 148 68 64 60 119 54 204 -20 51
-45 81 -53 129 -31 34 15 32 29 -3 16 -45 -17 -79 -2 -117 51 -24 33 -49 54
-75 65 -45 18 -56 19 -85 6z"/>
<path d="M3860 4160 c-8 -5 -10 -10 -5 -10 6 0 17 5 25 10 8 5 11 10 5 10 -5
0 -17 -5 -25 -10z"/>
<path d="M3748 4153 c7 -3 16 -2 19 1 4 3 -2 6 -13 5 -11 0 -14 -3 -6 -6z"/>
<path d="M4186 4050 c6 -6 41 -17 78 -27 58 -14 78 -15 125 -5 32 7 86 12 122
13 59 1 62 1 29 11 -19 5 -55 7 -80 4 -120 -16 -176 -17 -205 -5 -38 16 -81
21 -69 9z"/>
<path d="M3709 3997 c-33 -23 -42 -51 -28 -96 3 -11 -9 -15 -51 -16 -67 -1
-82 -9 -110 -58 -24 -41 -36 -44 -21 -6 5 13 27 41 50 61 22 20 41 41 41 47 0
34 -75 -23 -99 -75 -12 -25 -26 -42 -31 -39 -10 6 -13 -11 -11 -55 2 -32 -21
-53 -74 -70 -22 -7 -49 -18 -60 -24 -41 -24 -77 -37 -69 -24 5 8 2 9 -10 5
-13 -5 -17 -3 -13 7 4 11 -4 9 -29 -6 -31 -18 -41 -19 -86 -10 -37 7 -61 7
-84 -2 -51 -17 -123 -72 -145 -111 -12 -19 -25 -32 -30 -29 -16 10 -107 -86
-137 -146 -30 -57 -42 -150 -20 -150 5 0 7 -4 3 -10 -8 -13 26 -45 89 -80 30
-17 60 -38 66 -45 7 -8 21 -15 31 -15 11 0 19 -4 19 -9 0 -5 10 -13 23 -17 12
-4 29 -15 38 -25 9 -10 18 -16 21 -13 12 11 68 -104 68 -140 0 -76 -19 -119
-81 -186 -63 -68 -67 -65 -14 10 42 59 48 70 38 70 -4 0 -28 -29 -51 -64 -64
-93 -115 -246 -82 -246 5 0 7 6 5 13 -3 6 -1 26 4 42 l9 30 1 -36 c1 -43 45
-220 60 -246 9 -15 10 -13 6 12 -5 28 -5 29 5 6 6 -14 8 -31 6 -38 -3 -8 -1
-22 6 -32 8 -13 8 -26 -1 -51 -16 -49 -6 -48 19 0 30 59 36 132 16 209 -9 34
-16 78 -16 97 0 44 32 136 66 188 25 38 25 40 4 21 -29 -25 -63 -102 -80 -177
-11 -49 -11 -67 3 -120 25 -99 28 -116 19 -122 -19 -11 -66 188 -60 249 3 24
15 63 28 87 23 46 99 130 110 123 4 -3 19 9 33 27 64 77 38 271 -45 343 -23
19 -44 32 -49 30 -4 -3 -10 -1 -13 4 -4 5 -28 17 -55 26 -75 24 -128 67 -142
114 -10 34 -8 48 17 122 l28 84 6 -43 c4 -23 12 -48 19 -55 9 -9 11 -3 5 29
-4 27 -2 50 7 65 7 13 12 30 10 37 -5 25 18 39 61 37 24 -1 33 0 21 2 -27 5
-29 16 -8 33 9 7 13 15 10 18 -3 3 -17 -5 -31 -19 -26 -24 -27 -24 -15 -1 12
22 81 72 101 72 5 0 10 -4 10 -10 0 -5 -6 -10 -14 -10 -7 0 -19 -7 -26 -15
-10 -12 -6 -12 20 2 27 13 43 14 99 5 76 -12 121 -6 139 19 7 10 37 27 67 38
66 25 65 25 65 7 0 -7 13 -16 29 -19 47 -10 120 -97 80 -97 -5 0 -7 -6 -3 -12
5 -9 4 -10 -4 -3 -5 6 -12 19 -14 30 -4 25 -76 61 -136 68 -43 5 -43 5 -22
-13 21 -18 21 -19 1 -29 -26 -15 -31 -14 -31 5 0 9 -5 14 -11 12 -6 -2 -13
-25 -15 -51 -2 -26 -11 -59 -20 -74 -15 -26 -14 -26 15 5 17 18 31 39 31 46 0
21 49 56 77 56 32 0 95 -34 111 -60 7 -11 17 -18 22 -15 6 4 9 -30 7 -83 -1
-63 2 -97 13 -118 21 -40 33 -51 49 -46 8 3 11 0 7 -6 -3 -6 -1 -14 5 -18 8
-4 9 -3 5 4 -10 16 -12 17 105 -22 135 -44 198 -72 205 -91 3 -8 10 -13 14
-10 4 3 10 -5 14 -18 5 -19 8 -20 17 -7 8 12 9 10 4 -7 -5 -17 6 -35 47 -82
29 -32 57 -60 63 -60 5 -1 -10 18 -33 42 -23 24 -40 46 -37 49 12 11 86 -79
79 -96 -3 -9 -1 -16 5 -16 6 0 11 -6 11 -13 0 -7 10 -23 23 -34 12 -12 30 -33
40 -48 11 -14 21 -24 24 -21 3 3 -3 17 -14 33 -10 15 -28 45 -38 66 -19 36
-63 93 -113 145 l-22 23 47 -7 c67 -9 103 -26 141 -63 25 -25 32 -41 32 -71 0
-24 7 -46 21 -61 18 -21 20 -21 13 -4 -4 11 -8 32 -9 46 -7 67 -19 93 -74 148
-33 34 -79 69 -111 83 -67 31 -94 59 -115 118 -28 80 -59 116 -127 148 -126
60 -171 114 -181 215 -3 32 -15 72 -26 91 -39 63 -21 136 34 136 56 0 108 47
84 76 -17 21 4 62 36 70 27 7 81 -3 71 -13 -3 -4 0 -16 7 -27 7 -12 13 -34 13
-51 -1 -39 -31 -46 -47 -11 -16 35 -29 33 -29 -4 0 -25 4 -30 34 -35 54 -11
69 -4 78 35 10 50 1 75 -38 110 -42 36 -79 38 -125 7z m-173 -275 c-9 -8 -14
0 -21 33 l-6 30 16 -28 c9 -16 14 -31 11 -35z m-18 -8 c60 -70 80 -106 77
-134 -3 -18 0 -28 5 -25 6 4 10 -1 10 -9 0 -8 6 -21 13 -28 22 -23 59 -78 51
-78 -3 0 -1 -7 6 -15 21 -25 -4 -17 -49 15 -52 38 -74 74 -91 148 -8 35 -22
65 -36 79 -17 16 -24 33 -24 60 1 36 2 37 15 18 8 -11 18 -25 23 -31z m73 -56
c18 -33 -6 -17 -30 20 -23 36 -23 36 -1 17 12 -11 26 -28 31 -37z m-117 -25
c22 -10 39 -27 45 -45 l11 -30 -28 29 c-15 15 -38 36 -52 45 -32 22 -20 23 24
1z m-614 -157 c0 -2 -8 -10 -17 -17 -16 -13 -17 -12 -4 4 13 16 21 21 21 13z
m748 -103 c33 -54 102 -104 154 -110 50 -6 105 -44 119 -80 12 -33 6 -39 -23
-19 -12 9 -18 16 -13 16 19 0 -13 21 -40 26 -93 17 -200 112 -235 211 -9 24
-8 25 2 11 7 -10 23 -34 36 -55z m103 -7 c86 -25 164 -104 87 -89 -65 12 -142
57 -175 101 -41 54 -43 76 -3 35 19 -20 51 -36 91 -47z m-109 -49 l22 -30 -32
23 c-32 23 -53 66 -51 104 0 14 7 7 20 -22 10 -24 29 -58 41 -75z m-802 86 c0
-5 -10 -19 -21 -33 l-21 -25 18 33 c18 32 24 38 24 25z m930 -3 c0 -5 -2 -10
-4 -10 -3 0 -8 5 -11 10 -3 6 -1 10 4 10 6 0 11 -4 11 -10z m115 -51 c9 -9 11
-19 6 -28 -7 -11 -10 -9 -16 9 -5 15 -10 18 -14 11 -5 -8 -12 -6 -24 7 -15 17
-15 18 9 17 14 -1 31 -8 39 -16z m-1098 -61 c-3 -8 -6 -5 -6 6 -1 11 2 17 5
13 3 -3 4 -12 1 -19z m3 -71 c0 -10 -4 -15 -10 -12 -5 3 -10 18 -10 33 0 21 2
24 10 12 5 -8 10 -23 10 -33z m64 -96 c-6 -7 -74 50 -74 61 0 6 17 -5 38 -23
21 -19 37 -36 36 -38z m1186 -20 c19 -11 49 -21 66 -21 17 0 38 -7 45 -17 13
-15 12 -15 -8 -5 -12 7 -36 12 -53 12 -38 0 -89 24 -112 54 -25 30 -22 43 5
19 12 -12 38 -30 57 -42z m-1075 0 c28 -11 63 -26 78 -34 29 -15 57 -57 57
-83 0 -8 6 -14 14 -14 56 0 35 -217 -26 -268 -12 -10 -11 -4 3 26 33 66 44
192 18 192 -5 0 -9 5 -9 12 0 6 -9 21 -19 32 -11 12 -21 30 -23 40 -5 28 -38
58 -99 88 -64 32 -62 35 6 9z m-30 -31 c3 -5 1 -10 -4 -10 -6 0 -11 5 -11 10
0 6 2 10 4 10 3 0 8 -4 11 -10z m206 -333 c-10 -9 -11 -8 -5 6 3 10 9 15 12
12 3 -3 0 -11 -7 -18z m-212 -211 c-9 -8 -10 -7 -5 7 3 10 7 24 7 30 1 7 3 4
6 -7 3 -10 -1 -23 -8 -30z"/>
<path d="M3595 3520 c3 -5 8 -10 11 -10 2 0 4 5 4 10 0 6 -5 10 -11 10 -5 0
-7 -4 -4 -10z"/>
<path d="M1900 3760 c-11 -7 -8 -10 16 -10 28 0 33 -4 40 -37 8 -36 11 -52 13
-80 1 -7 8 -13 17 -13 8 0 13 -4 9 -9 -3 -6 2 -14 12 -19 12 -7 17 -22 16 -49
-1 -21 1 -29 4 -18 8 34 20 39 48 21 24 -16 26 -22 22 -65 -4 -40 -2 -47 14
-47 13 0 15 4 8 13 -6 6 -9 20 -6 30 3 15 6 13 15 -9 11 -28 3 -78 -12 -77 -6
0 -17 -18 -26 -41 -9 -23 -20 -42 -26 -43 -5 -1 -8 -6 -6 -11 4 -11 -28 -46
-41 -46 -6 0 -2 10 9 23 l19 22 -22 -19 c-13 -10 -20 -23 -17 -27 3 -5 0 -9
-6 -9 -6 0 -22 -12 -35 -26 -32 -35 -82 -44 -190 -37 -79 5 -96 3 -131 -15
-25 -13 -45 -32 -52 -49 -16 -41 -20 -143 -11 -268 9 -137 -5 -176 -76 -214
-47 -25 -61 -47 -22 -36 25 8 92 52 105 69 4 6 18 63 31 126 13 65 32 130 44
150 31 50 96 119 128 136 61 31 66 8 10 -43 -37 -33 -59 -73 -40 -73 5 0 9 -7
9 -15 0 -10 10 -15 30 -15 17 0 30 4 30 10 0 5 -6 7 -14 4 -23 -9 -27 12 -6
38 11 14 17 27 15 30 -2 2 33 2 79 0 104 -5 156 9 207 55 54 49 79 110 88 215
7 72 13 94 36 128 16 23 35 45 43 49 18 10 0 24 -20 16 -29 -12 -76 -105 -98
-196 -34 -144 -55 -176 -138 -219 -52 -27 -100 -32 -127 -14 -11 8 -28 14 -39
14 -18 0 -18 1 -1 20 9 10 39 26 65 35 31 10 72 37 115 77 68 63 108 126 120
191 4 21 18 53 31 73 31 45 31 55 0 19 l-24 -28 -7 23 c-4 13 -23 45 -42 71
-19 27 -32 53 -28 59 8 13 70 13 118 -1 47 -13 86 -52 117 -119 22 -46 23 -54
11 -83 -8 -18 -16 -48 -18 -68 -4 -33 -2 -37 32 -53 21 -11 43 -15 53 -10 14
6 13 8 -8 12 -54 9 -63 40 -30 94 29 47 26 88 -10 133 -17 21 -40 45 -50 52
-20 14 -29 40 -10 28 6 -3 10 -4 10 -1 0 3 -10 10 -21 17 -17 9 -20 8 -14 -3
4 -7 -2 -3 -13 9 -12 12 -51 31 -86 41 -42 13 -82 34 -113 60 -68 57 -118 74
-153 52z m137 -121 c-19 -5 -18 -6 11 -12 17 -4 32 -12 32 -18 0 -7 -7 -8 -17
-4 -10 4 -25 9 -34 12 -9 3 -22 16 -28 31 -11 24 -11 24 6 11 14 -11 13 -7 -5
24 -32 56 -26 58 18 7 39 -44 39 -45 17 -51z m93 -279 c0 -5 -5 -10 -11 -10
-5 0 -7 5 -4 10 3 6 8 10 11 10 2 0 4 -4 4 -10z m-44 -75 c-14 -18 -26 -38
-26 -43 0 -5 -9 -12 -20 -15 -11 -3 -20 -4 -20 -3 0 2 18 22 40 45 22 23 40
50 41 59 0 11 2 12 6 4 3 -7 -7 -28 -21 -47z m-76 -75 c0 -5 -5 -10 -11 -10
-5 0 -7 5 -4 10 3 6 8 10 11 10 2 0 4 -4 4 -10z m-110 -61 c0 -3 -43 -11 -96
-18 -108 -13 -141 -27 -178 -73 -23 -29 -26 -30 -26 -12 0 31 38 74 84 95 32
15 60 18 128 16 49 -1 88 -5 88 -8z m-130 -53 c0 -2 -7 -6 -15 -10 -8 -3 -15
-1 -15 4 0 6 7 10 15 10 8 0 15 -2 15 -4z m-78 -50 c-22 -24 -50 -62 -61 -85
-12 -23 -24 -41 -28 -41 -3 0 -3 18 0 40 6 45 47 107 81 120 45 18 47 8 8 -34z
m193 -6 c3 -5 -1 -10 -10 -10 -9 0 -13 5 -10 10 3 6 8 10 10 10 2 0 7 -4 10
-10z"/>
<path d="M3829 3743 c-39 -16 -33 -28 7 -13 16 6 52 12 80 13 29 1 50 5 47 10
-7 12 -98 5 -134 -10z"/>
<path d="M1697 3739 c-100 -24 -236 -123 -268 -197 -11 -24 -19 -56 -18 -70 0
-19 4 -13 13 21 17 61 38 90 110 148 89 72 229 113 270 79 8 -6 27 -10 43 -8
25 3 23 5 -21 21 -54 19 -72 19 -129 6z"/>
<path d="M3940 3721 c0 -4 24 -8 54 -8 58 0 126 -30 194 -88 44 -37 166 -105
188 -105 9 0 -14 16 -50 35 -36 19 -93 55 -128 81 -82 61 -157 94 -213 94 -25
0 -45 -4 -45 -9z"/>
<path d="M2412 3684 c10 -10 20 -16 22 -13 3 3 -5 11 -17 18 -21 13 -21 12 -5
-5z"/>
<path d="M1685 3662 c-110 -37 -206 -180 -192 -287 7 -48 -15 -88 -54 -100
-11 -4 -18 -9 -16 -12 11 -10 68 29 77 53 6 14 10 49 10 77 1 88 72 207 144
241 40 19 127 21 144 4 8 -8 12 -8 12 -1 0 21 -85 38 -125 25z"/>
<path d="M4714 3640 c-41 -8 -210 -90 -186 -90 7 0 35 11 62 25 55 28 64 30
54 14 -4 -8 -1 -8 12 -1 11 5 26 12 34 16 8 3 2 4 -13 1 -17 -3 -26 -2 -23 3
3 6 27 13 53 17 27 3 59 9 72 12 17 4 22 2 17 -6 -4 -6 -26 -12 -49 -12 l-42
-2 35 -7 c19 -4 26 -8 15 -9 -11 0 -41 -18 -67 -39 -43 -36 -68 -46 -173 -70
-60 -13 -137 -6 -191 17 -54 24 -67 27 -39 8 32 -22 115 -47 154 -47 35 0 162
29 211 48 14 5 39 23 56 40 20 18 47 32 73 37 22 4 43 11 47 16 3 5 17 9 32
10 20 1 14 5 -23 15 -55 15 -62 15 -121 4z"/>
<path d="M4898 3613 c7 -3 16 -2 19 1 4 3 -2 6 -13 5 -11 0 -14 -3 -6 -6z"/>
<path d="M2906 3483 c-6 -14 -5 -15 5 -6 7 7 10 15 7 18 -3 3 -9 -2 -12 -12z"/>
<path d="M2657 3456 c4 -18 -3 -29 -26 -47 -16 -12 -35 -36 -41 -52 -17 -50
-11 -54 16 -9 14 23 29 42 34 42 14 0 42 60 36 76 -9 23 -24 16 -19 -10z"/>
<path d="M3022 3434 c-28 -19 -62 -89 -62 -125 0 -52 61 -159 90 -159 5 0 18
-10 30 -22 11 -12 20 -18 20 -12 1 19 29 -42 30 -64 0 -13 4 -21 9 -18 22 14
-27 126 -54 126 -20 0 -74 49 -91 82 -24 46 -11 117 31 162 22 24 38 34 49 30
9 -3 16 -1 16 5 0 16 -42 13 -68 -5z"/>
<path d="M1386 3395 c-32 -83 -130 -104 -230 -50 -53 28 -57 29 -83 15 -31
-18 -73 -75 -73 -99 1 -9 8 -3 17 14 42 81 79 92 161 49 43 -22 58 -25 102
-19 61 8 104 41 120 91 18 52 6 52 -14 -1z"/>
<path d="M3273 3314 c-13 -20 -18 -45 -16 -85 3 -109 84 -228 217 -319 39 -27
102 -78 139 -115 38 -36 64 -58 58 -48 -15 28 -108 113 -194 176 -158 117
-242 284 -192 381 20 38 12 45 -12 10z"/>
<path d="M2431 3154 c-11 -58 -28 -79 -115 -147 -39 -30 -86 -112 -86 -149 0
-13 12 -48 26 -78 22 -47 27 -52 36 -37 7 14 6 21 -6 30 -11 8 -18 34 -22 77
l-6 65 49 50 c27 28 64 61 82 73 39 29 56 63 64 125 9 66 -8 59 -22 -9z"/>
<path d="M2790 3036 c0 -3 26 -23 58 -44 89 -61 142 -113 158 -157 15 -39 15
-39 9 -6 -7 44 -44 93 -103 136 -54 39 -122 79 -122 71z"/>
<path d="M2396 2938 c-29 -45 -29 -74 -1 -130 15 -29 32 -60 40 -68 24 -28 52
-106 50 -139 -2 -17 -15 -50 -30 -72 -30 -46 -29 -61 2 -26 63 69 54 163 -27
272 -37 50 -48 113 -27 154 18 36 14 41 -7 9z"/>
<path d="M2271 2894 c0 -11 3 -14 6 -6 3 7 2 16 -1 19 -3 4 -6 -2 -5 -13z"/>
<path d="M2860 2874 c0 -3 10 -14 22 -23 31 -26 27 -81 -12 -134 -56 -77 -97
-142 -104 -165 -13 -39 13 -129 51 -179 19 -25 41 -60 49 -77 12 -27 13 -28
14 -8 0 12 -10 41 -22 64 -13 22 -31 55 -40 72 -20 37 -22 97 -5 146 7 19 35
68 61 108 61 91 69 139 33 176 -24 24 -47 34 -47 20z"/>
<path d="M2320 2810 c6 -11 15 -41 20 -67 8 -42 6 -53 -15 -89 -14 -23 -35
-45 -47 -48 -31 -10 -5 -20 28 -12 36 10 58 66 51 137 -5 53 -23 99 -40 99 -4
0 -3 -9 3 -20z"/>
<path d="M3684 2612 l-1 -107 8 85 c5 46 6 94 2 107 -5 13 -8 -20 -9 -85z"/>
<path d="M3734 2698 c14 -46 17 -105 9 -178 -5 -41 -6 -88 -3 -105 3 -17 9 26
13 97 7 117 -1 208 -20 208 -3 0 -2 -10 1 -22z"/>
<path d="M2121 2563 c-37 -7 -94 -49 -115 -84 -38 -64 -57 -203 -35 -252 11
-25 -4 -107 -19 -107 -5 0 -17 -7 -28 -16 -18 -14 -18 -15 6 -4 l25 11 -24
-20 c-13 -12 -18 -21 -12 -21 16 0 50 37 63 68 6 15 11 78 10 142 -1 103 1
120 24 167 28 58 74 103 107 104 12 0 31 4 42 9 l20 9 -20 -1 c-11 0 -31 -3
-44 -5z m-144 -305 c-2 -13 -4 -5 -4 17 -1 22 1 32 4 23 2 -10 2 -28 0 -40z"/>
<path d="M2215 2471 c-45 -14 -86 -43 -100 -71 -22 -42 -19 -51 5 -13 22 37
58 63 109 79 20 7 29 12 21 12 -8 0 -24 -3 -35 -7z"/>
<path d="M3751 2364 c0 -11 3 -14 6 -6 3 7 2 16 -1 19 -3 4 -6 -2 -5 -13z"/>
<path d="M2887 2167 c7 -55 -23 -123 -81 -186 -53 -57 -60 -75 -45 -118 7 -23
22 -39 48 -52 40 -21 54 -41 76 -116 21 -71 18 -112 -11 -175 -27 -58 -47
-184 -25 -164 6 6 15 35 20 65 5 30 20 75 33 100 47 89 23 246 -46 311 -45 41
-45 91 -1 166 46 80 57 116 49 170 -8 55 -23 55 -17 -1z"/>
<path d="M1874 2074 c-18 -14 -18 -15 4 -4 12 6 22 13 22 15 0 8 -5 6 -26 -11z"/>
<path d="M2905 2028 c-31 -86 -33 -97 -23 -142 5 -25 13 -46 17 -46 4 0 16
-19 27 -42 14 -33 19 -65 19 -135 0 -61 3 -86 9 -75 5 9 10 50 10 92 1 66 -3
83 -31 139 -37 72 -42 127 -18 185 9 22 11 36 5 36 -6 0 -13 -6 -15 -12z"/>
</g>
</svg>
