<?xml version="1.0" standalone="no"?>
<!DOCTYPE svg PUBLIC "-//W3C//DTD SVG 20010904//EN"
 "http://www.w3.org/TR/2001/REC-SVG-20010904/DTD/svg10.dtd">
<svg version="1.0" xmlns="http://www.w3.org/2000/svg"
 width="1024.000000pt" height="1024.000000pt" viewBox="0 0 1024.000000 1024.000000"
 preserveAspectRatio="xMidYMid meet">

<g transform="translate(0.000000,1024.000000) scale(0.100000,-0.100000)"
fill="#000000" stroke="none">
<path d="M0 5968 l0 -4273 36 59 c19 33 50 78 68 100 19 23 37 51 40 63 6 19
42 41 56 34 11 -6 20 47 14 89 -5 40 -3 51 15 69 11 11 30 21 41 21 29 0 70
-44 70 -74 0 -44 -9 -56 -41 -49 -22 4 -29 2 -29 -10 0 -9 -5 -28 -12 -42 -9
-21 -17 -25 -36 -20 -23 6 -23 6 -5 -19 10 -14 21 -26 26 -26 4 0 7 -9 7 -20
0 -11 5 -20 10 -20 6 0 21 -12 34 -27 23 -27 23 -28 5 -48 -165 -182 -219
-265 -206 -315 3 -11 2 -22 -3 -25 -4 -3 -11 6 -14 20 -13 53 47 158 164 284
36 39 47 58 39 65 -7 8 -17 2 -32 -19 -12 -16 -43 -53 -68 -81 -97 -107 -130
-174 -123 -246 3 -32 2 -38 -5 -23 -15 32 -12 71 9 126 21 52 67 125 99 157
26 26 91 108 91 116 0 3 -5 6 -11 6 -7 0 -17 7 -24 16 -10 14 -15 11 -41 -30
-16 -25 -32 -46 -36 -46 -4 0 -13 -10 -19 -22 -11 -20 -11 -22 3 -10 29 23 29
-5 1 -38 -15 -18 -46 -71 -69 -119 -24 -47 -43 -80 -44 -73 0 7 7 24 16 37 9
14 12 25 6 25 -10 0 45 107 70 137 5 7 7 16 4 22 -3 5 12 41 34 80 22 39 40
75 40 81 0 25 -34 1 -35 -25 0 -13 -104 -222 -126 -256 -16 -23 -18 -84 -19
-822 l-1 -797 5121 0 5120 0 0 5120 0 5120 -5120 0 -5120 0 0 -4272z m7656
3227 c16 -8 40 -15 54 -16 14 0 41 -6 60 -14 29 -10 32 -14 17 -20 -9 -4 -23
-2 -31 4 -7 6 -34 13 -60 15 -25 2 -52 9 -60 15 -12 10 -19 8 -34 -7 -11 -11
-23 -18 -25 -16 -7 7 -91 -16 -98 -27 -3 -5 -16 5 -29 23 -16 22 -18 30 -7 25
8 -3 48 3 89 13 93 23 91 23 124 5z m-217 -87 c-11 -5 -25 -6 -30 -2 -5 3 -9
-2 -9 -10 0 -9 -6 -16 -13 -16 -8 0 -21 -8 -31 -19 -9 -10 -36 -27 -59 -37
-23 -10 -48 -24 -54 -30 -7 -7 -18 -15 -25 -18 -14 -6 -14 -6 71 -61 44 -28
54 -46 33 -53 -5 -1 -16 4 -24 12 -9 8 -32 18 -52 22 -21 3 -46 15 -56 26 -11
13 -20 16 -25 9 -3 -6 -10 -11 -16 -11 -13 0 -11 24 3 38 9 9 17 6 35 -15 20
-26 22 -26 23 -7 0 14 -14 28 -47 46 -27 14 -49 32 -51 40 -2 10 21 26 70 47
40 18 95 46 122 63 31 18 58 28 73 25 12 -2 23 0 23 6 0 6 14 -2 30 -18 30
-29 30 -30 9 -37z m94 -13 c8 -8 17 -12 20 -9 3 3 7 1 10 -3 9 -15 -44 -14
-59 1 -8 8 -14 17 -14 20 0 12 29 6 43 -9z m118 -45 c30 -26 45 -65 28 -76 -5
-3 -8 -2 -7 3 4 13 -53 83 -68 83 -7 0 -15 4 -18 8 -11 19 38 5 65 -18z m-232
-12 c-9 -16 -14 -19 -17 -9 -2 7 2 17 9 22 20 13 21 11 8 -13z m136 -22 c20
-15 20 -15 -2 -16 -12 0 -25 5 -28 11 -4 6 -13 8 -21 5 -7 -3 -16 -1 -19 4 -4
6 -18 11 -33 11 -20 1 -16 4 13 8 41 7 56 3 90 -23z m70 24 c3 -5 1 -10 -4
-10 -6 0 -11 5 -11 10 0 6 2 10 4 10 3 0 8 -4 11 -10z m-519 -45 c4 -8 1 -22
-6 -30 -9 -10 -9 -19 -2 -27 21 -27 16 -52 -16 -87 -59 -63 -78 -92 -162 -256
-59 -116 -170 -288 -239 -371 -6 -7 -7 -15 -3 -20 4 -4 2 -4 -5 -1 -15 9 -73
-70 -66 -92 4 -13 3 -13 -5 -2 -8 11 -15 5 -36 -27 -30 -49 -63 -63 -83 -36
-11 15 -11 20 -1 23 27 8 137 131 219 246 97 137 122 177 229 365 122 214 152
270 143 270 -4 0 -19 -21 -33 -47 -14 -27 -112 -164 -218 -306 -106 -142 -202
-274 -214 -293 -25 -43 -31 -43 -23 -1 l6 32 -51 -53 c-27 -30 -55 -63 -62
-75 -11 -22 -11 -22 10 -3 12 10 24 27 27 36 3 10 12 21 20 24 7 2 -2 -21 -21
-52 -37 -62 -40 -72 -22 -72 6 0 9 3 5 6 -3 3 4 15 15 26 11 11 22 18 24 15 8
-8 -24 -77 -38 -82 -23 -9 -101 10 -111 26 -15 24 36 93 180 249 145 155 397
467 454 562 41 68 72 87 85 53z m483 -60 c0 -30 -5 -57 -10 -60 -5 -4 -9 20
-9 54 0 34 4 61 9 61 5 0 10 -25 10 -55z m114 9 c4 -23 3 -24 -10 -11 -9 8
-12 20 -9 26 10 16 13 14 19 -15z m-5467 -27 c4 -3 12 -3 18 0 25 16 51 12 75
-11 22 -21 111 -67 175 -90 18 -6 18 -7 2 -25 -24 -26 -4 -35 22 -10 26 23 28
39 7 39 -18 0 -162 71 -190 95 l-20 16 20 -5 c11 -2 47 -11 80 -19 33 -9 81
-18 106 -22 68 -10 76 -18 55 -50 -9 -14 -14 -34 -11 -44 3 -10 0 -31 -6 -45
-9 -20 -19 -26 -38 -24 -22 3 -26 -1 -23 -21 3 -29 -27 -54 -45 -39 -10 8 -13
5 -13 -9 0 -29 -37 -60 -52 -45 -10 10 -2 22 34 55 44 40 63 76 56 107 -3 15
-24 25 -113 56 -77 26 -80 29 -79 63 0 17 -3 31 -8 31 -4 0 -8 -6 -8 -14 0 -7
-7 -20 -16 -27 -14 -11 -18 -11 -29 4 -11 15 -19 16 -54 8 -23 -5 -57 -5 -77
-1 -40 9 -48 15 -41 27 6 10 163 11 173 0z m-179 -22 c7 -20 1 -25 -28 -29
-13 -1 -35 -9 -49 -18 -35 -22 -70 -32 -70 -19 0 6 25 23 55 37 31 15 58 30
61 35 8 14 24 11 31 -6z m5328 -19 c11 -7 23 -14 28 -15 30 -4 57 -15 57 -23
0 -7 -15 -8 -37 -4 -21 3 -48 6 -60 6 -18 0 -23 6 -23 25 0 28 7 31 35 11z
m-5145 -20 c0 -2 -17 -15 -37 -27 -21 -13 -44 -27 -50 -32 -7 -4 -13 -6 -13
-3 0 3 19 18 43 35 39 28 57 36 57 27z m404 -12 c9 -3 16 -10 16 -16 0 -14
118 -143 323 -353 144 -148 208 -205 332 -297 85 -62 156 -119 159 -125 8 -18
-39 -45 -82 -49 -34 -2 -38 0 -38 20 1 29 -68 111 -128 155 -41 29 -59 32 -38
5 4 -5 -1 0 -11 11 -10 11 -60 65 -111 120 -168 182 -291 319 -335 375 -57 70
-91 104 -109 106 -22 4 -24 11 -12 33 12 23 12 23 34 15z m-354 -51 c0 -16
-16 -30 -32 -30 -9 0 -15 4 -12 9 3 5 10 6 15 3 5 -4 9 1 9 9 0 9 5 16 10 16
6 0 10 -3 10 -7z m-171 -34 c-7 -13 -18 -29 -25 -36 -7 -7 -12 -31 -12 -54 0
-38 -6 -58 -17 -48 -7 7 -6 60 1 97 3 18 18 41 32 52 30 24 38 20 21 -11z
m108 14 c-8 -10 -16 -22 -18 -28 -5 -25 -12 -34 -23 -28 -6 4 -5 -1 2 -10 8
-9 11 -24 8 -34 -3 -10 1 -31 9 -48 l15 -30 -21 24 c-13 16 -18 33 -15 47 4
13 0 27 -9 34 -14 12 -14 15 2 30 10 10 25 27 33 39 8 11 19 21 24 21 5 0 2
-8 -7 -17z m520 -140 c55 -76 121 -169 148 -208 105 -150 320 -388 414 -456
27 -20 32 -29 26 -47 -3 -13 -10 -22 -13 -20 -4 2 -67 66 -141 143 -141 147
-230 255 -375 454 -49 66 -112 147 -141 179 -42 45 -51 61 -44 75 6 9 14 17
19 17 4 0 53 -62 107 -137z m2297 4 c89 -41 145 -111 161 -202 l7 -40 -36 38
c-19 22 -41 37 -48 35 -21 -7 -21 -61 0 -83 14 -15 17 -31 14 -76 -4 -48 -1
-60 18 -79 12 -12 19 -24 16 -27 -3 -3 -27 -5 -53 -6 -26 0 -53 -4 -60 -9 -7
-5 -20 -7 -30 -4 -16 5 -18 0 -15 -39 5 -56 0 -58 -121 -59 l-91 -1 -8 44 c-4
24 -10 46 -13 49 -3 3 -36 5 -74 4 -79 -2 -95 12 -54 48 21 18 24 27 19 55 -5
24 -1 48 14 79 22 49 29 97 9 63 -10 -18 -11 -18 -32 0 -20 17 -20 17 -13 -1
13 -37 17 -86 7 -86 -6 0 -18 15 -28 33 l-17 32 -8 -25 c-4 -15 -5 -1 -2 35 7
75 42 136 108 186 95 72 221 85 330 36z m-2654 -41 c0 -11 -46 -36 -66 -36
-14 0 0 29 19 38 31 15 47 14 47 -2z m2770 -209 c0 -5 -4 -5 -10 -2 -5 3 -10
14 -10 23 0 15 2 15 10 2 5 -8 10 -19 10 -23z m-430 -232 c0 -9 -6 -12 -15 -9
-8 4 -15 10 -15 15 0 5 7 9 15 9 8 0 15 -7 15 -15z m-1509 -12 c13 -16 12 -17
-3 -4 -10 7 -18 15 -18 17 0 8 8 3 21 -13z m1528 -93 c22 -50 38 -67 28 -30
-3 11 -1 20 4 20 5 0 9 -4 9 -10 0 -5 5 -10 11 -10 7 0 9 10 7 24 -5 23 -3 24
35 22 21 -2 43 -10 48 -17 7 -11 9 -9 10 6 1 17 2 17 6 3 2 -10 9 -18 14 -18
6 0 7 5 4 10 -3 6 2 13 11 17 11 4 20 1 22 -6 4 -11 6 -11 13 0 6 10 9 10 9 2
0 -7 7 -10 16 -6 12 4 14 0 9 -20 -4 -14 -2 -28 4 -31 7 -4 8 -1 5 8 -4 10 -1
16 8 16 21 0 16 -49 -6 -66 -15 -11 -16 -14 -5 -14 27 0 58 44 73 104 9 33 19
62 22 65 8 7 -2 -127 -11 -151 -14 -37 -74 -53 -190 -52 -174 1 -205 25 -205
158 0 40 2 46 14 37 8 -6 23 -34 35 -61z m1638 40 c24 -11 51 -35 64 -57 33
-53 33 -53 12 -53 -47 0 -257 -83 -438 -175 -110 -56 -249 -123 -310 -149 -60
-27 -114 -53 -119 -57 -15 -14 -59 -10 -81 7 -15 11 -17 18 -9 32 11 18 38 27
159 56 86 20 178 63 360 167 176 100 225 136 272 198 21 28 41 50 44 50 3 1
24 -8 46 -19z m-2839 -109 c48 -40 177 -108 379 -199 117 -53 215 -85 293 -97
78 -12 116 -54 73 -81 -21 -12 -84 1 -80 16 1 6 -41 25 -93 43 -53 19 -163 63
-245 99 -184 81 -281 113 -410 136 -86 15 -100 21 -103 38 -2 16 10 28 55 52
32 17 64 32 71 32 7 0 34 -18 60 -39z m-2294 -60 c23 -10 58 -36 79 -58 l38
-40 -20 -34 c-25 -40 -26 -67 -7 -114 12 -27 21 -35 40 -35 39 0 43 37 10 96
l-27 49 29 -27 c16 -15 46 -34 66 -42 l37 -16 -16 -40 c-15 -37 -15 -41 2 -60
21 -23 35 -19 15 5 -7 8 -8 15 -3 15 5 0 16 -11 23 -25 7 -14 17 -25 21 -25 3
0 14 -11 23 -25 15 -23 15 -27 2 -40 -8 -9 -19 -15 -23 -14 -23 4 -32 -2 -26
-18 6 -16 5 -16 -10 -4 -13 10 -23 11 -49 2 -26 -9 -30 -9 -20 1 14 14 16 32
2 23 -17 -10 -33 46 -21 73 19 40 12 44 -18 10 -26 -30 -31 -31 -55 -20 -30
14 -63 8 -118 -19 -23 -12 -59 -19 -93 -19 -73 0 -144 -18 -172 -43 -19 -17
-31 -19 -74 -14 -28 4 -56 10 -63 16 -10 8 -66 13 -66 5 0 -1 4 -14 10 -28 15
-40 3 -31 -22 17 -32 60 -31 172 2 242 48 99 185 199 311 225 59 12 143 4 193
-19z m2161 -31 c19 -8 19 -9 -2 -9 -12 -1 -25 4 -28 9 -7 12 2 12 30 0z m4365
-160 c0 -5 -6 -10 -12 -10 -7 0 -26 -7 -43 -16 -16 -9 -58 -25 -92 -35 -35
-11 -63 -25 -63 -30 0 -7 7 -8 18 -4 9 4 51 19 92 34 41 14 81 32 88 39 18 16
47 15 61 -2 15 -18 4 -46 -17 -43 -10 1 -57 -11 -107 -26 -49 -16 -96 -31
-103 -33 -7 -2 -17 -15 -22 -29 -13 -33 -20 -32 -52 14 -39 55 -37 81 4 44 34
-30 29 -6 -7 31 -57 60 -51 64 82 65 64 1 119 3 121 6 10 9 52 5 52 -5z m174
-10 c60 0 87 -4 95 -14 8 -9 8 -16 2 -20 -5 -4 -13 -2 -16 4 -5 8 -11 8 -20 0
-16 -13 -165 -9 -165 4 0 5 -8 18 -17 28 -16 18 -16 19 11 9 15 -6 65 -11 110
-11z m-500 4 c10 -4 16 -18 16 -39 0 -39 -15 -47 -135 -70 -44 -9 -105 -22
-135 -30 -30 -8 -125 -28 -210 -45 -226 -45 -464 -101 -474 -110 -12 -12 -36
-1 -36 16 0 8 7 14 15 14 19 0 19 7 0 27 -9 8 -14 20 -12 27 4 11 12 11 81 0
43 -7 175 8 311 36 50 11 144 28 210 40 224 39 259 61 84 54 -211 -8 -348 -23
-504 -55 -82 -17 -162 -34 -177 -39 -33 -10 -39 8 -22 60 15 44 52 59 149 60
39 0 158 7 265 14 107 8 258 17 335 21 113 6 210 16 222 24 1 0 8 -2 17 -5z
m-2654 -38 c0 -2 -7 -7 -16 -10 -8 -3 -12 -2 -9 4 6 10 25 14 25 6z m3316 -25
c48 -35 101 -91 87 -91 -5 0 -27 16 -47 35 -21 19 -46 35 -57 35 -10 0 -19 5
-19 10 0 6 -7 10 -15 10 -16 0 -20 12 -8 23 11 11 18 8 59 -22z m-206 -23 c0
-6 -7 -5 -15 2 -8 7 -15 17 -15 22 0 6 7 5 15 -2 8 -7 15 -17 15 -22z m-3100
-17 c0 -11 -5 -23 -10 -26 -6 -4 -8 -11 -5 -16 8 -12 75 -12 75 1 0 6 9 6 25
0 14 -5 37 -7 52 -4 30 6 83 -10 83 -24 0 -5 -11 -15 -25 -22 -14 -7 -25 -22
-25 -33 0 -18 5 -19 62 -13 36 3 79 16 106 31 51 29 62 31 62 11 0 -35 -79
-71 -185 -85 -45 -5 -50 -9 -50 -30 0 -50 98 -51 201 -2 69 33 99 63 90 88 -6
15 -4 15 14 -2 30 -27 22 -64 -18 -92 -78 -52 -210 -82 -269 -60 -21 8 -23 5
-23 -22 0 -43 27 -54 119 -49 62 4 88 11 139 38 35 18 74 47 88 63 23 28 26
29 42 14 15 -16 15 -19 -4 -44 -51 -68 -214 -122 -331 -110 -46 5 -53 3 -53
-12 0 -25 18 -38 72 -52 56 -15 198 0 248 26 40 21 84 70 106 118 9 20 21 37
26 37 4 0 8 -2 8 -4 0 -11 -54 -152 -62 -163 -16 -21 -131 -54 -208 -60 -54
-4 -90 -1 -127 10 -51 15 -69 12 -55 -10 4 -6 47 -30 96 -53 82 -38 96 -42
152 -38 75 5 133 40 162 99 22 43 32 41 32 -7 0 -44 -35 -83 -105 -118 -50
-26 -63 -28 -125 -23 -38 3 -90 15 -116 26 l-47 21 25 -32 c14 -18 45 -43 69
-56 38 -21 53 -23 112 -18 38 4 83 13 100 22 41 21 87 64 87 81 0 8 5 11 11 7
17 -10 2 -65 -28 -96 -40 -42 -108 -60 -205 -55 -46 2 -94 7 -108 11 -51 15
38 -50 95 -70 48 -16 62 -17 111 -6 74 15 122 46 133 85 l9 32 1 -40 c1 -55
-19 -80 -84 -104 -64 -24 -114 -26 -170 -6 -21 8 -41 13 -43 11 -6 -7 83 -79
115 -92 42 -18 65 -18 106 2 33 16 72 65 61 77 -3 3 -1 8 5 12 18 10 13 -46
-7 -84 -12 -25 -30 -39 -67 -53 -61 -24 -93 -16 -173 44 -63 47 -56 28 20 -56
36 -39 62 -59 80 -61 24 -3 26 -1 18 15 -5 9 -6 20 -3 24 10 9 35 7 29 -3 -3
-5 1 -14 9 -21 22 -18 62 -4 79 28 20 36 20 10 1 -28 -12 -23 -24 -30 -60 -36
-25 -3 -45 -10 -45 -15 0 -20 -52 -1 -86 32 -69 66 -144 166 -172 230 -16 35
-34 75 -40 89 -25 55 -60 110 -64 100 -2 -8 -11 -8 -31 -1 -24 9 -30 7 -67
-31 -23 -24 -49 -66 -60 -98 -40 -110 -102 -202 -202 -300 -90 -87 -122 -98
-158 -53 -11 15 -19 32 -16 40 3 7 -1 28 -9 47 -22 53 -16 78 6 29 23 -49 48
-56 72 -19 18 26 13 36 -16 36 -10 0 -34 15 -53 34 -28 28 -34 41 -34 78 l1
43 22 -45 c38 -78 117 -86 215 -23 23 15 42 30 42 33 0 4 -42 6 -92 6 -139 -1
-199 38 -197 126 l1 33 13 -32 c27 -60 113 -99 200 -90 56 6 122 34 146 63 13
16 12 17 -16 10 -40 -11 -160 -7 -215 6 -84 20 -139 80 -125 137 6 24 7 24 28
-14 45 -79 206 -121 293 -77 39 20 81 58 73 67 -3 2 -29 -2 -59 -10 -87 -23
-143 -19 -216 15 -34 17 -72 42 -83 57 -27 33 -27 75 -1 98 11 10 20 26 20 36
0 10 -9 41 -20 69 -24 61 -26 99 -3 55 23 -44 81 -113 106 -127 32 -17 135
-37 192 -38 66 0 145 28 145 52 0 16 -10 18 -77 18 -173 0 -313 64 -313 141 0
36 6 36 32 3 49 -62 158 -104 269 -104 59 0 70 3 79 21 7 11 9 32 6 45 -6 23
-7 24 -31 8 -19 -12 -37 -14 -77 -9 -127 17 -231 83 -221 138 6 30 33 37 33 9
0 -50 112 -102 219 -102 66 0 69 1 75 26 4 15 5 28 3 31 -3 2 -34 6 -69 7 -68
4 -152 37 -172 68 -19 30 1 30 59 -1 60 -32 105 -38 149 -21 27 10 36 40 13
40 -7 0 -19 8 -28 18 -14 16 -37 18 -247 17 -182 0 -232 2 -232 12 0 16 -8 16
210 17 171 1 188 3 225 23 50 27 55 28 55 4z m260 -8 c35 -13 85 -17 221 -19
166 -1 199 -5 199 -22 0 -4 -96 -7 -212 -6 -172 1 -220 4 -250 17 -39 16 -52
47 -20 47 9 0 37 -8 62 -17z m2960 -65 c32 -44 41 -92 15 -82 -8 4 -12 10 -9
15 7 11 -32 66 -68 97 -16 13 -28 28 -28 33 0 20 62 -23 90 -63z m-1617 33
c27 -32 44 -98 29 -113 -6 -6 -40 -1 -88 11 -59 15 -101 19 -164 16 l-85 -5
94 20 c52 11 98 23 104 29 5 5 -40 -1 -100 -14 -83 -17 -161 -24 -338 -29
-231 -8 -295 -18 -295 -48 0 -7 -5 -5 -11 5 -8 14 -8 31 2 64 l12 45 51 -6
c28 -3 132 -9 231 -12 208 -7 387 11 452 45 53 28 77 26 106 -8z m1522 -50
c29 -33 31 -48 10 -77 -8 -12 -12 -24 -9 -27 8 -7 -15 -47 -26 -47 -12 0 -9
22 4 32 5 3 9 21 9 40 0 18 3 38 8 44 5 6 -9 28 -36 55 -24 24 -44 48 -45 52
0 11 54 -34 85 -72z m-4561 36 c8 -21 7 -30 -3 -36 -9 -6 -10 -11 -2 -15 6 -4
11 -2 11 5 0 10 3 10 11 2 12 -12 3 -53 -12 -53 -5 0 -9 7 -9 16 0 8 -4 12
-10 9 -5 -3 -60 2 -122 12 -162 25 -631 22 -605 -4 3 -3 84 -11 179 -19 95 -7
216 -18 268 -25 52 -6 137 -9 188 -6 92 4 93 4 112 -24 11 -15 17 -30 13 -32
-9 -5 -250 20 -443 47 -63 9 -197 20 -298 24 -162 8 -185 11 -203 28 -50 51
-7 57 581 85 118 5 220 12 225 14 6 2 32 3 60 2 45 -2 51 -5 59 -30z m145 8
c32 -13 96 -29 142 -35 128 -16 402 -13 479 6 36 8 74 13 86 10 23 -6 45 -63
37 -95 -4 -17 -6 -17 -40 0 -48 24 -121 35 -145 20 -10 -6 -51 -10 -95 -9
l-78 2 85 6 85 6 -100 3 c-55 1 -165 6 -245 10 -79 5 -153 5 -165 1 -19 -8
-18 -9 5 -10 24 -2 23 -3 -5 -10 -16 -5 -54 -15 -82 -23 -60 -17 -64 -14 -67
46 -2 43 8 76 28 89 14 10 9 11 75 -17z m4130 -33 c20 -21 55 -54 78 -73 30
-25 39 -39 33 -49 -7 -11 -11 -11 -24 -1 -9 7 -14 16 -11 20 2 4 -11 14 -30
21 -19 8 -37 22 -41 32 -3 10 -8 17 -12 15 -4 -1 -17 5 -29 14 -16 11 -20 22
-16 37 3 12 8 22 11 22 3 0 21 -17 41 -38z m-3262 -18 c27 -8 35 -28 27 -70
-5 -27 -11 -34 -30 -34 -12 0 -26 5 -30 11 -3 6 -19 9 -35 5 -25 -5 -29 -3
-29 18 0 24 44 76 64 76 6 0 21 -3 33 -6z m1110 -16 c16 -15 23 -32 22 -57 0
-31 -2 -33 -12 -19 -10 16 -13 16 -43 -3 l-33 -20 -20 47 c-25 57 -26 61 -3
67 39 10 67 6 89 -15z m-4129 -80 c26 -29 58 -38 49 -15 -3 7 5 13 20 13 19 2
21 -1 13 -11 -10 -11 -7 -12 14 -2 21 10 23 13 8 19 -11 5 -7 6 13 6 41 -2 57
9 50 35 -2 12 -2 16 1 9 3 -6 11 -9 16 -6 7 5 8 2 3 -6 -5 -8 -3 -11 6 -8 8 3
13 11 11 17 -1 7 2 10 8 6 5 -3 10 -11 10 -16 0 -6 12 -35 26 -65 14 -31 24
-58 21 -61 -3 -2 -69 -14 -146 -24 -168 -23 -168 -24 -223 79 -37 68 -37 69
-14 65 18 -4 29 2 42 22 l17 27 15 -29 c8 -15 26 -40 40 -55z m1033 65 c-5
-10 -27 -35 -49 -57 -22 -21 -38 -44 -36 -51 3 -8 -2 -12 -12 -12 -9 1 -19 -4
-21 -10 -8 -23 18 -14 45 15 15 15 41 45 59 67 41 53 57 39 59 -53 1 -37 5
-94 9 -127 11 -97 0 -170 -30 -195 -13 -11 -15 -8 -15 16 0 16 7 47 14 69 10
27 11 46 4 58 -5 10 -11 41 -14 70 -3 29 -6 67 -8 85 -3 35 -12 49 -22 39 -4
-4 -2 -12 3 -19 5 -7 7 -24 4 -38 -5 -20 -14 -26 -41 -28 -36 -3 -80 -20 -92
-36 -3 -5 -31 -10 -61 -10 -48 -1 -55 2 -65 23 -15 30 -5 42 13 17 8 -10 18
-15 24 -11 16 9 13 25 -4 25 -25 0 -17 19 18 40 17 10 43 28 57 39 94 73 137
101 153 101 14 0 16 -4 8 -17z m-1356 -13 c-3 -5 -11 -10 -16 -10 -6 0 -7 5
-4 10 3 6 11 10 16 10 6 0 7 -4 4 -10z m445 -20 c0 -5 -2 -10 -4 -10 -3 0 -8
5 -11 10 -3 6 -1 10 4 10 6 0 11 -4 11 -10z m-35 -10 c-3 -5 -14 -10 -23 -9
-14 0 -13 2 3 9 27 11 27 11 20 0z m6605 -22 c0 -19 -2 -20 -10 -8 -13 19 -13
30 0 30 6 0 10 -10 10 -22z m-7010 2 c0 -5 -8 -10 -17 -10 -15 0 -16 2 -3 10
19 12 20 12 20 0z m85 -170 c5 -21 3 -20 -14 8 -24 37 -27 53 -7 32 8 -8 17
-26 21 -40z m991 13 c-1 -20 -7 -27 -19 -25 -12 2 -17 -4 -17 -21 0 -39 -47
-65 -66 -36 -6 10 82 109 98 109 4 0 6 -12 4 -27z m-1026 -13 c8 -5 11 -12 7
-16 -4 -4 0 -19 9 -33 l15 -26 -21 25 -22 24 4 -29 c2 -18 -3 -35 -12 -42 -13
-11 -13 -12 3 -13 15 0 16 -2 5 -14 -9 -10 -15 -11 -20 -2 -6 8 -8 8 -8 -1 0
-19 18 -25 40 -13 17 9 27 8 45 -4 20 -13 24 -13 29 -1 7 20 67 19 114 -2 l37
-16 -73 -8 c-40 -4 -80 -13 -88 -20 -14 -11 -19 -10 -33 7 -10 13 -39 25 -81
33 -36 7 -72 15 -80 17 -8 2 -1 -7 15 -21 17 -14 46 -28 65 -31 71 -11 104
-40 116 -101 5 -27 -1 -38 -73 -115 -43 -47 -99 -108 -125 -136 -60 -66 -93
-75 -126 -37 -25 30 -26 47 -6 143 5 23 3 32 -7 32 -11 0 -51 16 -125 52 -14
7 -28 7 -39 1 -15 -9 -13 -13 14 -36 17 -14 54 -39 81 -54 30 -17 50 -35 50
-45 0 -10 -3 -18 -7 -18 -10 0 -143 81 -149 91 -9 16 -24 9 -24 -10 0 -11 -4
-23 -10 -26 -20 -12 -9 -23 55 -54 73 -36 153 -99 358 -281 77 -69 154 -137
172 -152 17 -15 44 -43 59 -63 23 -30 26 -40 18 -63 -7 -18 -11 -21 -11 -9 -1
26 -69 103 -152 172 -40 33 -111 94 -158 135 -116 101 -231 194 -258 208 -12
7 -47 19 -79 27 -46 12 -60 12 -67 2 -6 -8 -7 -4 -4 11 3 14 0 22 -8 22 -7 0
-20 -10 -28 -22 -9 -13 -16 -18 -16 -13 -1 6 9 22 22 37 16 19 30 25 44 22 16
-4 23 1 31 24 10 28 9 30 -19 36 -16 3 -29 11 -29 17 0 7 11 9 30 5 26 -5 32
-2 39 17 5 12 5 26 0 32 -14 14 -11 35 6 35 8 0 14 -3 14 -7 -6 -37 23 -37 42
0 10 18 9 19 -10 14 -29 -7 -26 3 8 36 18 16 32 23 36 17 4 -6 11 -7 17 -4 6
4 5 10 -3 16 -10 6 -7 7 9 3 17 -5 22 -2 22 13 0 11 7 25 15 32 8 7 15 10 15
7 0 -3 13 -2 29 3 24 6 29 5 24 -6 -3 -8 5 -17 21 -24 15 -5 26 -17 26 -28 0
-33 -12 -32 -53 4 -28 26 -42 33 -50 25 -8 -8 0 -23 31 -54 37 -37 53 -67 37
-67 -3 0 -28 16 -56 36 -47 35 -51 36 -67 20 -19 -19 -25 -12 77 -94 l40 -32
10 32 c5 18 19 56 32 84 26 62 21 93 -21 117 -29 17 -40 37 -21 37 16 0 71
-51 71 -66 0 -9 5 -12 10 -9 15 9 12 45 -3 51 -8 3 -14 18 -14 34 0 25 3 28
15 17 8 -6 27 -12 41 -12 14 -1 36 -4 49 -9 16 -5 22 -4 22 7 0 10 -17 18 -52
23 -31 5 -44 10 -30 12 12 2 22 6 22 10 0 4 20 6 45 4 52 -5 62 13 14 23 -42
9 -17 27 26 19 29 -6 29 -5 10 10 -15 11 -16 15 -5 16 8 0 22 -4 30 -10z
m1114 -8 c7 -22 -17 -98 -30 -94 -9 2 -9 8 -6 77 2 38 26 49 36 17z m-184 -87
c10 -12 7 -27 -16 -81 -15 -37 -30 -61 -32 -54 -5 13 13 83 29 113 15 29 -3
19 -48 -25 -23 -23 -45 -39 -48 -36 -7 6 82 98 95 98 4 0 13 -7 20 -15z m4868
-1 c44 -10 146 -57 155 -71 5 -8 12 -11 17 -8 4 3 20 -12 36 -33 16 -20 52
-61 81 -91 39 -39 50 -57 41 -63 -20 -12 -40 -10 -35 5 2 6 10 11 16 9 7 -1
10 2 6 8 -4 6 -14 4 -29 -5 -17 -11 -36 -14 -67 -10 -62 9 -129 28 -129 37 0
4 -4 8 -9 8 -4 0 -3 -16 3 -35 8 -27 16 -35 28 -31 10 2 20 1 23 -4 3 -4 -7
-11 -23 -15 l-27 -7 25 -10 c34 -13 89 -13 103 1 21 21 28 11 10 -14 -21 -29
-58 -32 -91 -9 -30 21 -41 10 -17 -16 10 -11 20 -18 23 -15 3 3 10 0 17 -5 6
-5 21 -11 33 -13 12 -2 25 -6 28 -10 4 -4 14 -7 23 -7 11 0 11 3 -5 16 -19 15
-19 16 1 8 11 -4 48 -10 81 -12 49 -3 62 0 67 12 4 9 0 22 -8 28 -63 54 -74
68 -57 68 10 0 24 -6 31 -12 12 -11 13 -10 7 6 -6 17 -4 17 28 -2 18 -11 48
-23 65 -27 30 -6 61 -29 61 -43 0 -4 -4 -13 -9 -21 -7 -11 -16 -8 -45 14 -20
15 -33 31 -30 36 3 5 -9 9 -27 9 -31 0 -32 0 -14 -20 10 -11 23 -20 29 -20 7
0 27 -13 46 -30 31 -26 33 -29 14 -30 -12 0 -27 -7 -34 -15 -20 -24 -31 -18
-18 10 11 25 -2 55 -25 55 -5 0 -2 -9 7 -19 22 -24 12 -44 -16 -35 -13 4 -24
1 -29 -7 -7 -12 -9 -12 -9 0 0 11 -3 11 -15 1 -12 -10 -15 -10 -15 0 0 8 -7
10 -17 5 -10 -4 -24 -10 -32 -13 -11 -4 -13 -1 -7 14 6 15 5 17 -5 7 -14 -14
-53 -18 -45 -5 6 10 -60 10 -70 -1 -15 -15 -26 -6 -20 17 4 16 1 26 -8 29 -27
11 -47 55 -51 116 -5 66 -3 69 48 47 18 -7 58 -16 89 -20 54 -7 56 -6 51 13
-3 12 -25 41 -49 66 -24 24 -44 51 -44 60 0 9 -9 15 -23 15 -13 0 -39 14 -57
30 -20 18 -38 26 -43 21 -5 -5 -27 2 -53 16 -43 24 -60 41 -28 29 9 -3 28 -9
42 -12z m-4719 -81 c0 -32 3 -76 6 -98 2 -22 2 -33 -1 -25 -3 8 -14 31 -23 50
-9 19 -17 44 -16 55 1 11 2 32 3 48 1 16 8 27 17 27 11 0 15 -13 14 -57z
m-838 -32 c52 -23 278 -83 539 -143 162 -37 200 -43 306 -43 161 0 197 -22
162 -98 -7 -15 -19 -27 -26 -27 -7 0 -10 4 -7 10 3 5 -4 11 -17 14 -13 2 -131
29 -263 60 -606 142 -749 166 -805 136 -15 -8 -22 -5 -34 12 -52 74 41 125
145 79z m-81 -186 c24 -50 44 -113 31 -99 -17 18 -81 166 -66 154 8 -6 23 -31
35 -55z m5824 29 c22 -9 10 -23 -14 -17 -11 3 -17 9 -14 14 6 11 8 11 28 3z
m-5839 -89 c59 -82 88 -144 83 -180 -1 -11 2 -27 7 -35 5 -8 10 -55 12 -104
l4 -90 -33 47 c-18 25 -46 66 -63 89 -16 24 -42 59 -57 79 -19 25 -23 36 -12
36 8 0 42 -37 76 -81 82 -108 82 -108 73 -61 -3 22 -24 68 -46 103 -21 35 -39
65 -39 68 0 2 -15 26 -33 52 -18 26 -37 54 -41 62 -16 30 55 -56 91 -110 51
-75 57 -81 49 -45 -4 17 -31 71 -60 120 -95 161 -97 171 -11 50z m1308 65 c67
-6 230 -24 362 -40 132 -16 279 -32 327 -35 47 -4 94 -12 104 -19 21 -16 12
-46 -15 -53 -12 -3 -17 -11 -14 -23 4 -17 -3 -18 -104 -13 -59 2 -148 9 -198
14 -49 5 -211 13 -358 16 -147 3 -270 10 -273 15 -6 10 36 78 49 78 4 0 26
-10 49 -21 31 -16 72 -24 157 -30 64 -5 202 -16 308 -25 184 -16 281 -14 313
6 11 7 7 10 -17 10 -17 0 -107 11 -200 24 -176 26 -338 41 -535 52 -115 6
-150 17 -133 44 8 13 27 13 178 0z m4357 -73 c14 -9 41 -18 60 -20 19 -2 35
-7 35 -13 0 -11 -50 -7 -90 8 -30 11 -85 65 -85 82 0 6 12 -2 28 -16 15 -14
38 -33 52 -41z m1868 22 c104 -51 159 -152 150 -273 -6 -63 -48 -154 -77 -164
-8 -3 0 16 18 41 36 53 57 132 46 173 l-8 29 -6 -25 c-4 -14 -12 -25 -19 -25
-6 0 -19 -11 -29 -25 -25 -36 -29 -41 -61 -79 -28 -33 -30 -34 -46 -18 -23 22
-29 22 -65 -8 -16 -14 -55 -41 -87 -60 -31 -19 -76 -53 -100 -75 -54 -50 -48
-48 -67 -31 -10 7 -17 9 -17 4 0 -5 -13 -8 -30 -5 -16 2 -30 0 -30 -6 0 -13
38 -37 71 -45 21 -5 25 -13 26 -42 1 -19 -3 -38 -8 -41 -5 -3 -7 -9 -4 -14 3
-4 -4 -6 -15 -3 -11 3 -20 0 -20 -6 0 -6 3 -10 8 -9 4 1 17 -3 30 -10 12 -7
22 -8 22 -3 0 5 9 8 21 6 15 -3 19 0 15 11 -3 8 -2 13 3 10 5 -3 14 1 21 10
11 12 15 12 22 2 6 -8 8 8 5 45 -2 38 0 57 8 57 6 0 22 17 35 39 l25 39 33
-72 c41 -88 44 -123 11 -148 -13 -11 -64 -54 -112 -96 -49 -42 -93 -79 -98
-80 -17 -6 -40 20 -38 42 2 12 -5 35 -14 53 -18 33 -15 58 8 67 10 3 12 0 8
-12 -6 -14 -5 -15 9 -2 10 9 13 19 7 24 -11 12 -50 16 -43 4 3 -4 -2 -16 -12
-25 -16 -16 -16 -16 -10 4 6 18 4 21 -13 18 -16 -3 -21 4 -26 35 -4 22 -2 47
5 59 14 27 -4 54 -59 92 -35 23 -38 28 -27 45 25 37 25 53 -1 91 -23 34 -25
43 -19 107 11 117 58 199 148 258 127 84 281 98 406 37z m-1137 -158 c146 -76
242 -145 290 -208 24 -32 63 -79 86 -104 l43 -46 -24 -17 c-32 -20 -55 -20
-78 1 -27 24 -23 45 7 37 30 -7 31 2 5 36 -11 14 -20 30 -20 37 0 6 -25 39
-55 72 -50 54 -116 100 -200 140 -16 8 -65 31 -107 53 -43 21 -84 38 -92 38
-7 0 -19 7 -27 16 -7 9 -22 14 -36 11 -19 -4 -23 -1 -18 12 4 9 12 28 17 44
l10 27 57 -52 c32 -29 95 -73 142 -97z m-4155 66 c38 -19 85 -40 104 -47 19
-7 40 -17 46 -21 5 -5 20 -6 32 -2 12 3 22 1 22 -5 0 -5 24 -19 53 -31 51 -21
132 -93 119 -105 -3 -3 0 -6 7 -6 7 0 9 -4 6 -10 -3 -5 -2 -10 3 -10 9 0 32
-43 32 -60 0 -6 -4 -10 -10 -10 -5 0 -10 5 -10 10 0 12 -38 68 -61 90 -8 8
-21 24 -27 35 -7 14 -21 20 -49 21 -50 1 -63 9 -63 40 0 16 -5 24 -12 21 -31
-11 2 -91 51 -124 33 -22 35 -27 38 -86 1 -42 -1 -56 -7 -42 -5 11 -9 31 -10
45 -1 30 -46 84 -64 77 -9 -4 -12 2 -8 18 3 17 -2 25 -17 30 -11 3 -25 3 -31
0 -5 -3 -10 -2 -10 3 0 6 -14 7 -37 1 -22 -5 -39 -4 -41 1 -8 22 -81 127 -101
144 -18 16 -25 17 -47 7 -34 -15 -41 -8 -24 24 18 33 34 32 116 -8z m-2855
-58 c112 -64 140 -87 478 -390 53 -47 107 -93 121 -102 32 -22 9 -22 -28 1
-36 21 -104 77 -317 258 -120 101 -231 180 -287 203 -54 22 -57 22 -82 6 -14
-10 -26 -14 -26 -10 0 9 53 73 62 74 3 1 39 -17 79 -40z m6783 26 c4 -11 -2
-15 -21 -15 -21 0 -24 2 -13 15 7 8 16 15 20 15 4 0 10 -7 14 -15z m175 -99
c63 -56 146 -128 185 -162 67 -57 134 -129 186 -202 17 -23 21 -35 13 -43 -8
-8 -24 8 -58 60 -48 72 -128 151 -329 323 -60 51 -116 104 -125 118 -24 37 -3
21 128 -94z m-5141 97 c-10 -2 -26 -2 -35 0 -10 3 -2 5 17 5 19 0 27 -2 18 -5z
m994 -10 c37 -43 86 -141 76 -151 -8 -8 -7 -20 2 -41 7 -17 10 -42 8 -56 -3
-13 -1 -26 5 -28 6 -2 5 -11 -2 -26 -20 -37 -23 -26 -31 112 0 4 -7 7 -15 7
-18 0 -20 37 -2 43 17 5 -10 37 -32 37 -19 0 -74 87 -67 106 7 20 40 17 58 -3z
m-2392 -107 c41 -33 117 -95 168 -138 51 -42 100 -81 109 -86 12 -7 14 -17 8
-38 -7 -27 -8 -27 -15 -9 -9 23 -63 72 -155 139 -56 42 -238 219 -205 200 8
-4 49 -35 90 -68z m207 -119 c19 -26 34 -50 31 -52 -4 -5 -180 188 -204 225
-27 41 134 -121 173 -173z m8260 142 c86 -30 179 -76 170 -85 -2 -2 -31 8 -63
23 -38 17 -80 28 -119 30 -33 2 -53 0 -45 -3 8 -4 29 -21 45 -38 21 -22 64
-45 138 -74 60 -23 118 -49 130 -57 28 -20 18 -19 -40 4 -26 10 -92 29 -145
41 -109 25 -160 22 -224 -11 -52 -27 -159 -140 -190 -200 -13 -27 -40 -64 -59
-83 -31 -32 -33 -36 -17 -45 15 -9 15 -10 1 -11 -28 0 -32 31 -7 57 19 20 20
25 8 33 -8 5 -18 10 -22 10 -5 0 -8 4 -8 10 0 6 9 6 25 0 14 -5 25 -6 25 -1 0
9 84 137 107 163 15 16 13 22 -19 70 -59 90 -60 93 -44 133 8 19 11 35 7 35
-9 0 -27 -41 -33 -72 -2 -12 -7 -15 -17 -9 -12 8 -12 14 -2 40 17 40 30 49 77
57 21 3 41 8 43 10 2 2 46 4 97 4 78 0 107 -5 181 -31z m-8884 -50 c61 -35
254 -185 320 -248 22 -20 66 -71 99 -113 33 -43 74 -86 91 -97 18 -12 27 -21
20 -21 -7 0 -28 14 -48 31 -19 17 -35 28 -35 24 0 -5 -46 39 -102 96 -57 58
-147 140 -200 184 -112 92 -244 171 -252 150 -6 -16 -46 -39 -46 -27 0 5 15
27 32 50 31 40 33 41 48 24 8 -10 41 -34 73 -53z m4767 -19 c-12 -23 -41 -40
-68 -40 -21 0 -75 39 -55 40 6 0 15 -4 18 -10 12 -19 74 -11 87 10 17 26 32
26 18 0z m-1740 -35 c0 -6 9 -20 20 -30 20 -18 27 -45 11 -45 -4 0 -7 -12 -5
-27 2 -16 1 -22 -2 -15 -3 6 -10 10 -14 7 -5 -3 -5 7 -1 23 7 22 3 37 -15 68
-27 45 -31 62 -9 44 8 -7 15 -18 15 -25z m5410 5 c0 -5 -7 -10 -16 -10 -8 0
-12 5 -9 10 3 6 10 10 16 10 5 0 9 -4 9 -10z m-8476 -33 c23 -19 75 -57 117
-85 114 -76 201 -154 258 -229 28 -38 51 -72 51 -78 0 -5 -8 2 -18 18 -10 15
-22 24 -27 20 -4 -5 -5 -2 -1 5 4 6 3 12 -2 12 -10 0 -33 19 -146 121 -34 30
-95 78 -136 107 -41 28 -88 62 -104 76 -20 18 -33 23 -41 16 -6 -5 -14 -7 -18
-4 -3 3 -10 -4 -17 -15 -18 -35 -32 -24 -14 12 35 68 41 70 98 24z m8555 20
c19 -24 38 -91 31 -111 -5 -16 -9 -14 -23 17 -10 20 -30 51 -45 69 -19 23 -22
30 -9 25 9 -3 17 -2 17 3 0 14 16 12 29 -3z m-57 -47 c23 -47 34 -110 19 -110
-6 0 -11 6 -11 14 0 7 -13 38 -30 69 -35 66 -36 70 -12 65 9 -2 25 -19 34 -38z
m-64 -20 c17 -16 22 -31 21 -68 l-1 -47 -12 36 c-6 21 -18 45 -27 55 -39 46
-24 64 19 24z m-8438 -46 c25 -44 14 -65 -21 -40 -31 22 -38 20 -49 -9 -10
-27 -30 -34 -30 -11 0 8 11 23 23 33 13 10 29 28 36 41 6 12 13 22 15 22 2 0
14 -16 26 -36z m3085 -14 c3 -6 -1 -7 -9 -4 -18 7 -21 14 -7 14 6 0 13 -4 16
-10z m5317 -32 c-10 -22 -11 -21 -11 12 -1 26 2 31 11 22 8 -8 8 -17 0 -34z
m-5354 2 c-7 -11 -17 -20 -22 -20 -5 0 -1 9 9 20 10 11 20 20 22 20 2 0 -2 -9
-9 -20z m1326 4 c-13 -6 -7 -44 7 -44 17 0 9 -29 -10 -40 -11 -5 -40 -10 -65
-10 -52 0 -72 22 -61 69 6 27 8 28 73 29 37 1 62 -1 56 -4z m3980 -26 c3 -16
2 -28 -3 -28 -10 0 -21 47 -13 55 7 7 8 5 16 -27z m695 -15 c11 -24 11 -25 -4
-13 -24 20 -39 51 -22 44 8 -3 20 -17 26 -31z m-8942 -10 c22 -21 63 -74 93
-117 47 -70 49 -77 24 -59 -17 12 -52 54 -79 93 -28 40 -58 80 -67 88 -17 15
-24 32 -14 32 2 0 22 -17 43 -37z m8207 22 c3 -8 1 -15 -4 -15 -6 0 -10 7 -10
15 0 8 2 15 4 15 2 0 6 -7 10 -15z m686 -39 c0 -12 -14 5 -31 39 -8 16 -6 15
10 -4 12 -13 21 -28 21 -35z m-8980 32 c0 -6 -8 -20 -17 -30 -16 -18 -15 -20
5 -41 l22 -21 0 22 c0 13 -6 22 -16 22 -8 0 -12 5 -9 10 17 28 75 -9 75 -47 0
-21 -58 -15 -80 7 -11 11 -27 20 -35 20 -8 0 -15 -9 -15 -20 0 -19 -20 -27
-34 -13 -7 7 82 103 96 103 4 0 8 -5 8 -12z m8800 -7 c0 -20 -23 -29 -46 -19
-23 11 -29 20 -19 30 7 7 65 -3 65 -11z m123 -10 c4 -5 15 -37 23 -72 15 -66
42 -114 130 -234 81 -112 87 -122 69 -122 -8 0 -51 42 -95 92 -75 87 -123 136
-106 108 13 -23 -3 -14 -62 32 -108 86 -114 92 -110 122 4 39 81 97 117 88 14
-4 30 -10 34 -14z m-1283 -6 c13 -16 6 -35 -14 -35 -24 0 -115 -31 -128 -43
-22 -21 -86 -56 -92 -50 -3 4 -6 28 -6 54 0 47 1 48 38 58 127 33 184 38 202
16z m-2015 -72 c-2 -38 -7 -76 -11 -86 -7 -19 20 -57 41 -57 6 0 11 -10 11
-22 -1 -15 7 -27 22 -33 12 -5 22 -15 22 -22 0 -7 5 -13 10 -13 6 0 10 -6 10
-13 0 -8 9 -22 20 -32 15 -14 11 -1 -16 53 -38 78 -57 132 -45 132 4 0 21 -35
39 -77 18 -43 36 -84 40 -91 5 -7 66 -24 136 -37 70 -13 131 -27 135 -30 5 -3
23 -2 40 1 26 5 30 10 25 27 -4 13 -2 17 5 13 6 -4 11 -2 11 3 0 15 -13 14
-36 -4 -10 -8 -35 -14 -54 -14 -39 -1 -201 26 -208 34 -8 8 12 6 129 -11 61
-9 113 -14 116 -11 11 12 -21 81 -55 119 -23 25 -32 42 -25 49 9 9 97 -77 151
-150 21 -28 22 -31 5 -31 -14 0 -15 -2 -4 -9 11 -7 11 -10 -1 -17 -8 -5 -20
-19 -27 -31 -6 -13 -21 -23 -32 -23 -12 0 -30 10 -41 23 -11 12 -16 16 -12 8
6 -11 3 -13 -12 -6 -10 4 -53 16 -94 26 -41 11 -88 23 -104 29 -28 9 -28 9
-11 -10 10 -11 29 -20 43 -20 43 0 182 -42 182 -56 0 -9 -9 -10 -32 -3 -18 4
-65 16 -105 26 -39 10 -81 27 -92 37 -19 17 -21 17 -21 3 0 -23 -9 -22 -77 11
-69 32 -108 66 -153 130 l-33 47 41 -39 c23 -22 54 -45 69 -52 16 -7 22 -13
16 -13 -18 -1 -16 -21 2 -21 8 0 37 -14 65 -31 59 -36 76 -34 27 4 -19 14 -37
24 -40 21 -2 -3 -19 19 -37 48 -18 29 -36 55 -41 58 -4 3 -20 32 -34 63 -25
58 -34 147 -15 147 6 0 10 -20 10 -44 0 -63 16 -66 24 -4 7 49 13 68 21 68 2
0 2 -30 0 -67z m3094 46 c23 -8 31 -17 31 -35 0 -57 -73 -83 -124 -43 -32 25
-32 33 -1 64 27 28 46 30 94 14z m-4348 -49 c22 -12 22 -11 10 -44 -9 -23 -15
-25 -101 -28 -49 -2 -90 0 -90 5 0 4 7 7 15 7 11 0 13 8 9 30 -10 48 6 58 76
48 34 -4 70 -13 81 -18z m1528 -41 c65 -33 86 -52 76 -68 -3 -6 -30 7 -64 32
-32 23 -67 47 -77 54 -39 24 6 12 65 -18z m-5849 -4 c34 -13 74 -51 66 -64 -3
-4 -23 -8 -45 -9 -36 -3 -41 0 -42 20 -1 13 -1 26 -1 30 2 12 -28 30 -42 25
-8 -3 -20 -18 -28 -33 -14 -30 -38 -44 -38 -23 0 23 63 80 80 73 8 -4 31 -12
50 -19z m578 -41 c-4 -3 -12 5 -18 18 -12 22 -12 22 6 6 10 -10 15 -20 12 -24z
m-618 17 c0 -5 -9 -11 -20 -14 -20 -5 -26 3 -13 16 9 10 33 8 33 -2z m8760 -6
c7 -8 8 -15 2 -15 -5 0 -15 7 -22 15 -7 8 -8 15 -2 15 5 0 15 -7 22 -15z
m-4407 -12 c-7 -2 -19 -2 -25 0 -7 3 -2 5 12 5 14 0 19 -2 13 -5z m20 -41 c18
-16 18 -17 -8 -39 -21 -18 -38 -23 -84 -23 -74 0 -96 15 -86 60 l7 33 76 -7
c50 -5 83 -13 95 -24z m-4353 -12 c14 -11 36 -20 48 -20 13 0 37 -9 53 -21 32
-23 40 -62 12 -57 -10 1 -23 -1 -30 -5 -8 -5 -17 0 -25 13 -7 11 -18 20 -25
20 -7 0 -13 9 -13 19 0 11 -5 23 -11 27 -8 4 -9 0 -4 -15 8 -27 -11 -28 -27
-1 -7 11 -19 20 -25 20 -11 0 -11 4 -1 20 16 24 17 24 48 0z m4140 -25 c11
-13 8 -15 -13 -15 -26 0 -42 12 -30 24 11 11 30 7 43 -9z m300 -2 c0 -5 -13
-8 -30 -9 -16 -1 -27 3 -24 7 6 11 54 12 54 2z m4495 -3 c3 -5 1 -10 -4 -10
-6 0 -11 5 -11 10 0 6 2 10 4 10 3 0 8 -4 11 -10z m-4899 -24 c50 -23 64 -40
64 -77 0 -12 7 -19 20 -19 21 0 55 -32 55 -53 1 -18 -16 -27 -54 -27 -33 0
-34 0 -28 37 8 45 -3 34 -31 -34 -25 -60 -28 -107 -8 -154 8 -19 17 -55 21
-82 9 -58 40 -90 116 -123 70 -29 73 -49 18 -109 -61 -66 -75 -72 -105 -44
-13 12 -24 30 -23 38 0 12 4 10 16 -6 20 -30 54 -29 82 1 39 41 24 64 -90 142
-56 38 -112 76 -124 83 -17 11 -23 24 -23 50 0 40 -30 71 -68 71 -19 0 -30 12
-53 58 -16 32 -36 64 -45 71 -23 19 -20 89 4 129 43 70 161 92 256 48z m663 5
c44 -23 70 -59 78 -106 4 -28 0 -41 -22 -67 -16 -18 -38 -55 -50 -82 -19 -43
-28 -51 -61 -60 -34 -10 -43 -19 -69 -71 -21 -41 -41 -66 -66 -80 -69 -39
-180 -126 -189 -148 -5 -12 -9 -16 -9 -9 -1 7 -6 10 -11 7 -6 -3 -15 6 -20 21
-6 15 -9 28 -8 29 2 1 29 14 60 30 32 15 66 38 77 49 12 12 37 68 56 125 39
112 38 127 -6 211 -21 39 -26 85 -7 74 7 -4 8 -3 4 4 -12 20 14 53 57 73 55
25 137 25 186 0z m-4749 -1 c0 -12 -28 -25 -36 -17 -9 9 6 27 22 27 8 0 14 -5
14 -10z m8748 -24 c-1 -14 -7 -22 -15 -19 -9 4 -9 9 0 24 15 25 17 24 15 -5z
m263 7 c13 -16 12 -17 -3 -4 -10 7 -18 15 -18 17 0 8 8 3 21 -13z m-4618 -11
c-12 -9 -38 -12 -76 -10 -93 7 -87 23 9 23 72 0 82 -2 67 -13z m-3866 2 c-3
-3 -12 -4 -19 -1 -8 3 -5 6 6 6 11 1 17 -2 13 -5z m3725 -20 c24 -12 49 -15
100 -12 39 3 68 1 68 -4 0 -22 -22 -48 -41 -48 -11 0 -29 -5 -39 -10 -48 -26
-151 31 -134 74 8 20 8 20 46 0z m-4139 -24 c20 0 97 -70 97 -88 0 -6 -9 -16
-19 -22 -16 -8 -26 -5 -49 15 -17 14 -35 25 -41 25 -6 0 -11 5 -11 11 0 5 5 7
10 4 13 -8 13 1 0 26 -10 18 -12 18 -27 4 -8 -9 -20 -14 -27 -12 -16 5 -20 36
-6 52 11 13 15 13 33 0 12 -8 30 -15 40 -15z m8613 8 c4 -7 3 -8 -4 -4 -7 4
-12 3 -12 -3 0 -19 -45 -39 -102 -46 -40 -5 -58 -4 -58 4 0 6 17 11 38 11 29
0 96 25 129 49 1 0 5 -4 9 -11z m-4237 -85 c1 -18 -5 -23 -23 -23 -63 0 -77
38 -23 63 30 15 33 15 39 -1 4 -9 7 -27 7 -39z m-4479 32 c0 -8 -9 -15 -20
-15 -20 0 -26 11 -13 23 12 13 33 7 33 -8z m131 -75 c16 0 49 -40 49 -60 0
-13 -9 -22 -26 -26 -20 -5 -31 0 -58 29 -17 19 -30 41 -27 48 4 12 2 12 -12 0
-10 -7 -17 -10 -17 -6 0 4 -11 0 -25 -9 -26 -17 -28 -15 -19 22 6 21 34 32 34
12 0 -21 20 -9 26 15 l6 25 30 -25 c16 -14 34 -25 39 -25z m4191 37 c76 2 92
-12 23 -19 -56 -7 -107 3 -113 21 -3 9 0 11 9 5 7 -4 44 -7 81 -7z m4460 -2
c-25 -18 -86 -45 -102 -45 -5 0 -10 4 -10 10 0 5 6 7 13 5 6 -2 32 6 57 19 53
27 74 33 42 11z m-2559 -103 c-7 -52 39 -186 167 -487 56 -132 113 -269 126
-304 13 -35 34 -80 46 -99 21 -34 21 -35 3 -48 -34 -25 -50 -17 -67 34 -9 26
-31 85 -48 132 -18 47 -54 144 -80 215 -144 385 -211 542 -239 559 -4 3 -13 0
-21 -5 -12 -8 -12 -12 -2 -16 38 -15 171 -367 243 -642 16 -64 48 -172 70
-239 41 -124 45 -172 14 -172 -8 0 -15 -4 -15 -10 0 -5 -4 -10 -9 -10 -4 0
-11 34 -15 75 -14 159 -194 743 -281 915 -14 27 -25 61 -25 75 0 22 -3 25 -20
20 -11 -4 -20 -2 -20 4 0 17 38 51 58 51 10 0 23 -5 30 -12 20 -20 40 7 24 32
-20 33 -14 33 27 1 36 -29 39 -34 34 -69z m-1753 68 c11 -7 9 -11 -13 -19 -40
-15 -47 -14 -47 9 0 22 33 27 60 10z m-290 -21 l25 0 -24 -10 c-31 -12 -51 -5
-51 18 0 13 3 14 12 5 7 -7 23 -12 38 -13z m-4206 -42 c-3 -8 3 -20 12 -28 14
-12 19 -10 39 15 19 23 26 26 42 17 11 -5 27 -21 36 -35 9 -14 38 -39 64 -57
68 -45 122 -98 144 -141 20 -40 25 -94 10 -117 -7 -10 -8 -2 -5 25 9 72 -81
188 -179 229 -51 21 -136 29 -182 16 -26 -7 -59 -29 -93 -62 -64 -62 -61 -79
3 -20 24 22 49 41 55 41 16 0 25 -5 23 -12 -1 -3 14 -2 34 4 21 6 54 8 75 5
21 -3 36 -1 32 4 -3 5 -15 9 -27 10 -12 0 -17 3 -10 5 27 11 95 -18 136 -59
49 -49 78 -84 60 -73 -7 4 -13 2 -13 -3 0 -6 4 -11 8 -11 11 0 2 -72 -12 -89
-8 -11 -8 -13 2 -7 6 4 12 2 12 -3 0 -6 -4 -11 -10 -11 -5 0 -10 -7 -10 -15 0
-24 -80 -105 -103 -105 -11 0 -17 -3 -14 -7 8 -7 -11 -33 -25 -33 -5 0 -6 5
-2 11 4 7 -2 6 -17 -2 -20 -10 -21 -13 -7 -18 39 -14 -30 -55 -73 -44 -18 5
-21 3 -16 -11 4 -10 3 -15 -3 -11 -5 3 -18 1 -29 -4 -14 -8 -25 -6 -42 8 -45
34 -64 32 -105 -10 -21 -22 -48 -39 -59 -39 -32 0 -82 59 -96 112 -11 41 -10
55 5 103 20 64 145 237 213 293 28 24 40 39 33 46 -19 19 -10 26 34 26 49 0
65 13 45 36 -10 13 -10 17 2 25 19 12 19 11 13 -4z m3186 -108 c0 -10 -4 -19
-10 -19 -5 0 -10 12 -10 26 0 14 4 23 10 19 6 -3 10 -15 10 -26z m14 -112 c13
-21 -15 -53 -38 -44 -19 8 -21 38 -4 55 15 15 28 11 42 -11z m836 3 c21 -21
23 -29 14 -54 -8 -21 -32 -20 -70 3 l-31 19 18 -35 18 -34 -38 -38 c-36 -36
-52 -76 -50 -125 0 -13 5 -6 14 19 8 24 13 32 14 20 2 -18 3 -18 17 5 15 25
15 25 8 -10 -26 -126 25 -431 141 -840 82 -292 147 -452 215 -534 32 -38 40
-56 38 -80 -2 -19 -9 -32 -18 -32 -8 -1 -21 -2 -28 -3 -7 0 -10 -6 -6 -13 4
-7 3 -8 -5 -4 -9 6 -9 11 1 24 8 10 9 13 1 9 -6 -4 -17 1 -25 11 -13 19 -28
23 -83 23 -41 -1 -66 -16 -93 -56 -26 -40 -65 -47 -82 -15 -8 15 -5 31 16 72
53 105 48 160 -82 798 -95 466 -125 587 -166 679 -52 117 -30 200 50 187 111
-18 122 -18 122 -7 0 12 33 29 58 30 6 1 21 -8 32 -19z m658 -8 c17 -17 23
-17 63 -6 72 22 114 18 138 -12 27 -34 26 -75 -1 -149 -20 -54 -23 -77 -22
-230 1 -241 72 -994 109 -1153 9 -37 29 -93 45 -126 35 -70 37 -96 10 -121
-11 -10 -21 -16 -23 -14 -1 2 -7 13 -14 24 -6 11 -17 19 -23 17 -8 -2 -10 3
-7 13 4 8 2 16 -3 16 -6 1 -14 2 -19 3 -5 0 -12 4 -16 8 -3 3 -22 2 -41 -3
-19 -6 -39 -7 -46 -3 -8 5 -9 1 -4 -12 4 -10 4 -15 0 -11 -9 9 -54 -32 -54
-49 0 -26 -35 -26 -57 1 -30 34 -29 41 11 104 56 86 76 217 76 496 0 282 -34
747 -66 898 -20 97 -18 123 7 72 l20 -40 -7 35 c-9 48 -27 81 -69 125 -32 35
-33 39 -20 58 24 34 17 43 -12 16 -14 -13 -23 -18 -19 -11 6 10 2 10 -21 0
-15 -7 -31 -17 -35 -23 -4 -5 -8 3 -8 18 0 33 40 77 70 77 11 0 28 -8 38 -18z
m2793 -66 c188 -40 315 -172 313 -326 0 -36 -6 -74 -12 -85 -11 -18 -12 -16
-7 12 4 18 4 42 0 53 -6 19 -7 19 -31 -5 -14 -14 -29 -25 -34 -25 -5 0 -7 -6
-4 -13 6 -17 -93 -48 -132 -40 -61 13 -189 8 -229 -9 -35 -14 -43 -14 -60 -2
-24 18 -63 17 -95 -1 -35 -20 -77 -19 -89 3 -9 14 -10 14 -11 1 0 -8 4 -19 9
-25 5 -5 11 -27 13 -49 3 -38 2 -40 -27 -40 -25 0 -30 -4 -32 -25 -1 -14 0
-18 3 -7 7 23 21 22 29 -4 6 -16 13 -20 36 -17 16 3 31 0 33 -6 9 -20 35 26
42 72 l7 45 18 -24 c17 -22 18 -23 37 -6 10 9 23 17 29 17 6 0 14 6 17 13 7
14 1 -13 -23 -106 -27 -101 -34 -106 -182 -119 -146 -13 -164 -10 -154 30 4
15 9 51 12 80 5 54 22 72 24 25 0 -25 1 -26 9 -8 12 28 12 47 0 40 -6 -3 -14
5 -20 20 -8 21 -5 33 16 65 15 22 30 37 35 34 20 -12 20 28 0 66 l-21 41 42
39 c23 22 42 40 43 40 1 0 -1 -19 -6 -42 -8 -45 -3 -88 11 -88 14 0 50 52 50
72 0 26 -24 80 -44 101 -17 16 -16 19 5 55 34 57 70 92 123 119 84 42 154 50
257 29z m-4301 -62 c0 -8 -7 -14 -15 -14 -15 0 -21 21 -9 33 10 9 24 -2 24
-19z m-1605 -85 c22 -11 55 -33 73 -50 33 -30 34 -30 18 -64 -21 -44 -20 -83
4 -122 15 -26 27 -33 50 -33 39 0 49 23 23 58 -11 15 -28 42 -37 60 l-17 34
28 -20 c15 -11 45 -23 66 -27 36 -6 37 -7 31 -43 -7 -45 18 -88 36 -62 9 12
10 12 8 -5 -2 -14 3 -21 19 -23 37 -5 66 -57 38 -68 -8 -3 -12 -11 -9 -18 3
-7 -7 -18 -21 -24 -32 -15 -35 -15 -35 -1 0 5 4 8 9 5 5 -3 14 1 21 9 10 12 7
13 -18 6 -16 -5 -39 -14 -51 -20 -14 -8 -21 -8 -21 -1 0 5 5 10 10 10 6 0 10
5 10 11 0 5 -4 8 -9 4 -18 -10 -34 35 -22 61 6 15 7 24 1 24 -6 0 -10 -5 -10
-11 0 -8 -5 -7 -15 1 -9 7 -18 10 -22 6 -3 -3 -1 -6 5 -6 15 0 16 -37 1 -46
-6 -3 -29 -6 -52 -6 -22 1 -58 -8 -79 -19 -22 -11 -83 -27 -136 -34 -135 -20
-141 -22 -154 -50 -6 -14 -16 -25 -21 -25 -5 0 -4 7 3 15 10 12 10 15 -4 15
-9 0 -16 -5 -16 -10 0 -14 -61 -6 -120 14 -24 8 -46 13 -49 10 -2 -2 3 -21 12
-42 16 -33 16 -35 1 -17 -65 79 -77 199 -30 300 79 173 328 279 481 204z
m2900 2 c-3 -6 -16 -11 -28 -11 -21 0 -21 1 3 13 27 15 36 14 25 -2z m-1124
-103 c18 -34 23 -59 24 -120 0 -44 -4 -74 -9 -70 -5 3 -7 -2 -3 -11 9 -24 -7
-61 -43 -98 -16 -18 -30 -36 -30 -41 0 -5 -4 -7 -8 -4 -5 3 -51 -11 -102 -30
-52 -19 -101 -32 -110 -29 -8 4 -17 6 -20 7 -3 0 -12 4 -21 8 -11 6 -16 5 -16
-5 0 -8 5 -11 11 -8 6 3 5 0 -2 -8 -10 -11 -16 -10 -34 9 -20 19 -20 24 -8 47
14 26 36 35 27 11 -5 -11 1 -12 29 -3 19 6 30 14 23 17 -6 4 8 12 30 18 26 6
41 6 41 0 0 -5 7 -2 16 6 8 9 23 16 33 16 9 0 33 9 54 19 20 10 37 15 37 11 0
-4 9 -10 20 -13 17 -4 20 -2 15 13 -6 19 26 46 39 33 3 -3 6 -1 6 5 0 21 -17
22 -35 2 -25 -28 -44 -25 -90 16 l-40 36 40 -26 c45 -30 73 -33 82 -10 4 11
-12 33 -53 70 l-59 54 68 -45 c37 -25 69 -45 72 -45 12 0 2 35 -35 114 -21 47
-35 86 -30 86 6 0 24 -31 41 -70 33 -72 56 -93 46 -40 -4 16 -16 49 -27 72
-35 74 -19 78 21 6z m-279 -25 c-20 -29 -37 -72 -34 -86 1 -4 -5 -10 -13 -13
-8 -3 -12 -10 -9 -15 3 -5 -1 -44 -8 -86 -9 -53 -19 -84 -35 -101 -13 -14 -23
-23 -23 -20 0 17 24 133 36 178 18 63 36 100 71 148 30 40 44 35 15 -5z
m-2908 -106 c25 -32 28 -40 16 -48 -31 -20 -52 -6 -65 44 -11 41 -10 48 3 45
8 -2 29 -20 46 -41z m-178 3 c54 13 87 12 107 -2 16 -12 16 -21 1 -133 -14
-105 -15 -157 -5 -410 12 -323 13 -350 6 -344 -10 11 -54 263 -61 359 l-9 105
-6 -65 c-3 -36 -6 -53 -7 -38 -5 77 -45 316 -58 347 -8 20 -25 46 -36 58 -12
13 -16 23 -10 23 7 0 23 -18 38 -41 14 -22 28 -39 31 -36 6 7 -24 53 -62 95
-19 21 -36 32 -47 29 -29 -8 -30 9 -2 42 24 29 27 30 53 17 20 -11 38 -12 67
-6z m-246 -70 c0 -5 -7 -7 -15 -4 -8 4 -12 10 -9 15 6 11 24 2 24 -11z m2197
-76 c-3 -3 -2 -11 4 -18 22 -27 69 -130 62 -136 -4 -4 -66 -21 -138 -38 -148
-36 -153 -35 -203 41 -15 23 -30 44 -34 45 -15 7 -8 21 7 16 20 -8 45 13 45
37 0 29 16 23 38 -15 17 -30 62 -56 62 -36 0 4 12 5 28 2 l27 -5 -19 22 c-17
18 -17 21 -3 15 10 -3 35 5 61 20 55 32 65 33 40 4 l-19 -23 23 19 c15 13 19
23 12 30 -13 13 -13 26 2 26 6 0 9 -3 5 -6z m-97 -54 c0 -5 -2 -10 -4 -10 -3
0 -8 5 -11 10 -3 6 -1 10 4 10 6 0 11 -4 11 -10z m-422 -74 c-7 -8 -17 -12
-22 -9 -4 3 -2 9 5 14 22 13 31 11 17 -5z m1560 -21 c20 -25 42 -33 42 -15 0
16 37 11 44 -6 9 -23 7 -36 -4 -29 -9 6 -39 -37 -152 -222 -78 -130 -332 -615
-342 -655 -7 -32 -40 -45 -61 -24 -23 23 -19 36 41 111 37 46 82 122 129 220
79 165 163 317 263 475 63 98 64 100 53 100 -9 0 -88 -108 -147 -202 -16 -25
-79 -124 -140 -220 -61 -95 -125 -201 -143 -235 -18 -33 -42 -71 -52 -82 -11
-12 -16 -21 -12 -21 4 -1 -4 -7 -19 -15 -29 -16 -53 -12 -62 10 -2 7 12 33 33
57 21 24 58 75 82 113 24 39 74 113 111 165 176 248 268 398 268 436 0 22 26
64 40 64 5 0 17 -11 28 -25z m4492 11 c0 -3 -4 -8 -10 -11 -5 -3 -10 -1 -10 4
0 6 5 11 10 11 6 0 10 -2 10 -4z m50 -5 c0 -5 -16 -21 -35 -35 -41 -32 -46
-23 -10 17 26 27 45 35 45 18z m35 -32 c-7 -21 2 -24 25 -10 26 17 29 1 4 -26
-24 -26 -35 -58 -12 -35 7 7 32 12 57 12 l45 0 -34 -31 c-19 -17 -28 -26 -20
-21 9 6 29 16 44 22 27 10 28 9 15 -7 -7 -10 -24 -29 -37 -43 -13 -13 -19 -26
-13 -28 16 -5 51 17 51 34 0 8 12 19 26 24 34 13 37 13 30 -5 -3 -10 3 -17 19
-21 30 -7 32 -20 5 -29 -25 -8 -25 -23 1 -54 17 -21 22 -22 30 -10 5 7 9 18 9
23 0 4 11 5 25 2 14 -4 25 -2 25 4 0 11 -12 13 -47 10 -20 -1 -21 1 -10 24
l12 24 40 -41 c53 -56 137 -127 148 -127 4 0 1 7 -7 16 -26 25 -18 29 9 4 13
-12 22 -27 19 -31 -3 -5 2 -6 11 -3 11 5 14 2 9 -10 -7 -19 7 -21 24 -4 16 16
28 2 14 -15 -9 -11 -5 -28 18 -73 45 -90 70 -151 70 -171 0 -42 11 -60 34 -56
13 3 29 -3 40 -16 22 -24 22 -24 -20 -12 -31 9 -32 8 -38 -28 -9 -54 -58 -150
-159 -306 -128 -198 -153 -237 -166 -260 -10 -17 -10 -16 -5 10 14 62 109 233
200 357 79 108 114 235 85 308 l-10 25 0 -25 c-1 -32 -36 -106 -99 -212 -27
-46 -74 -129 -105 -185 -51 -94 -152 -243 -163 -243 -11 0 10 49 51 115 23 39
72 124 107 190 36 66 92 167 125 225 68 118 77 141 68 170 -6 18 -12 14 -51
-32 -39 -46 -174 -267 -174 -285 0 -14 -104 -189 -144 -242 -53 -72 -115 -133
-127 -125 -5 3 1 14 14 24 32 25 164 234 227 360 95 189 192 330 227 330 18 0
16 9 -11 53 -22 36 -24 37 -29 15 -9 -36 -75 -108 -92 -101 -25 9 -17 37 19
72 40 39 61 83 52 108 -6 14 -15 8 -55 -31 -27 -27 -54 -45 -60 -42 -20 13
-11 47 19 73 34 28 36 40 15 69 -14 19 -14 19 -29 -1 -48 -65 -44 -63 -54 -35
-8 20 -6 30 11 48 16 17 19 27 11 39 -17 27 -33 27 -43 0 -5 -14 -15 -27 -22
-29 -10 -3 -8 -12 7 -34 43 -62 104 -214 104 -259 0 -54 -70 -96 -100 -60 -7
8 -19 15 -26 15 -8 0 -13 5 -12 11 2 6 -3 14 -11 17 -9 3 -11 0 -7 -9 4 -8 0
-5 -8 5 -9 11 -16 23 -16 27 0 4 -9 11 -20 14 -11 4 -18 11 -15 16 4 5 -2 12
-12 16 -10 4 -25 14 -33 22 -8 9 -41 38 -72 64 -32 27 -58 56 -58 65 0 9 8 36
18 59 14 37 24 45 62 58 60 20 112 53 105 66 -5 7 -15 5 -29 -5 -13 -8 -39
-18 -59 -21 -32 -6 -35 -5 -31 13 4 13 -3 26 -18 38 -13 11 -24 30 -25 44 -1
14 -7 26 -13 28 -5 2 -10 13 -10 23 0 11 -4 17 -10 14 -16 -10 -12 31 5 45 8
7 12 16 9 21 -3 5 2 6 11 3 10 -4 13 -13 10 -25z m-959 -47 c61 -71 197 -125
418 -166 108 -21 346 -36 368 -25 26 14 76 11 103 -7 19 -12 25 -25 25 -50 0
-20 -6 -37 -14 -40 -17 -6 -506 75 -673 112 -65 14 -149 32 -187 41 -72 15
-135 53 -137 82 -3 37 3 57 23 74 29 24 37 22 74 -21z m-5088 -98 c-10 -10
-28 6 -28 24 0 15 1 15 17 -1 9 -9 14 -19 11 -23z m-46 6 c24 -22 16 -40 -10
-24 -17 11 -30 44 -17 44 3 0 15 -9 27 -20z m-32 -30 c0 -5 7 -10 15 -10 8 0
15 -5 15 -11 0 -7 -7 -8 -17 -4 -37 15 -53 17 -53 6 0 -6 9 -11 21 -11 12 0
23 -8 26 -20 3 -11 9 -20 14 -20 5 0 9 -5 9 -11 0 -8 -5 -7 -15 1 -13 10 -19
10 -35 -5 -10 -9 -24 -14 -29 -10 -7 3 -11 -2 -11 -14 0 -12 7 -21 15 -21 19
0 19 -16 0 -24 -8 -3 -18 2 -23 10 -5 9 -16 14 -26 13 -31 -7 33 -66 80 -74
41 -6 104 -48 92 -60 -4 -4 -21 -2 -39 4 -18 6 -50 11 -71 11 -56 0 -81 15
-68 40 14 26 -6 68 -23 51 -9 -9 -8 -17 1 -32 8 -12 11 -23 9 -25 -2 -3 -35
14 -73 36 -72 42 -84 46 -84 31 0 -6 27 -24 59 -41 65 -35 121 -84 121 -107 0
-32 -45 -74 -152 -141 -189 -119 -255 -137 -287 -80 -14 24 -13 30 3 60 l19
34 -28 44 c-26 41 -28 43 -41 25 -17 -23 -17 -30 -2 -58 6 -12 13 -40 14 -62
4 -59 126 -382 191 -503 30 -57 70 -118 89 -137 19 -19 31 -35 26 -35 -12 0
-83 77 -108 116 -10 16 -24 34 -31 39 -21 18 -60 106 -131 300 -38 105 -76
210 -84 235 -17 51 -28 56 -45 20 -10 -21 -6 -41 22 -125 62 -187 152 -420
199 -515 51 -103 35 -95 -32 17 -44 72 -164 364 -203 493 l-22 74 -16 -32
c-21 -45 -6 -126 52 -272 56 -142 129 -352 123 -357 -5 -5 -91 163 -101 197
-4 14 -27 71 -51 127 -24 57 -52 136 -62 177 l-18 75 33 68 c18 37 47 82 64
99 17 18 28 37 25 43 -4 7 -1 8 8 5 19 -7 21 7 4 24 -9 9 -9 12 1 12 7 0 26 9
42 21 16 11 29 16 29 10 0 -5 -10 -17 -22 -25 -27 -19 -19 -21 17 -4 21 10 25
16 20 37 -6 22 -4 23 10 11 12 -10 18 -11 28 -1 9 10 8 11 -5 6 -11 -4 -18 -2
-18 5 0 6 5 8 10 5 6 -3 10 0 11 7 0 9 2 9 5 2 3 -7 15 -9 26 -6 19 5 20 6 5
11 -14 5 -10 10 18 23 l35 16 0 -42 1 -41 29 34 c30 35 33 54 5 31 -13 -11
-15 -9 -15 14 0 16 5 26 15 26 8 0 15 5 15 10 0 6 5 10 11 10 6 0 8 -7 5 -17
-4 -10 7 -1 25 20 18 22 37 36 45 33 7 -3 16 -1 19 4 10 17 36 11 67 -15 16
-14 34 -25 39 -25 18 0 8 16 -21 33 -16 10 -30 25 -30 33 0 17 12 18 29 2 11
-11 13 -9 8 9 -4 20 -3 21 15 12 15 -8 22 -8 28 1 5 8 18 10 36 6 l29 -7 -30
25 c-33 28 -25 34 15 11 29 -17 40 -18 40 -6 0 5 -10 12 -22 16 -17 5 -19 8
-8 12 8 4 21 12 28 20 16 15 42 17 42 3z m6145 -21 c6 -6 0 -18 -15 -33 -25
-23 -25 -23 -52 -4 -30 21 -69 26 -111 15 -42 -11 -30 15 14 30 37 13 147 8
164 -8z m-6090 -19 c3 -5 1 -10 -4 -10 -6 0 -11 5 -11 10 0 6 2 10 4 10 3 0 8
-4 11 -10z m-45 -130 c0 -8 -7 -2 -15 14 -19 36 -19 45 0 20 8 -10 14 -26 15
-34z m5972 -35 c2 -3 -3 -38 -13 -78 -26 -102 -22 -124 7 -47 14 36 28 75 31
88 3 12 12 22 20 22 11 0 13 -5 8 -17 -42 -100 -79 -217 -66 -209 4 3 18 31
29 63 21 56 63 127 47 78 -4 -11 -8 -32 -10 -47 -2 -14 -17 -53 -33 -85 -28
-55 -58 -161 -48 -171 3 -2 14 11 25 29 19 32 134 199 137 199 1 0 0 -8 -1
-17 -3 -30 -20 -64 -89 -172 -66 -105 -73 -124 -56 -151 8 -12 14 -10 41 15
34 32 124 143 152 188 21 32 37 35 37 6 0 -16 -75 -136 -100 -159 -3 -3 -31
-33 -63 -67 l-57 -62 -16 37 c-23 55 -33 217 -23 387 4 83 8 156 8 163 1 12
23 17 33 7z m726 -42 c6 -19 -25 -16 -32 3 -4 11 -1 14 11 12 9 -2 18 -9 21
-15z m-6670 -55 c31 -30 34 -31 27 -10 -5 18 4 12 36 -23 52 -56 54 -57 259
-140 226 -91 392 -142 523 -161 121 -17 131 -23 142 -80 12 -68 -29 -83 -99
-34 -24 16 -61 35 -82 43 -50 18 -221 81 -454 169 -102 39 -246 90 -320 115
-135 45 -160 57 -160 75 0 15 66 78 81 78 7 0 28 -15 47 -32z m6712 -13 c7 -9
11 -18 8 -21 -8 -8 -58 18 -52 27 8 14 30 10 44 -6z m30 -89 c11 -14 9 -16 -8
-16 -18 0 -42 25 -42 45 0 9 35 -12 50 -29z m-7459 11 c-6 -8 -8 -17 -4 -20 3
-4 1 -7 -5 -7 -7 0 -12 2 -12 4 0 2 -3 11 -6 20 -4 12 0 16 16 16 18 0 20 -3
11 -13z m631 -19 c15 -12 62 -137 54 -145 -2 -2 -16 25 -31 59 -15 35 -34 71
-43 81 -17 20 -4 23 20 5z m14 -130 l55 -113 -6 85 c-3 47 -8 98 -12 114 -4
22 -3 28 8 24 25 -8 31 -96 19 -241 -7 -77 -16 -151 -20 -165 l-8 -27 -1 25
c-1 14 -10 39 -22 55 -42 62 -116 215 -104 215 2 0 32 -45 65 -100 34 -55 64
-100 67 -100 13 0 -14 95 -52 185 -78 184 -71 210 11 43z m-696 78 c0 -8 -4
-17 -8 -20 -13 -8 -35 11 -28 23 10 16 36 14 36 -3z m868 -3 c12 -10 40 -60
62 -112 69 -158 200 -411 233 -448 l31 -36 -29 7 c-17 3 -49 7 -72 8 l-43 2 0
45 c0 31 -12 73 -36 126 -19 44 -53 123 -76 175 -22 52 -57 130 -77 173 -37
77 -35 95 7 60z m6141 -104 c-91 -184 -184 -305 -225 -297 -29 5 -27 26 5 42
49 26 113 116 201 284 18 34 39 62 46 62 8 0 11 7 7 18 -4 13 -3 14 6 6 10 -9
1 -35 -40 -115z m151 63 c0 -4 -4 -12 -9 -17 -6 -6 -41 -70 -80 -142 -71 -136
-154 -255 -213 -308 -18 -16 -27 -23 -20 -15 17 20 15 27 -8 33 -11 3 -20 10
-20 16 0 6 7 8 15 4 30 -11 138 132 210 277 55 111 88 160 108 160 9 0 17 -4
17 -8z m-7202 -29 c-4 -20 -48 -29 -48 -9 0 13 14 21 43 25 5 0 7 -6 5 -16z
m7589 -58 c28 -24 18 -34 -17 -15 -15 8 -19 5 -25 -17 -4 -17 -2 -29 7 -35 7
-4 28 -18 47 -30 28 -17 31 -22 17 -30 -19 -11 -62 15 -71 43 -4 10 -13 19
-22 19 -10 0 -13 5 -8 18 4 9 12 29 17 45 12 33 19 34 55 2z m-7202 -120 c69
-166 165 -330 199 -341 12 -4 15 -9 7 -13 -7 -4 -9 -16 -5 -27 4 -10 -14 10
-40 45 -25 36 -46 61 -46 57 0 -17 -38 41 -72 109 -44 88 -118 278 -118 304 0
23 37 -43 75 -134z m-394 61 c-9 -47 -8 -64 6 -97 15 -39 10 -67 -7 -39 -7 11
-10 8 -10 -14 0 -15 17 -67 39 -115 42 -94 65 -160 59 -166 -7 -7 -104 186
-123 245 -18 56 -49 91 -72 83 -25 -10 -13 24 12 35 38 17 50 15 31 -7 -16
-18 -16 -19 11 -24 15 -3 28 -5 28 -4 1 1 -1 28 -3 59 -4 53 -5 57 -23 47 -11
-5 -24 -7 -29 -4 -17 11 0 25 28 25 17 0 32 8 40 21 20 32 24 17 13 -45z m590
-8 c57 -113 135 -207 172 -208 21 0 22 -13 3 -29 -12 -10 -22 -5 -52 26 -20
21 -33 31 -29 23 15 -29 -40 37 -59 71 -46 82 -76 159 -61 159 2 0 14 -19 26
-42z m6939 -35 c-1 -36 -26 -71 -41 -56 -7 7 -5 21 7 47 21 43 34 46 34 9z
m-6994 -82 c48 -92 125 -191 149 -191 10 0 11 -5 2 -24 l-11 -24 -46 48 c-45
47 -62 74 -127 200 -33 64 -42 97 -24 85 6 -3 31 -46 57 -94z m7062 6 c14 -15
19 -30 15 -45 -7 -28 -24 -29 -20 -1 1 12 -4 24 -10 26 -8 3 -13 -4 -13 -16 0
-12 -4 -21 -10 -21 -5 0 -10 18 -10 40 0 46 15 52 48 17z m-4007 -28 c27 -22
49 -45 49 -50 0 -12 -37 -12 -42 1 -2 5 -19 7 -40 4 -21 -4 -35 -10 -32 -15 7
-12 -17 -11 -35 0 -9 6 -23 4 -38 -6 -13 -9 -26 -13 -29 -10 -7 7 25 57 37 57
5 0 9 5 9 12 0 19 32 48 53 48 10 0 41 -18 68 -41z m3916 -31 c-14 -33 -128
-190 -134 -184 -4 4 68 133 111 199 33 50 47 42 23 -15z m158 21 c11 -17 0
-20 -21 -4 -17 13 -17 14 -2 15 9 0 20 -5 23 -11z m-7725 -40 c0 -31 -29 -48
-42 -24 -5 8 -18 15 -28 15 -10 0 -22 5 -25 10 -8 13 30 27 67 26 23 -1 28 -5
28 -27z m4345 -9 c12 -13 15 -27 11 -44 -9 -37 -37 -48 -88 -37 -23 5 -46 8
-50 5 -20 -12 -5 25 23 59 35 42 75 49 104 17z m3346 -16 c12 -15 11 -16 -8
-10 -12 4 -24 2 -28 -4 -3 -5 1 -10 11 -10 14 0 15 -2 3 -17 -19 -23 -80 -46
-91 -35 -13 13 8 61 29 68 10 3 25 9 33 14 23 13 36 12 51 -6z m-4223 -44 c36
-34 51 -36 92 -15 25 13 33 13 71 0 40 -15 43 -14 65 6 30 28 54 19 54 -21 0
-27 -9 -35 -33 -31 -4 1 -10 -6 -13 -14 -3 -8 -10 -12 -15 -9 -15 9 -51 -16
-41 -29 5 -7 12 -106 15 -222 5 -197 21 -350 72 -708 52 -366 84 -487 145
-542 12 -11 29 -33 37 -49 22 -43 1 -56 -66 -43 -41 9 -51 8 -66 -6 -22 -22
-38 -21 -60 3 -16 18 -16 22 -1 60 9 22 16 58 16 79 0 43 -29 260 -59 451 -11
69 -36 238 -56 375 -63 443 -73 494 -107 563 -17 34 -35 62 -41 62 -5 0 -7 -6
-4 -14 3 -8 9 -58 12 -113 12 -165 72 -563 129 -853 30 -151 56 -297 59 -325
l6 -50 -15 60 c-104 414 -190 921 -200 1180 -2 72 -8 130 -12 130 -11 -1 -52
52 -52 67 0 14 19 38 31 38 3 0 20 -13 37 -30z m3436 -10 c-6 -5 -24 21 -24
34 0 6 6 1 14 -10 8 -10 12 -21 10 -24z m831 20 c3 -5 2 -10 -4 -10 -5 0 -13
5 -16 10 -3 6 -2 10 4 10 5 0 13 -4 16 -10z m-7749 -10 c14 0 39 -58 30 -67
-4 -4 -26 3 -50 16 -28 16 -53 22 -70 19 -17 -4 -25 -1 -23 6 2 6 16 10 31 9
18 -1 26 3 26 14 0 11 6 14 23 9 12 -3 27 -6 33 -6z m7697 -49 c-2 -6 11 -18
28 -27 17 -8 29 -18 26 -20 -8 -9 -57 8 -57 19 0 6 -17 -8 -38 -31 -27 -29
-47 -42 -65 -42 -57 0 -22 59 53 90 16 7 30 17 30 22 0 5 6 8 13 5 6 -2 11 -9
10 -16z m-3501 -18 c23 -22 39 -27 84 -30 72 -3 78 -10 18 -19 -32 -4 -58 -3
-79 6 -16 7 -42 13 -57 14 -30 1 -37 23 -16 44 16 16 18 16 50 -15z m-1692
-19 c53 -21 102 -80 123 -147 21 -66 21 -73 3 -58 -8 7 -30 11 -48 9 -30 -3
-33 -6 -32 -34 1 -25 -2 -31 -16 -27 -23 6 -62 -57 -58 -94 2 -23 8 -29 35
-31 24 -2 34 2 43 18 6 11 15 18 21 14 6 -3 7 5 3 23 -5 23 -4 26 7 16 7 -7
23 -13 35 -13 23 0 41 -16 30 -27 -4 -4 -12 -1 -18 5 -15 15 -32 16 -23 2 4
-6 1 -9 -5 -8 -7 2 -14 -7 -16 -19 -7 -39 -40 -88 -60 -88 -10 0 -22 -4 -26
-10 -5 -6 -8 -4 -8 5 0 13 -1 13 -10 0 -9 -13 -10 -13 -10 0 0 13 -1 13 -10 0
-8 -13 -10 -12 -10 4 0 13 -3 16 -12 9 -13 -10 -36 -10 -64 1 -17 7 -8 64 13
86 14 13 14 12 4 -10 -11 -23 -11 -23 3 -7 29 37 -14 66 -48 32 -17 -17 -33
-19 -38 -6 -5 14 -92 35 -112 28 -15 -6 -17 -16 -12 -55 3 -26 8 -58 11 -72 4
-17 0 -13 -11 10 -9 19 -34 70 -56 113 -33 64 -39 86 -35 117 14 106 105 200
224 230 48 12 132 4 183 -16z m3681 -22 c41 -26 164 -94 274 -151 276 -143
387 -207 711 -413 260 -165 374 -247 374 -269 0 -17 -50 -22 -68 -7 -9 8 -46
32 -82 53 -36 22 -148 94 -250 161 -433 285 -716 432 -949 494 -106 29 -150
63 -143 112 5 35 27 68 47 68 7 0 46 -22 86 -48z m-6195 6 c24 -17 44 -38 44
-45 0 -20 -31 -29 -44 -12 -6 9 -19 18 -28 22 -11 4 -15 12 -12 22 8 19 4 19
-32 0 -15 -8 -30 -12 -33 -9 -4 4 47 53 57 54 2 0 24 -14 48 -32z m1548 10 c8
-12 13 -25 10 -30 -3 -5 0 -15 6 -23 19 -23 23 -78 6 -100 -8 -11 -18 -17 -22
-12 -4 4 -2 13 4 19 7 7 11 23 11 38 -2 22 -2 22 -6 3 -6 -32 -48 -54 -104
-56 -27 -1 -49 -4 -49 -7 0 -3 -12 -6 -28 -7 -69 -5 -406 -158 -627 -286 -60
-35 -195 -117 -300 -183 -264 -167 -304 -189 -300 -167 2 10 4 28 4 39 1 17
45 49 199 146 344 218 497 303 810 454 108 52 209 105 226 118 107 81 135 91
160 54z m4466 -32 c0 -18 -22 -35 -50 -38 -29 -4 -36 14 -15 36 20 20 65 21
65 2z m-6130 -6 c0 -5 -4 -10 -10 -10 -5 0 -10 5 -10 10 0 6 5 10 10 10 6 0
10 -4 10 -10z m1782 -7 c27 -25 23 -43 -9 -37 -26 5 -53 28 -53 46 0 14 43 8
62 -9z m6046 -21 c3 -16 -2 -22 -16 -22 -20 0 -36 -23 -25 -34 3 -3 17 -3 29
0 16 4 24 2 24 -6 0 -8 -11 -11 -29 -8 -22 3 -31 0 -34 -14 -4 -13 -15 -18
-40 -18 -39 0 -51 11 -43 38 7 22 62 58 82 54 9 -2 18 6 21 18 7 26 27 21 31
-8z m-7743 -23 c76 -52 88 -113 17 -88 -21 7 -32 18 -32 30 0 12 -11 24 -27
31 -16 7 -29 13 -31 14 -4 3 17 44 23 44 2 0 25 -14 50 -31z m7797 -14 c0 -5
-5 -11 -11 -13 -6 -2 -11 4 -11 13 0 9 5 15 11 13 6 -2 11 -8 11 -13z m-6067
-20 c31 -30 31 -37 0 -100 -14 -27 -25 -58 -25 -69 0 -10 -13 -71 -30 -135
-46 -178 -97 -424 -114 -546 -8 -60 -24 -184 -36 -275 -12 -91 -33 -230 -46
-309 -29 -175 -30 -220 -4 -271 11 -22 20 -41 20 -43 0 -3 -14 -10 -31 -17
-22 -10 -33 -10 -42 -1 -6 6 -19 11 -28 11 -30 0 -31 18 -9 83 36 102 59 248
90 567 6 63 20 189 31 280 39 318 56 518 49 562 -3 25 -17 61 -29 81 -24 40
-19 46 17 21 21 -15 32 -42 12 -29 -6 4 -7 -1 -3 -11 5 -15 7 -15 15 0 5 9 8
31 6 49 -2 24 -8 33 -25 35 -35 5 -27 17 20 29 61 17 97 48 97 84 0 37 30 39
65 4z m4289 -9 c11 -26 31 -44 83 -72 64 -37 66 -39 38 -42 -16 -2 -36 -11
-42 -20 -15 -19 -17 -112 -3 -112 5 0 7 -6 4 -13 -4 -12 22 -253 96 -897 41
-350 57 -434 101 -522 23 -45 24 -52 3 -44 -12 5 -15 2 -10 -10 5 -14 4 -15
-8 -5 -10 8 -16 9 -21 1 -8 -12 -72 -14 -79 -1 -3 5 3 29 14 52 25 57 25 86
-4 249 -14 74 -34 212 -46 305 -37 296 -99 635 -130 706 -8 20 -9 17 -5 -16 3
-22 10 -85 15 -140 13 -124 77 -628 91 -710 5 -33 21 -117 35 -187 14 -71 24
-144 22 -164 -3 -35 -4 -36 -50 -39 -55 -3 -64 9 -48 65 18 64 10 222 -30 580
-22 195 -43 425 -46 510 -6 177 -28 338 -55 418 -23 68 -24 100 -2 124 27 30
61 23 77 -16z m-6106 -15 c-7 -12 -17 -21 -23 -21 -17 0 -40 18 -32 26 3 4 13
1 21 -5 12 -10 17 -8 26 9 6 12 14 20 17 17 2 -3 -2 -14 -9 -26z m72 -31 c0
-5 11 -21 25 -36 14 -15 25 -33 25 -40 0 -29 -23 -23 -79 20 -38 28 -61 40
-65 33 -3 -9 -5 -8 -5 1 -1 17 29 28 38 14 5 -8 13 -5 24 9 17 19 37 18 37 -1z
m7786 4 c-4 -9 -3 -22 1 -28 5 -7 0 -3 -9 7 -18 19 -16 37 4 37 5 0 7 -7 4
-16z m-62 -65 c-42 -43 -77 -49 -82 -14 -4 30 18 54 63 69 35 12 41 12 49 -1
6 -11 -3 -26 -30 -54z m-3923 -234 c48 -183 57 -237 63 -400 3 -82 4 -145 1
-140 -2 6 -11 76 -20 156 -8 80 -33 233 -55 340 -27 131 -40 217 -39 264 l2
70 8 -85 c4 -47 22 -139 40 -205z m-2290 255 c26 -15 24 -40 -3 -40 -29 1 -62
25 -53 39 8 14 31 14 56 1z m-1605 -12 c5 -7 3 -8 -6 -3 -10 6 -12 4 -7 -8 4
-10 2 -16 -6 -14 -7 1 -11 -7 -10 -20 4 -30 -11 -29 -25 2 -10 22 -8 26 16 39
15 7 28 14 29 15 1 1 5 -4 9 -11z m7924 5 c0 -5 -7 -17 -15 -27 -8 -10 -12
-23 -9 -27 3 -5 0 -9 -5 -9 -15 0 -14 43 1 58 13 13 28 16 28 5z m-7812 -88
c-2 -14 -9 -19 -25 -17 -13 2 -30 -1 -39 -6 -13 -7 -8 -14 28 -35 59 -34 145
-113 163 -148 20 -37 19 -83 -2 -100 -15 -13 -15 -12 -4 9 11 20 9 31 -14 78
-43 88 -158 164 -249 164 -79 0 -164 -52 -186 -113 l-10 -31 30 29 c16 16 30
23 30 17 0 -10 5 -10 23 -1 12 7 23 12 25 11 10 -7 42 0 37 8 -9 15 8 12 92
-16 42 -14 83 -33 90 -42 6 -10 15 -37 19 -62 4 -25 12 -48 18 -52 7 -5 6 -8
-3 -8 -11 0 -10 -4 5 -16 10 -8 14 -13 9 -10 -15 7 -38 -31 -24 -39 10 -7 -13
-53 -46 -93 -10 -11 -23 -36 -30 -56 -11 -30 -10 -39 6 -66 l19 -31 -35 7
c-23 4 -41 2 -51 -7 -9 -7 -29 -12 -45 -11 -19 2 -29 -1 -29 -10 0 -7 -12 -1
-25 15 -29 32 -35 33 -77 7 -40 -24 -66 -25 -98 -3 -19 13 -22 13 -13 2 7 -8
14 -31 16 -51 4 -45 58 -104 112 -123 38 -14 39 -14 10 -14 -45 0 -70 18 -121
88 -54 75 -67 110 -53 151 7 20 7 45 1 77 -9 40 -7 58 9 108 12 33 34 81 50
106 16 25 29 55 29 66 0 11 11 41 25 67 14 26 25 56 25 68 0 14 5 18 15 14 9
-3 15 1 15 11 0 12 3 13 14 4 10 -9 16 -8 26 3 6 9 9 20 5 26 -3 5 -2 10 4 10
5 0 12 -6 14 -12 3 -8 6 -5 6 5 1 16 3 17 16 4 25 -25 55 -8 78 44 l21 48 49
-27 c35 -20 47 -32 45 -47z m1862 -37 c36 -25 89 -57 119 -72 l53 -27 -21 -21
c-19 -17 -21 -26 -15 -64 7 -52 -2 -55 -40 -16 -15 16 -48 38 -74 50 -182 80
-182 80 -182 106 0 26 14 35 25 16 18 -29 218 -107 248 -97 6 2 -4 12 -23 22
-69 35 -207 135 -217 157 -19 42 -3 52 31 21 17 -16 60 -50 96 -75z m5901 60
c13 -30 18 -33 59 -33 25 0 54 -5 65 -12 20 -12 19 -12 -2 -13 -30 0 -29 -6 7
-42 38 -38 59 -78 108 -210 42 -112 69 -215 34 -128 -10 25 -24 44 -30 43 -7
-2 -9 4 -5 15 6 16 5 16 -13 0 -17 -14 -22 -15 -44 -3 -14 8 -50 14 -80 13
l-55 -1 45 -8 45 -7 -53 1 c-39 2 -52 -2 -52 -12 0 -8 -3 -11 -7 -8 -3 4 -12
-1 -20 -11 -12 -16 -13 -16 -7 3 5 16 4 17 -5 5 -18 -26 -13 -85 11 -115 19
-24 23 -26 33 -12 10 13 17 9 53 -33 75 -87 153 -87 182 0 l14 45 6 -35 c3
-19 3 -42 -1 -50 -4 -8 -13 -29 -19 -47 -7 -17 -21 -39 -31 -49 -16 -14 -14
-8 7 32 15 27 21 43 14 37 -24 -22 -92 -16 -132 12 -42 29 -51 30 -67 12 -18
-22 -96 -16 -118 9 -12 15 -28 21 -46 19 -18 -2 -27 1 -27 11 0 8 4 14 9 14
17 0 18 37 2 69 -9 17 -19 30 -22 27 -3 -3 -6 5 -6 17 -1 12 -14 30 -28 40
-14 10 -25 23 -25 29 0 6 7 4 17 -3 15 -12 16 -12 8 1 -4 8 -14 22 -22 31 -19
22 -22 85 -5 81 8 -1 10 2 7 8 -10 16 1 53 22 76 39 42 85 59 158 58 79 0 138
-25 174 -71 22 -28 22 -28 15 -3 -39 149 -230 190 -386 82 -67 -46 -107 -119
-89 -158 9 -20 9 -25 -1 -22 -43 15 -27 98 30 155 18 18 65 49 105 69 84 42
78 38 81 58 3 19 35 45 57 46 8 0 22 -15 30 -32z m-5446 -118 c3 -6 -1 -7 -9
-4 -9 3 -16 1 -16 -5 0 -6 9 -11 20 -11 11 0 20 5 20 10 0 23 19 8 25 -20 8
-35 39 -57 59 -41 7 6 15 9 17 6 3 -2 27 -7 54 -10 27 -4 54 -10 60 -15 6 -5
21 -7 33 -3 27 7 28 -7 3 -29 -10 -8 -21 -22 -23 -29 -3 -8 -9 -11 -13 -7 -4
4 -2 14 5 23 10 12 10 15 -2 15 -8 0 -22 -22 -32 -50 -22 -62 -35 -64 -28 -5
5 53 -12 62 -24 13 l-8 -33 -7 30 c-4 19 -7 23 -8 10 -1 -25 -36 -83 -68 -112
-28 -27 -35 -29 -27 -9 4 11 -1 14 -20 12 -14 -1 -29 -6 -33 -9 -3 -4 -13 -1
-21 6 -8 6 -17 11 -19 9 -7 -5 -53 11 -53 19 0 5 -6 9 -13 9 -7 0 -22 8 -33
18 -11 9 -26 18 -34 20 -8 2 -16 8 -18 13 -2 5 -10 9 -19 9 -8 0 -13 6 -11 13
8 21 56 19 98 -4 41 -23 54 -43 23 -33 -10 3 2 -5 27 -19 25 -13 69 -26 98
-29 50 -5 53 -4 71 26 11 17 22 49 25 71 6 39 5 39 -4 8 -9 -27 -16 -33 -39
-33 -15 0 -36 9 -46 20 -23 26 -56 148 -41 154 18 7 24 7 31 -4z m332 -62 c-3
-8 -6 -5 -6 6 -1 11 2 17 5 13 3 -3 4 -12 1 -19z m-970 -25 c-3 -10 -5 -4 -5
12 0 17 2 24 5 18 2 -7 2 -21 0 -30z m447 12 c16 -25 16 -26 -10 -35 -15 -6
-35 -12 -46 -14 -11 -1 -24 -9 -29 -17 -10 -16 -13 49 -3 75 10 27 69 21 88
-9z m496 -71 c-12 -25 -34 -53 -49 -62 -14 -9 -29 -21 -33 -27 -4 -5 -8 -6 -8
-2 0 4 23 37 50 73 28 36 50 71 51 77 0 9 2 8 6 -1 2 -6 -5 -33 -17 -58z
m-953 -116 c-4 -84 -22 -279 -41 -433 -57 -459 -65 -583 -41 -678 5 -18 0 -26
-20 -35 -35 -16 -74 -5 -81 23 -3 13 8 92 25 176 45 232 59 327 128 882 15
119 29 217 31 217 3 0 2 -69 -1 -152z m5952 -240 c11 -29 38 -54 74 -67 35
-14 43 -34 23 -63 -9 -12 -16 -17 -16 -10 0 15 -41 16 -75 0 -36 -16 -31 -28
7 -17 17 5 33 7 36 5 2 -2 -22 -12 -53 -21 -31 -9 -82 -27 -112 -40 -30 -14
-60 -22 -66 -18 -6 3 -7 1 -3 -5 4 -7 -7 -18 -26 -27 -29 -14 -30 -14 -14 0
28 21 13 19 -28 -6 -20 -12 -33 -25 -30 -30 3 -5 -1 -6 -9 -3 -8 3 -20 -3 -27
-12 -8 -9 -39 -32 -70 -51 -65 -42 -215 -153 -320 -238 -41 -33 -92 -73 -112
-88 -21 -15 -37 -33 -35 -40 1 -7 -5 -11 -13 -10 -8 2 -62 -41 -119 -95 l-104
-98 2 -69 c3 -94 -9 -111 -68 -95 -24 6 -54 9 -67 6 -13 -3 -26 -1 -30 6 -5 7
-3 8 7 3 10 -6 9 -2 -2 11 -23 26 -49 80 -49 98 0 9 39 42 88 74 48 32 134 96
192 143 126 102 363 285 555 428 77 58 182 136 233 174 71 53 99 81 117 117
26 52 35 58 78 59 20 1 30 -5 36 -21z m-7569 -95 c20 -56 34 -69 252 -254 193
-165 268 -233 499 -457 75 -73 164 -153 198 -178 53 -40 61 -50 61 -79 0 -64
-96 -109 -161 -75 -10 6 -19 7 -19 2 0 -11 -58 -3 -66 9 -3 5 0 9 6 9 7 0 10
7 6 15 -3 9 0 15 9 15 19 0 11 47 -20 115 -39 88 -279 339 -462 485 -43 34
-86 68 -96 76 -9 8 -22 14 -27 14 -6 0 -10 5 -10 10 0 6 -6 10 -13 10 -7 0
-23 9 -35 20 -12 12 -22 18 -22 14 0 -4 -11 5 -25 20 -14 15 -30 24 -37 20 -6
-4 -8 -3 -4 4 3 6 -5 13 -21 17 -53 11 -140 59 -135 74 4 11 -4 13 -40 8 -43
-6 -45 -5 -61 29 -10 19 -17 39 -17 44 0 6 22 10 49 10 46 0 51 3 71 36 20 32
26 35 63 32 39 -3 43 -6 57 -45z m-313 -55 c-3 -8 -6 -5 -6 6 -1 11 2 17 5 13
3 -3 4 -12 1 -19z m8201 -11 c-18 -19 -54 -37 -70 -37 -7 1 4 10 24 20 20 11
40 25 43 31 4 5 9 8 12 5 3 -3 -1 -11 -9 -19z m487 -407 c13 -15 16 -29 11
-58 -9 -59 8 -94 54 -114 41 -17 57 -45 20 -33 -32 10 -23 -12 9 -23 22 -8 49
-40 104 -124 108 -164 115 -181 112 -256 -4 -84 -12 -89 -21 -13 -4 34 -11 64
-15 67 -5 3 -7 9 -4 14 21 35 -174 320 -219 320 -12 0 -6 -38 8 -49 8 -6 20
-26 27 -44 7 -18 24 -49 37 -70 46 -76 70 -122 77 -154 3 -18 4 -33 2 -33 -3
0 -21 33 -41 73 -46 91 -119 214 -140 235 -21 21 -33 7 -14 -15 20 -24 127
-212 163 -288 16 -33 32 -62 35 -65 11 -8 20 -80 11 -80 -5 0 -14 20 -20 44
-22 87 -91 197 -174 279 -72 69 -97 88 -97 72 0 -3 38 -45 85 -93 126 -129
191 -266 150 -312 -10 -11 -23 -20 -29 -20 -6 1 -1 9 12 20 18 15 21 23 13 38
-5 10 -10 27 -9 38 2 45 -44 114 -145 220 l-106 109 22 17 c12 10 24 17 27 17
3 0 27 -27 54 -60 26 -33 51 -58 54 -55 7 8 -47 84 -75 106 l-24 19 30 42 c36
48 38 57 14 55 -11 0 -25 14 -38 39 -24 47 -39 61 -43 39 -3 -13 -6 -13 -18 3
-49 65 46 154 101 93z m-4678 -52 c-3 -8 -6 -5 -6 6 -1 11 2 17 5 13 3 -3 4
-12 1 -19z m320 -30 c-3 -7 -5 -2 -5 12 0 14 2 19 5 13 2 -7 2 -19 0 -25z
m-30 -45 c-2 -16 -4 -5 -4 22 0 28 2 40 4 28 2 -13 2 -35 0 -50z m-30 -10 c-3
-10 -5 -2 -5 17 0 19 2 27 5 18 2 -10 2 -26 0 -35z m4289 22 c20 -20 23 -29
14 -45 -10 -19 -11 -19 -46 5 -19 13 -42 21 -50 18 -17 -6 -18 1 -4 28 15 27
56 24 86 -6z m-8988 3 c18 -18 14 -34 -9 -35 -30 -3 -50 -23 -22 -23 11 0 49
-13 84 -30 100 -46 299 -95 629 -155 476 -85 580 -104 655 -115 74 -12 109
-31 119 -67 10 -34 -81 -103 -137 -104 -40 -1 -40 -2 -12 -9 47 -12 25 -11
-129 5 -219 23 -522 94 -916 215 -69 21 -164 46 -212 56 -87 16 -148 43 -103
44 29 0 168 -34 455 -111 538 -145 723 -177 862 -148 44 9 85 27 68 30 -50 6
-222 38 -445 83 -154 31 -341 67 -415 81 -74 14 -220 45 -324 70 -137 32 -193
42 -206 35 -10 -6 -21 -10 -24 -10 -10 0 -6 49 4 55 15 9 12 61 -5 75 -23 19
-18 38 13 54 33 19 54 20 70 4z m4787 -163 c4 -34 3 -47 -4 -40 -6 6 -13 55
-15 110 -4 85 -4 91 4 40 5 -33 12 -82 15 -110z m-174 120 c22 -17 42 -24 56
-20 21 5 21 3 12 -25 -12 -33 -28 -47 -38 -34 -18 26 -59 33 -107 18 -67 -20
-74 -19 -74 16 0 35 22 49 45 30 13 -10 20 -8 40 14 13 14 26 26 28 26 2 0 19
-11 38 -25z m4342 -12 c8 -10 19 -31 22 -48 4 -16 13 -40 21 -52 11 -18 11
-22 -1 -27 -8 -3 -15 0 -15 6 0 6 -3 8 -7 5 -3 -4 -11 -2 -18 3 -8 7 -51 1
-131 -16 -65 -14 -144 -30 -174 -35 -30 -5 -125 -23 -210 -39 -85 -16 -229
-43 -320 -60 -267 -51 -349 -68 -455 -95 -121 -31 -197 -55 -209 -66 -28 -26
163 -23 321 5 124 22 374 82 617 147 195 52 477 109 542 109 28 0 32 -16 7
-24 -10 -2 -43 -8 -73 -11 -86 -11 -214 -40 -495 -115 -477 -127 -851 -199
-1038 -201 -39 0 -92 -3 -117 -7 -59 -10 -78 -5 -82 20 -2 12 -9 23 -17 26 -8
3 -11 0 -7 -7 4 -6 3 -11 -2 -11 -6 0 -13 7 -16 15 -6 18 75 75 106 75 10 0
39 -20 65 -45 38 -37 53 -45 82 -44 l36 1 -35 8 c-42 10 -100 70 -100 103 0
44 19 54 110 60 47 3 166 23 265 46 99 22 245 51 325 65 80 14 251 44 380 66
296 51 475 94 543 130 65 34 61 33 80 13z m-4223 -73 l-8 -45 1 57 c1 32 4 52
8 45 4 -6 3 -32 -1 -57z m114 -71 c4 -10 2 -16 -7 -16 -10 0 -18 21 -26 68
-15 95 -13 105 8 29 10 -36 21 -72 25 -81z m4232 120 c22 -24 11 -49 -28 -60
-19 -5 -28 -2 -37 13 -10 17 -9 23 11 43 29 29 31 29 54 4z m-9180 -13 c3 -13
0 -34 -6 -47 -11 -20 -13 -20 -22 -6 -5 10 -6 22 -3 27 3 6 -3 10 -14 10 -24
0 -27 10 -9 28 20 20 47 14 54 -12z m4689 -25 c10 -18 7 -413 -4 -424 -12 -12
-14 9 -11 122 1 35 -4 112 -11 172 -6 59 -9 115 -6 124 7 17 23 20 32 6z m-52
-102 c-1 -61 1 -74 6 -49 7 30 9 26 11 -35 4 -113 1 -170 -10 -173 -5 -2 -10
-12 -10 -22 0 -10 -4 -22 -10 -25 -14 -9 -13 5 5 55 18 50 18 50 7 50 -8 0
-28 -55 -34 -93 -6 -37 -23 -15 -24 31 -2 70 -4 71 -23 18 -22 -62 -38 -70
-33 -16 3 32 1 40 -13 40 -13 0 -15 -6 -10 -30 5 -25 4 -29 -9 -24 -9 3 -16
12 -16 19 0 21 23 79 42 105 10 14 25 66 34 115 20 120 39 140 47 51 7 -72 -1
-164 -14 -172 -5 -3 -9 -13 -9 -22 0 -15 1 -15 17 1 14 13 18 41 21 142 3 87
8 125 16 122 7 -2 10 -33 9 -88z m97 72 c5 -11 10 -42 10 -68 0 -27 7 -73 15
-103 9 -30 18 -92 21 -137 5 -72 4 -83 -10 -83 -11 0 -16 9 -16 33 0 46 -10
77 -25 77 -7 0 -16 7 -19 16 -5 13 -1 15 19 10 29 -8 30 -5 9 36 -17 33 -36
238 -22 238 4 0 12 -9 18 -19z m61 -135 c5 -6 9 -25 9 -42 0 -18 5 -36 10 -39
6 -3 10 -20 10 -38 0 -43 -13 -25 -39 52 -21 64 -29 189 -13 205 4 4 8 -23 10
-61 2 -37 7 -72 13 -77z m4565 64 c71 -116 109 -184 95 -176 -15 10 -14 6 9
-46 11 -25 22 -71 24 -104 5 -56 5 -57 -6 -21 -6 20 -15 37 -19 37 -5 0 -6 6
-3 13 3 8 -3 36 -12 63 -9 27 -17 56 -18 64 -2 18 -33 79 -51 100 -14 15 -85
138 -85 146 0 19 24 -9 66 -76z m-9466 48 c-1 -17 -59 -86 -60 -70 0 15 42 82
53 82 4 0 7 -6 7 -12z m4950 -45 c5 -72 12 -119 20 -127 15 -15 12 -26 -4 -20
-9 3 -20 31 -26 62 -6 32 -14 65 -16 75 -4 11 0 17 10 17 9 0 16 -3 16 -7z
m50 -19 c0 -2 -7 -4 -15 -4 -8 0 -15 4 -15 10 0 5 7 7 15 4 8 -4 15 -8 15 -10z
m-2553 -55 c-14 -22 -31 -20 -35 6 -5 22 18 37 35 24 9 -8 9 -15 0 -30z m4605
17 c12 -18 9 -26 -8 -26 -16 0 -43 27 -44 43 0 11 43 -3 52 -17z m-2031 -49
c8 -35 13 -69 11 -75 -6 -20 -22 -14 -22 9 0 11 -4 28 -9 37 -17 33 -23 92 -9
92 8 0 19 -26 29 -63z m48 11 c7 -33 8 -55 2 -61 -6 -6 -12 0 -16 19 -3 16
-10 44 -14 62 -7 23 -6 32 3 32 7 0 18 -23 25 -52z m21 17 c7 -9 8 -15 2 -15
-5 0 -12 7 -16 15 -3 8 -4 15 -2 15 2 0 9 -7 16 -15z m-2574 -4 c5 -4 59 -30
119 -56 61 -27 115 -52 120 -58 17 -16 -34 3 -134 49 -52 24 -96 42 -98 40 -7
-6 48 -37 130 -72 45 -19 85 -40 88 -46 10 -16 42 -1 36 16 -8 20 18 14 65
-14 20 -12 36 -27 34 -33 -1 -7 -1 -9 1 -4 9 15 35 7 29 -9 -3 -8 -2 -12 4 -9
6 3 10 1 10 -6 0 -10 3 -10 11 -2 9 9 21 8 50 -4 22 -8 57 -13 79 -11 52 5 47
-15 -6 -23 -42 -7 -116 -2 -124 9 -5 7 -36 12 -72 13 -10 0 -18 5 -18 11 0 7
-15 9 -39 5 -29 -3 -41 -1 -45 10 -3 8 -2 12 3 9 5 -3 11 0 14 7 3 9 -10 17
-39 25 -24 7 -87 32 -139 56 -57 27 -97 41 -101 34 -10 -16 4 -23 121 -63 61
-21 112 -39 114 -41 3 -3 0 -9 -6 -15 -7 -7 -41 0 -114 24 -124 42 -229 55
-229 28 0 -10 -15 -25 -32 -34 -18 -10 -47 -27 -65 -38 -25 -16 -36 -18 -51
-10 -42 22 -37 63 10 87 16 8 34 26 40 40 11 23 12 23 36 8 33 -21 58 -13 117
40 51 46 64 52 81 37z m4501 -17 c15 -14 39 -36 53 -50 29 -28 44 -30 84 -9
27 14 30 14 45 -7 8 -13 32 -39 51 -58 l36 -35 -26 -21 -25 -22 -43 20 c-23
11 -42 24 -42 29 0 5 -6 9 -14 9 -8 0 -16 7 -20 15 -3 8 -12 15 -21 15 -8 0
-15 7 -15 15 0 8 -2 15 -4 15 -25 0 -159 -35 -230 -60 -48 -17 -94 -29 -102
-26 -17 6 -19 26 -3 26 12 0 240 80 249 88 10 8 -54 51 -65 43 -5 -5 -35 -18
-66 -29 -31 -12 -80 -32 -108 -46 -28 -13 -51 -21 -51 -17 0 4 44 27 98 50 53
23 113 51 132 61 46 25 54 25 87 -6z m-62 -34 c7 -11 -58 -42 -167 -80 -54
-19 -68 -28 -68 -44 -1 -21 -1 -21 -15 -2 -8 11 -15 14 -15 8 0 -7 -9 -12 -19
-12 -11 0 -22 -4 -25 -8 -3 -5 8 -6 25 -4 16 2 29 0 29 -6 0 -5 -15 -10 -34
-10 -18 0 -42 -4 -52 -10 -34 -17 -84 -23 -84 -9 0 8 -3 7 -9 -2 -10 -16 -77
-25 -101 -14 -8 3 -21 7 -29 7 -8 1 -16 6 -18 12 -2 6 10 9 30 6 18 -2 61 6
96 18 35 11 66 19 69 15 3 -3 -1 -5 -8 -5 -7 0 -11 -2 -8 -5 3 -3 13 -2 22 1
14 5 15 9 4 16 -10 7 -10 11 -1 15 7 2 33 15 58 27 43 22 45 22 50 5 7 -21 16
-24 31 -10 5 5 50 26 99 47 50 21 94 41 100 46 13 11 33 10 40 -2z m-1992 -73
c-8 -13 -23 3 -23 26 0 20 0 20 14 2 8 -11 12 -23 9 -28z m-3197 -78 c16 -13
19 -39 3 -39 -5 0 -7 -5 -3 -12 4 -6 3 -8 -3 -5 -13 8 -47 -28 -39 -41 3 -6
-14 -17 -39 -26 l-46 -15 -10 27 c-25 67 25 139 89 128 19 -3 40 -10 48 -17z
m-1969 -51 c-3 -7 -5 -2 -5 12 0 14 2 19 5 13 2 -7 2 -19 0 -25z m44 -81 c-8
-8 -11 -6 -11 5 0 8 -7 21 -15 28 -8 7 -15 16 -15 21 0 4 12 -4 26 -18 18 -18
22 -29 15 -36z m9726 41 c-3 -8 -6 -5 -6 6 -1 11 2 17 5 13 3 -3 4 -12 1 -19z
m-47 -50 c0 -5 -4 -8 -10 -8 -5 0 -10 10 -10 23 0 18 2 19 10 7 5 -8 10 -18
10 -22z m50 12 c0 -5 -2 -10 -4 -10 -3 0 -8 5 -11 10 -3 6 -1 10 4 10 6 0 11
-4 11 -10z"/>
<path d="M7305 9102 c-111 -86 -118 -92 -111 -99 3 -4 19 5 34 19 48 44 136
103 149 100 8 -2 10 3 7 13 -8 21 -11 20 -79 -33z"/>
<path d="M4790 8394 c-30 -8 -62 -22 -72 -31 -26 -24 -23 -75 6 -102 22 -21
28 -22 63 -11 49 16 63 28 79 66 13 32 7 85 -12 90 -5 2 -34 -4 -64 -12z"/>
<path d="M4955 8371 c-12 -55 40 -122 96 -123 36 -1 79 38 79 72 0 38 -70 80
-134 80 -30 0 -35 -4 -41 -29z"/>
<path d="M4888 8286 c-9 -18 -19 -54 -23 -80 -6 -38 -5 -46 8 -46 8 0 17 6 20
13 3 9 9 9 28 0 34 -16 60 -13 55 6 -3 9 -8 32 -11 51 -10 47 -33 90 -48 90
-7 0 -21 -15 -29 -34z"/>
<path d="M4800 8184 c0 -8 5 -12 10 -9 6 4 8 11 5 16 -9 14 -15 11 -15 -7z"/>
<path d="M1194 7741 c13 -14 16 -28 12 -46 -4 -14 -11 -23 -16 -20 -6 4 -10
-7 -10 -23 0 -22 -7 -32 -27 -41 -15 -7 -33 -21 -41 -32 -8 -11 -25 -19 -43
-19 -16 0 -29 -4 -29 -10 0 -16 94 -12 146 6 26 9 65 27 86 40 33 21 38 29 38
62 0 48 -38 87 -95 97 -40 7 -40 7 -21 -14z"/>
<path d="M7565 7701 c-16 -3 -25 -9 -20 -12 6 -4 28 -1 50 6 42 13 22 17 -30
6z"/>
<path d="M7273 7683 c15 -2 39 -2 55 0 15 2 2 4 -28 4 -30 0 -43 -2 -27 -4z"/>
<path d="M6856 7664 c-77 -7 -149 -15 -160 -17 -46 -9 91 -6 177 4 51 5 151
14 222 18 l130 8 -115 0 c-63 0 -178 -6 -254 -13z"/>
<path d="M4879 7557 c6 -8 8 -17 4 -20 -3 -4 12 -7 35 -7 53 0 54 13 3 28 -49
15 -56 15 -42 -1z"/>
<path d="M4425 7172 c-14 -15 -2 -51 28 -79 80 -77 156 -86 280 -34 81 35 127
65 115 76 -4 4 -23 1 -44 -5 -56 -19 -203 -7 -296 23 -42 13 -80 22 -83 19z"/>
<path d="M4841 7013 c-1 -6 -4 -20 -7 -30 -5 -17 -5 -17 6 0 6 10 9 23 6 30
-3 9 -5 9 -5 0z"/>
<path d="M4611 6680 c-41 -20 -83 -49 -93 -64 l-20 -26 34 0 c28 0 44 11 98
65 35 36 62 64 60 63 -3 0 -38 -18 -79 -38z"/>
<path d="M4420 6553 c1 -26 49 -53 82 -46 18 4 14 31 -6 45 -14 10 -76 10 -76
1z"/>
<path d="M3128 7543 c7 -3 16 -2 19 1 4 3 -2 6 -13 5 -11 0 -14 -3 -6 -6z"/>
<path d="M3203 7533 c15 -2 39 -2 55 0 15 2 2 4 -28 4 -30 0 -43 -2 -27 -4z"/>
<path d="M2216 7357 c-10 -7 -17 -21 -15 -31 3 -15 8 -12 27 13 24 32 18 40
-12 18z"/>
<path d="M2247 7336 c-4 -10 -1 -13 9 -9 15 6 19 23 5 23 -5 0 -11 -7 -14 -14z"/>
<path d="M1030 7020 c8 -5 29 -9 45 -9 29 1 29 1 5 9 -14 4 -34 8 -45 9 -16 1
-17 -1 -5 -9z"/>
<path d="M8406 6534 c-19 -49 17 -139 59 -150 38 -9 86 3 138 36 48 30 59 47
32 47 -8 0 -12 -3 -10 -7 2 -3 -6 -12 -18 -20 -20 -12 -21 -12 -9 3 10 12 10
17 1 23 -7 4 -9 3 -5 -4 3 -5 1 -12 -6 -14 -16 -6 -98 22 -98 33 0 5 -7 9 -15
9 -8 0 -15 5 -15 10 0 6 -7 10 -15 10 -8 0 -15 9 -15 20 0 24 -15 27 -24 4z"/>
<path d="M8260 6456 c0 -10 50 -97 68 -118 31 -37 75 -12 75 43 0 44 -32 71
-92 77 -28 2 -51 1 -51 -2z"/>
<path d="M3519 6673 c19 -4 21 -7 10 -14 -12 -7 -11 -11 5 -26 17 -16 18 -16
13 -1 -4 12 -2 15 9 11 7 -3 14 -11 14 -17 0 -7 7 -21 16 -32 14 -18 15 -18 4
4 -11 22 -10 23 9 12 15 -7 21 -7 21 0 0 6 -8 14 -17 17 -10 4 -26 17 -36 30
-12 15 -28 23 -45 22 -26 -2 -26 -2 -3 -6z"/>
<path d="M3605 6640 c7 -11 45 -33 45 -26 0 2 -7 12 -16 20 -17 18 -39 22 -29
6z"/>
<path d="M9277 6413 c-4 -3 -7 -13 -7 -22 1 -13 3 -13 11 2 11 19 8 33 -4 20z"/>
<path d="M1050 6156 c0 -2 7 -9 15 -16 9 -7 15 -8 15 -2 0 5 -7 12 -15 16 -8
3 -15 4 -15 2z"/>
<path d="M4505 5989 c-47 -28 -65 -52 -64 -88 0 -20 3 -29 6 -21 4 8 14 21 25
28 10 7 18 19 17 25 0 9 -2 9 -6 0 -2 -7 -9 -13 -15 -13 -6 0 -6 6 2 15 7 8
19 15 26 15 8 0 14 5 14 10 0 7 7 7 20 0 11 -6 25 -8 30 -5 6 3 10 1 10 -4 0
-6 9 -11 20 -11 11 0 20 7 20 16 0 12 11 9 54 -15 30 -16 57 -27 60 -24 14 15
3 31 -35 52 -48 27 -153 38 -184 20z"/>
<path d="M5200 5991 c-34 -11 -93 -42 -88 -46 2 -3 26 2 53 11 27 8 55 12 62
10 7 -3 13 0 13 7 0 9 2 9 8 0 5 -7 13 -9 21 -3 19 11 68 -8 86 -33 8 -12 15
-16 15 -9 0 17 -36 51 -66 62 -29 11 -68 12 -104 1z"/>
<path d="M335 5371 c-39 -17 -63 -44 -78 -84 -4 -10 -3 -16 1 -13 4 2 9 -16
10 -40 2 -58 17 -84 47 -84 39 0 54 10 86 56 33 48 80 79 110 71 19 -5 44 16
36 30 -2 4 -1 17 3 28 19 52 -126 77 -215 36z"/>
<path d="M265 5359 c-4 -6 -5 -12 -2 -15 2 -3 7 2 10 11 7 17 1 20 -8 4z"/>
<path d="M7825 5240 c-16 -10 -32 -15 -35 -10 -3 5 -16 -7 -29 -25 -22 -32
-22 -37 -10 -76 12 -35 21 -44 59 -60 53 -21 112 -23 200 -4 l65 13 -45 2
c-25 1 -58 10 -75 21 -16 10 -39 24 -51 30 -31 16 -54 61 -49 97 2 18 3 32 2
32 -1 0 -15 -9 -32 -20z"/>
<path d="M7592 4890 c0 -19 2 -27 5 -17 2 9 2 25 0 35 -3 9 -5 1 -5 -18z"/>
<path d="M7612 4900 c0 -14 2 -19 5 -12 2 6 2 18 0 25 -3 6 -5 1 -5 -13z"/>
<path d="M7698 4833 c6 -2 18 -2 25 0 6 3 1 5 -13 5 -14 0 -19 -2 -12 -5z"/>
<path d="M2100 5126 c22 -28 3 -135 -22 -120 -7 5 -9 2 -6 -8 7 -17 -56 -53
-73 -43 -5 4 -9 2 -9 -4 0 -6 -12 -14 -26 -17 -19 -5 -23 -9 -13 -14 19 -11
175 15 202 33 12 8 35 27 51 41 23 22 27 33 22 58 -3 17 -12 38 -19 46 -15 19
-69 42 -98 42 -18 0 -19 -3 -9 -14z"/>
<path d="M3818 4921 c-13 -10 -62 -31 -110 -47 -85 -28 -120 -50 -55 -34 57
14 217 73 217 81 0 16 -30 17 -52 0z"/>
<path d="M3768 4913 c6 -2 18 -2 25 0 6 3 1 5 -13 5 -14 0 -19 -2 -12 -5z"/>
<path d="M571 4864 c0 -11 3 -14 6 -6 3 7 2 16 -1 19 -3 4 -6 -2 -5 -13z"/>
<path d="M8165 4630 c10 -11 19 -20 21 -20 1 0 0 9 -3 20 -3 11 -12 20 -21 20
-13 0 -12 -3 3 -20z"/>
<path d="M8198 4493 c-10 -2 -18 -9 -18 -14 0 -15 36 -10 50 6 13 16 5 18 -32
8z"/>
<path d="M1799 4363 c14 -27 38 -46 45 -35 3 5 -8 19 -25 31 -27 20 -30 21
-20 4z"/>
<path d="M1520 4311 c-5 -11 -10 -41 -10 -67 l0 -47 21 19 c35 31 42 53 29 85
-14 34 -25 37 -40 10z"/>
<path d="M3527 3416 c-63 -23 -90 -83 -48 -106 32 -17 106 -12 123 8 26 29 47
78 39 90 -12 20 -72 24 -114 8z"/>
<path d="M3407 3318 c-20 -22 -17 -34 8 -25 8 4 15 16 15 27 0 24 0 24 -23 -2z"/>
<path d="M3715 3220 c-4 -12 -5 -24 -2 -27 3 -2 8 5 12 17 4 12 5 24 2 27 -3
2 -8 -5 -12 -17z"/>
<path d="M2805 3370 c-3 -5 -1 -10 4 -10 6 0 11 5 11 10 0 6 -2 10 -4 10 -3 0
-8 -4 -11 -10z"/>
<path d="M748 2973 c-53 -64 -72 -127 -63 -210 8 -76 35 -113 83 -113 37 0
131 67 133 95 1 18 2 18 6 2 4 -14 8 -16 19 -6 17 14 18 78 1 100 -16 21 -67
36 -140 42 -32 3 -60 7 -63 9 -2 2 8 25 22 51 26 50 27 58 2 30z"/>
<path d="M8955 3250 c3 -5 8 -10 11 -10 2 0 4 5 4 10 0 6 -5 10 -11 10 -5 0
-7 -4 -4 -10z"/>
<path d="M7611 1643 c-7 -23 -11 -47 -8 -54 3 -8 6 -4 6 9 1 13 6 32 12 43 6
11 9 25 7 31 -2 6 -10 -7 -17 -29z"/>
<path d="M9585 1930 c3 -5 8 -10 11 -10 2 0 4 5 4 10 0 6 -5 10 -11 10 -5 0
-7 -4 -4 -10z"/>
<path d="M554 1842 c10 -17 182 -67 326 -96 157 -31 476 -91 594 -111 181 -31
194 -10 15 24 -236 45 -488 91 -545 100 -69 11 -374 80 -388 89 -5 3 -6 0 -2
-6z"/>
<path d="M9080 1833 c-162 -31 -389 -73 -475 -87 -174 -28 -521 -96 -575 -113
-162 -50 116 -3 850 142 229 46 300 62 300 70 0 7 -13 5 -100 -12z"/>
<path d="M9464 1898 c-10 -15 1 -19 26 -10 l24 9 -22 5 c-12 4 -25 2 -28 -4z"/>
<path d="M4900 1743 c0 -30 -10 -68 -25 -102 -14 -30 -24 -59 -21 -65 8 -22
48 91 53 152 3 34 3 62 -1 62 -3 0 -6 -21 -6 -47z"/>
<path d="M4951 1643 c-1 -17 -8 -38 -16 -47 -8 -8 -15 -23 -14 -33 0 -15 2
-14 9 5 5 12 14 22 19 22 15 0 20 26 11 57 l-8 28 -1 -32z"/>
<path d="M3020 1552 c0 -10 50 -35 57 -28 3 2 -9 12 -26 21 -17 8 -31 12 -31
7z"/>
<path d="M6880 1562 c0 -5 -14 -15 -30 -22 -17 -7 -29 -15 -26 -17 2 -2 21 4
42 15 23 12 33 22 25 26 -6 4 -11 3 -11 -2z"/>
<path d="M32 1718 c-18 -27 -32 -59 -30 -70 2 -14 13 0 37 47 18 36 32 68 30
70 -2 2 -19 -19 -37 -47z"/>
</g>
</svg>
